G75*
%MOIN*%
%OFA0B0*%
%FSLAX25Y25*%
%IPPOS*%
%LPD*%
%AMOC8*
5,1,8,0,0,1.08239X$1,22.5*
%
%ADD10C,0.00000*%
%ADD11C,0.00200*%
%ADD12C,0.00600*%
%ADD13C,0.01000*%
%ADD14R,0.01600X0.02800*%
%ADD15C,0.00787*%
%ADD16C,0.00400*%
%ADD17C,0.00800*%
D10*
X0016800Y0028172D02*
X0016800Y0225022D01*
X0331761Y0225022D01*
X0331761Y0028172D01*
X0016800Y0028172D01*
X0033038Y0044313D02*
X0033040Y0044394D01*
X0033046Y0044476D01*
X0033056Y0044557D01*
X0033070Y0044637D01*
X0033087Y0044716D01*
X0033109Y0044795D01*
X0033134Y0044872D01*
X0033163Y0044949D01*
X0033196Y0045023D01*
X0033233Y0045096D01*
X0033272Y0045167D01*
X0033316Y0045236D01*
X0033362Y0045303D01*
X0033412Y0045367D01*
X0033465Y0045429D01*
X0033521Y0045489D01*
X0033579Y0045545D01*
X0033641Y0045599D01*
X0033705Y0045650D01*
X0033771Y0045697D01*
X0033839Y0045741D01*
X0033910Y0045782D01*
X0033982Y0045819D01*
X0034057Y0045853D01*
X0034132Y0045883D01*
X0034210Y0045909D01*
X0034288Y0045932D01*
X0034367Y0045950D01*
X0034447Y0045965D01*
X0034528Y0045976D01*
X0034609Y0045983D01*
X0034691Y0045986D01*
X0034772Y0045985D01*
X0034853Y0045980D01*
X0034934Y0045971D01*
X0035015Y0045958D01*
X0035095Y0045941D01*
X0035173Y0045921D01*
X0035251Y0045896D01*
X0035328Y0045868D01*
X0035403Y0045836D01*
X0035476Y0045801D01*
X0035547Y0045762D01*
X0035617Y0045719D01*
X0035684Y0045674D01*
X0035750Y0045625D01*
X0035812Y0045573D01*
X0035872Y0045517D01*
X0035929Y0045459D01*
X0035984Y0045399D01*
X0036035Y0045335D01*
X0036083Y0045270D01*
X0036128Y0045202D01*
X0036170Y0045132D01*
X0036208Y0045060D01*
X0036243Y0044986D01*
X0036274Y0044911D01*
X0036301Y0044834D01*
X0036324Y0044756D01*
X0036344Y0044677D01*
X0036360Y0044597D01*
X0036372Y0044516D01*
X0036380Y0044435D01*
X0036384Y0044354D01*
X0036384Y0044272D01*
X0036380Y0044191D01*
X0036372Y0044110D01*
X0036360Y0044029D01*
X0036344Y0043949D01*
X0036324Y0043870D01*
X0036301Y0043792D01*
X0036274Y0043715D01*
X0036243Y0043640D01*
X0036208Y0043566D01*
X0036170Y0043494D01*
X0036128Y0043424D01*
X0036083Y0043356D01*
X0036035Y0043291D01*
X0035984Y0043227D01*
X0035929Y0043167D01*
X0035872Y0043109D01*
X0035812Y0043053D01*
X0035750Y0043001D01*
X0035684Y0042952D01*
X0035617Y0042907D01*
X0035548Y0042864D01*
X0035476Y0042825D01*
X0035403Y0042790D01*
X0035328Y0042758D01*
X0035251Y0042730D01*
X0035173Y0042705D01*
X0035095Y0042685D01*
X0035015Y0042668D01*
X0034934Y0042655D01*
X0034853Y0042646D01*
X0034772Y0042641D01*
X0034691Y0042640D01*
X0034609Y0042643D01*
X0034528Y0042650D01*
X0034447Y0042661D01*
X0034367Y0042676D01*
X0034288Y0042694D01*
X0034210Y0042717D01*
X0034132Y0042743D01*
X0034057Y0042773D01*
X0033982Y0042807D01*
X0033910Y0042844D01*
X0033839Y0042885D01*
X0033771Y0042929D01*
X0033705Y0042976D01*
X0033641Y0043027D01*
X0033579Y0043081D01*
X0033521Y0043137D01*
X0033465Y0043197D01*
X0033412Y0043259D01*
X0033362Y0043323D01*
X0033316Y0043390D01*
X0033272Y0043459D01*
X0033233Y0043530D01*
X0033196Y0043603D01*
X0033163Y0043677D01*
X0033134Y0043754D01*
X0033109Y0043831D01*
X0033087Y0043910D01*
X0033070Y0043989D01*
X0033056Y0044069D01*
X0033046Y0044150D01*
X0033040Y0044232D01*
X0033038Y0044313D01*
X0033038Y0059274D02*
X0033040Y0059355D01*
X0033046Y0059437D01*
X0033056Y0059518D01*
X0033070Y0059598D01*
X0033087Y0059677D01*
X0033109Y0059756D01*
X0033134Y0059833D01*
X0033163Y0059910D01*
X0033196Y0059984D01*
X0033233Y0060057D01*
X0033272Y0060128D01*
X0033316Y0060197D01*
X0033362Y0060264D01*
X0033412Y0060328D01*
X0033465Y0060390D01*
X0033521Y0060450D01*
X0033579Y0060506D01*
X0033641Y0060560D01*
X0033705Y0060611D01*
X0033771Y0060658D01*
X0033839Y0060702D01*
X0033910Y0060743D01*
X0033982Y0060780D01*
X0034057Y0060814D01*
X0034132Y0060844D01*
X0034210Y0060870D01*
X0034288Y0060893D01*
X0034367Y0060911D01*
X0034447Y0060926D01*
X0034528Y0060937D01*
X0034609Y0060944D01*
X0034691Y0060947D01*
X0034772Y0060946D01*
X0034853Y0060941D01*
X0034934Y0060932D01*
X0035015Y0060919D01*
X0035095Y0060902D01*
X0035173Y0060882D01*
X0035251Y0060857D01*
X0035328Y0060829D01*
X0035403Y0060797D01*
X0035476Y0060762D01*
X0035547Y0060723D01*
X0035617Y0060680D01*
X0035684Y0060635D01*
X0035750Y0060586D01*
X0035812Y0060534D01*
X0035872Y0060478D01*
X0035929Y0060420D01*
X0035984Y0060360D01*
X0036035Y0060296D01*
X0036083Y0060231D01*
X0036128Y0060163D01*
X0036170Y0060093D01*
X0036208Y0060021D01*
X0036243Y0059947D01*
X0036274Y0059872D01*
X0036301Y0059795D01*
X0036324Y0059717D01*
X0036344Y0059638D01*
X0036360Y0059558D01*
X0036372Y0059477D01*
X0036380Y0059396D01*
X0036384Y0059315D01*
X0036384Y0059233D01*
X0036380Y0059152D01*
X0036372Y0059071D01*
X0036360Y0058990D01*
X0036344Y0058910D01*
X0036324Y0058831D01*
X0036301Y0058753D01*
X0036274Y0058676D01*
X0036243Y0058601D01*
X0036208Y0058527D01*
X0036170Y0058455D01*
X0036128Y0058385D01*
X0036083Y0058317D01*
X0036035Y0058252D01*
X0035984Y0058188D01*
X0035929Y0058128D01*
X0035872Y0058070D01*
X0035812Y0058014D01*
X0035750Y0057962D01*
X0035684Y0057913D01*
X0035617Y0057868D01*
X0035548Y0057825D01*
X0035476Y0057786D01*
X0035403Y0057751D01*
X0035328Y0057719D01*
X0035251Y0057691D01*
X0035173Y0057666D01*
X0035095Y0057646D01*
X0035015Y0057629D01*
X0034934Y0057616D01*
X0034853Y0057607D01*
X0034772Y0057602D01*
X0034691Y0057601D01*
X0034609Y0057604D01*
X0034528Y0057611D01*
X0034447Y0057622D01*
X0034367Y0057637D01*
X0034288Y0057655D01*
X0034210Y0057678D01*
X0034132Y0057704D01*
X0034057Y0057734D01*
X0033982Y0057768D01*
X0033910Y0057805D01*
X0033839Y0057846D01*
X0033771Y0057890D01*
X0033705Y0057937D01*
X0033641Y0057988D01*
X0033579Y0058042D01*
X0033521Y0058098D01*
X0033465Y0058158D01*
X0033412Y0058220D01*
X0033362Y0058284D01*
X0033316Y0058351D01*
X0033272Y0058420D01*
X0033233Y0058491D01*
X0033196Y0058564D01*
X0033163Y0058638D01*
X0033134Y0058715D01*
X0033109Y0058792D01*
X0033087Y0058871D01*
X0033070Y0058950D01*
X0033056Y0059030D01*
X0033046Y0059111D01*
X0033040Y0059193D01*
X0033038Y0059274D01*
X0145481Y0043920D02*
X0145483Y0044078D01*
X0145489Y0044236D01*
X0145499Y0044394D01*
X0145513Y0044552D01*
X0145531Y0044709D01*
X0145552Y0044866D01*
X0145578Y0045022D01*
X0145608Y0045178D01*
X0145641Y0045333D01*
X0145679Y0045486D01*
X0145720Y0045639D01*
X0145765Y0045791D01*
X0145814Y0045942D01*
X0145867Y0046091D01*
X0145923Y0046239D01*
X0145983Y0046385D01*
X0146047Y0046530D01*
X0146115Y0046673D01*
X0146186Y0046815D01*
X0146260Y0046955D01*
X0146338Y0047092D01*
X0146420Y0047228D01*
X0146504Y0047362D01*
X0146593Y0047493D01*
X0146684Y0047622D01*
X0146779Y0047749D01*
X0146876Y0047874D01*
X0146977Y0047996D01*
X0147081Y0048115D01*
X0147188Y0048232D01*
X0147298Y0048346D01*
X0147411Y0048457D01*
X0147526Y0048566D01*
X0147644Y0048671D01*
X0147765Y0048773D01*
X0147888Y0048873D01*
X0148014Y0048969D01*
X0148142Y0049062D01*
X0148272Y0049152D01*
X0148405Y0049238D01*
X0148540Y0049322D01*
X0148676Y0049401D01*
X0148815Y0049478D01*
X0148956Y0049550D01*
X0149098Y0049620D01*
X0149242Y0049685D01*
X0149388Y0049747D01*
X0149535Y0049805D01*
X0149684Y0049860D01*
X0149834Y0049911D01*
X0149985Y0049958D01*
X0150137Y0050001D01*
X0150290Y0050040D01*
X0150445Y0050076D01*
X0150600Y0050107D01*
X0150756Y0050135D01*
X0150912Y0050159D01*
X0151069Y0050179D01*
X0151227Y0050195D01*
X0151384Y0050207D01*
X0151543Y0050215D01*
X0151701Y0050219D01*
X0151859Y0050219D01*
X0152017Y0050215D01*
X0152176Y0050207D01*
X0152333Y0050195D01*
X0152491Y0050179D01*
X0152648Y0050159D01*
X0152804Y0050135D01*
X0152960Y0050107D01*
X0153115Y0050076D01*
X0153270Y0050040D01*
X0153423Y0050001D01*
X0153575Y0049958D01*
X0153726Y0049911D01*
X0153876Y0049860D01*
X0154025Y0049805D01*
X0154172Y0049747D01*
X0154318Y0049685D01*
X0154462Y0049620D01*
X0154604Y0049550D01*
X0154745Y0049478D01*
X0154884Y0049401D01*
X0155020Y0049322D01*
X0155155Y0049238D01*
X0155288Y0049152D01*
X0155418Y0049062D01*
X0155546Y0048969D01*
X0155672Y0048873D01*
X0155795Y0048773D01*
X0155916Y0048671D01*
X0156034Y0048566D01*
X0156149Y0048457D01*
X0156262Y0048346D01*
X0156372Y0048232D01*
X0156479Y0048115D01*
X0156583Y0047996D01*
X0156684Y0047874D01*
X0156781Y0047749D01*
X0156876Y0047622D01*
X0156967Y0047493D01*
X0157056Y0047362D01*
X0157140Y0047228D01*
X0157222Y0047092D01*
X0157300Y0046955D01*
X0157374Y0046815D01*
X0157445Y0046673D01*
X0157513Y0046530D01*
X0157577Y0046385D01*
X0157637Y0046239D01*
X0157693Y0046091D01*
X0157746Y0045942D01*
X0157795Y0045791D01*
X0157840Y0045639D01*
X0157881Y0045486D01*
X0157919Y0045333D01*
X0157952Y0045178D01*
X0157982Y0045022D01*
X0158008Y0044866D01*
X0158029Y0044709D01*
X0158047Y0044552D01*
X0158061Y0044394D01*
X0158071Y0044236D01*
X0158077Y0044078D01*
X0158079Y0043920D01*
X0158077Y0043762D01*
X0158071Y0043604D01*
X0158061Y0043446D01*
X0158047Y0043288D01*
X0158029Y0043131D01*
X0158008Y0042974D01*
X0157982Y0042818D01*
X0157952Y0042662D01*
X0157919Y0042507D01*
X0157881Y0042354D01*
X0157840Y0042201D01*
X0157795Y0042049D01*
X0157746Y0041898D01*
X0157693Y0041749D01*
X0157637Y0041601D01*
X0157577Y0041455D01*
X0157513Y0041310D01*
X0157445Y0041167D01*
X0157374Y0041025D01*
X0157300Y0040885D01*
X0157222Y0040748D01*
X0157140Y0040612D01*
X0157056Y0040478D01*
X0156967Y0040347D01*
X0156876Y0040218D01*
X0156781Y0040091D01*
X0156684Y0039966D01*
X0156583Y0039844D01*
X0156479Y0039725D01*
X0156372Y0039608D01*
X0156262Y0039494D01*
X0156149Y0039383D01*
X0156034Y0039274D01*
X0155916Y0039169D01*
X0155795Y0039067D01*
X0155672Y0038967D01*
X0155546Y0038871D01*
X0155418Y0038778D01*
X0155288Y0038688D01*
X0155155Y0038602D01*
X0155020Y0038518D01*
X0154884Y0038439D01*
X0154745Y0038362D01*
X0154604Y0038290D01*
X0154462Y0038220D01*
X0154318Y0038155D01*
X0154172Y0038093D01*
X0154025Y0038035D01*
X0153876Y0037980D01*
X0153726Y0037929D01*
X0153575Y0037882D01*
X0153423Y0037839D01*
X0153270Y0037800D01*
X0153115Y0037764D01*
X0152960Y0037733D01*
X0152804Y0037705D01*
X0152648Y0037681D01*
X0152491Y0037661D01*
X0152333Y0037645D01*
X0152176Y0037633D01*
X0152017Y0037625D01*
X0151859Y0037621D01*
X0151701Y0037621D01*
X0151543Y0037625D01*
X0151384Y0037633D01*
X0151227Y0037645D01*
X0151069Y0037661D01*
X0150912Y0037681D01*
X0150756Y0037705D01*
X0150600Y0037733D01*
X0150445Y0037764D01*
X0150290Y0037800D01*
X0150137Y0037839D01*
X0149985Y0037882D01*
X0149834Y0037929D01*
X0149684Y0037980D01*
X0149535Y0038035D01*
X0149388Y0038093D01*
X0149242Y0038155D01*
X0149098Y0038220D01*
X0148956Y0038290D01*
X0148815Y0038362D01*
X0148676Y0038439D01*
X0148540Y0038518D01*
X0148405Y0038602D01*
X0148272Y0038688D01*
X0148142Y0038778D01*
X0148014Y0038871D01*
X0147888Y0038967D01*
X0147765Y0039067D01*
X0147644Y0039169D01*
X0147526Y0039274D01*
X0147411Y0039383D01*
X0147298Y0039494D01*
X0147188Y0039608D01*
X0147081Y0039725D01*
X0146977Y0039844D01*
X0146876Y0039966D01*
X0146779Y0040091D01*
X0146684Y0040218D01*
X0146593Y0040347D01*
X0146504Y0040478D01*
X0146420Y0040612D01*
X0146338Y0040748D01*
X0146260Y0040885D01*
X0146186Y0041025D01*
X0146115Y0041167D01*
X0146047Y0041310D01*
X0145983Y0041455D01*
X0145923Y0041601D01*
X0145867Y0041749D01*
X0145814Y0041898D01*
X0145765Y0042049D01*
X0145720Y0042201D01*
X0145679Y0042354D01*
X0145641Y0042507D01*
X0145608Y0042662D01*
X0145578Y0042818D01*
X0145552Y0042974D01*
X0145531Y0043131D01*
X0145513Y0043288D01*
X0145499Y0043446D01*
X0145489Y0043604D01*
X0145483Y0043762D01*
X0145481Y0043920D01*
X0190481Y0043920D02*
X0190483Y0044078D01*
X0190489Y0044236D01*
X0190499Y0044394D01*
X0190513Y0044552D01*
X0190531Y0044709D01*
X0190552Y0044866D01*
X0190578Y0045022D01*
X0190608Y0045178D01*
X0190641Y0045333D01*
X0190679Y0045486D01*
X0190720Y0045639D01*
X0190765Y0045791D01*
X0190814Y0045942D01*
X0190867Y0046091D01*
X0190923Y0046239D01*
X0190983Y0046385D01*
X0191047Y0046530D01*
X0191115Y0046673D01*
X0191186Y0046815D01*
X0191260Y0046955D01*
X0191338Y0047092D01*
X0191420Y0047228D01*
X0191504Y0047362D01*
X0191593Y0047493D01*
X0191684Y0047622D01*
X0191779Y0047749D01*
X0191876Y0047874D01*
X0191977Y0047996D01*
X0192081Y0048115D01*
X0192188Y0048232D01*
X0192298Y0048346D01*
X0192411Y0048457D01*
X0192526Y0048566D01*
X0192644Y0048671D01*
X0192765Y0048773D01*
X0192888Y0048873D01*
X0193014Y0048969D01*
X0193142Y0049062D01*
X0193272Y0049152D01*
X0193405Y0049238D01*
X0193540Y0049322D01*
X0193676Y0049401D01*
X0193815Y0049478D01*
X0193956Y0049550D01*
X0194098Y0049620D01*
X0194242Y0049685D01*
X0194388Y0049747D01*
X0194535Y0049805D01*
X0194684Y0049860D01*
X0194834Y0049911D01*
X0194985Y0049958D01*
X0195137Y0050001D01*
X0195290Y0050040D01*
X0195445Y0050076D01*
X0195600Y0050107D01*
X0195756Y0050135D01*
X0195912Y0050159D01*
X0196069Y0050179D01*
X0196227Y0050195D01*
X0196384Y0050207D01*
X0196543Y0050215D01*
X0196701Y0050219D01*
X0196859Y0050219D01*
X0197017Y0050215D01*
X0197176Y0050207D01*
X0197333Y0050195D01*
X0197491Y0050179D01*
X0197648Y0050159D01*
X0197804Y0050135D01*
X0197960Y0050107D01*
X0198115Y0050076D01*
X0198270Y0050040D01*
X0198423Y0050001D01*
X0198575Y0049958D01*
X0198726Y0049911D01*
X0198876Y0049860D01*
X0199025Y0049805D01*
X0199172Y0049747D01*
X0199318Y0049685D01*
X0199462Y0049620D01*
X0199604Y0049550D01*
X0199745Y0049478D01*
X0199884Y0049401D01*
X0200020Y0049322D01*
X0200155Y0049238D01*
X0200288Y0049152D01*
X0200418Y0049062D01*
X0200546Y0048969D01*
X0200672Y0048873D01*
X0200795Y0048773D01*
X0200916Y0048671D01*
X0201034Y0048566D01*
X0201149Y0048457D01*
X0201262Y0048346D01*
X0201372Y0048232D01*
X0201479Y0048115D01*
X0201583Y0047996D01*
X0201684Y0047874D01*
X0201781Y0047749D01*
X0201876Y0047622D01*
X0201967Y0047493D01*
X0202056Y0047362D01*
X0202140Y0047228D01*
X0202222Y0047092D01*
X0202300Y0046955D01*
X0202374Y0046815D01*
X0202445Y0046673D01*
X0202513Y0046530D01*
X0202577Y0046385D01*
X0202637Y0046239D01*
X0202693Y0046091D01*
X0202746Y0045942D01*
X0202795Y0045791D01*
X0202840Y0045639D01*
X0202881Y0045486D01*
X0202919Y0045333D01*
X0202952Y0045178D01*
X0202982Y0045022D01*
X0203008Y0044866D01*
X0203029Y0044709D01*
X0203047Y0044552D01*
X0203061Y0044394D01*
X0203071Y0044236D01*
X0203077Y0044078D01*
X0203079Y0043920D01*
X0203077Y0043762D01*
X0203071Y0043604D01*
X0203061Y0043446D01*
X0203047Y0043288D01*
X0203029Y0043131D01*
X0203008Y0042974D01*
X0202982Y0042818D01*
X0202952Y0042662D01*
X0202919Y0042507D01*
X0202881Y0042354D01*
X0202840Y0042201D01*
X0202795Y0042049D01*
X0202746Y0041898D01*
X0202693Y0041749D01*
X0202637Y0041601D01*
X0202577Y0041455D01*
X0202513Y0041310D01*
X0202445Y0041167D01*
X0202374Y0041025D01*
X0202300Y0040885D01*
X0202222Y0040748D01*
X0202140Y0040612D01*
X0202056Y0040478D01*
X0201967Y0040347D01*
X0201876Y0040218D01*
X0201781Y0040091D01*
X0201684Y0039966D01*
X0201583Y0039844D01*
X0201479Y0039725D01*
X0201372Y0039608D01*
X0201262Y0039494D01*
X0201149Y0039383D01*
X0201034Y0039274D01*
X0200916Y0039169D01*
X0200795Y0039067D01*
X0200672Y0038967D01*
X0200546Y0038871D01*
X0200418Y0038778D01*
X0200288Y0038688D01*
X0200155Y0038602D01*
X0200020Y0038518D01*
X0199884Y0038439D01*
X0199745Y0038362D01*
X0199604Y0038290D01*
X0199462Y0038220D01*
X0199318Y0038155D01*
X0199172Y0038093D01*
X0199025Y0038035D01*
X0198876Y0037980D01*
X0198726Y0037929D01*
X0198575Y0037882D01*
X0198423Y0037839D01*
X0198270Y0037800D01*
X0198115Y0037764D01*
X0197960Y0037733D01*
X0197804Y0037705D01*
X0197648Y0037681D01*
X0197491Y0037661D01*
X0197333Y0037645D01*
X0197176Y0037633D01*
X0197017Y0037625D01*
X0196859Y0037621D01*
X0196701Y0037621D01*
X0196543Y0037625D01*
X0196384Y0037633D01*
X0196227Y0037645D01*
X0196069Y0037661D01*
X0195912Y0037681D01*
X0195756Y0037705D01*
X0195600Y0037733D01*
X0195445Y0037764D01*
X0195290Y0037800D01*
X0195137Y0037839D01*
X0194985Y0037882D01*
X0194834Y0037929D01*
X0194684Y0037980D01*
X0194535Y0038035D01*
X0194388Y0038093D01*
X0194242Y0038155D01*
X0194098Y0038220D01*
X0193956Y0038290D01*
X0193815Y0038362D01*
X0193676Y0038439D01*
X0193540Y0038518D01*
X0193405Y0038602D01*
X0193272Y0038688D01*
X0193142Y0038778D01*
X0193014Y0038871D01*
X0192888Y0038967D01*
X0192765Y0039067D01*
X0192644Y0039169D01*
X0192526Y0039274D01*
X0192411Y0039383D01*
X0192298Y0039494D01*
X0192188Y0039608D01*
X0192081Y0039725D01*
X0191977Y0039844D01*
X0191876Y0039966D01*
X0191779Y0040091D01*
X0191684Y0040218D01*
X0191593Y0040347D01*
X0191504Y0040478D01*
X0191420Y0040612D01*
X0191338Y0040748D01*
X0191260Y0040885D01*
X0191186Y0041025D01*
X0191115Y0041167D01*
X0191047Y0041310D01*
X0190983Y0041455D01*
X0190923Y0041601D01*
X0190867Y0041749D01*
X0190814Y0041898D01*
X0190765Y0042049D01*
X0190720Y0042201D01*
X0190679Y0042354D01*
X0190641Y0042507D01*
X0190608Y0042662D01*
X0190578Y0042818D01*
X0190552Y0042974D01*
X0190531Y0043131D01*
X0190513Y0043288D01*
X0190499Y0043446D01*
X0190489Y0043604D01*
X0190483Y0043762D01*
X0190481Y0043920D01*
X0313651Y0039983D02*
X0313653Y0040141D01*
X0313659Y0040299D01*
X0313669Y0040457D01*
X0313683Y0040615D01*
X0313701Y0040772D01*
X0313722Y0040929D01*
X0313748Y0041085D01*
X0313778Y0041241D01*
X0313811Y0041396D01*
X0313849Y0041549D01*
X0313890Y0041702D01*
X0313935Y0041854D01*
X0313984Y0042005D01*
X0314037Y0042154D01*
X0314093Y0042302D01*
X0314153Y0042448D01*
X0314217Y0042593D01*
X0314285Y0042736D01*
X0314356Y0042878D01*
X0314430Y0043018D01*
X0314508Y0043155D01*
X0314590Y0043291D01*
X0314674Y0043425D01*
X0314763Y0043556D01*
X0314854Y0043685D01*
X0314949Y0043812D01*
X0315046Y0043937D01*
X0315147Y0044059D01*
X0315251Y0044178D01*
X0315358Y0044295D01*
X0315468Y0044409D01*
X0315581Y0044520D01*
X0315696Y0044629D01*
X0315814Y0044734D01*
X0315935Y0044836D01*
X0316058Y0044936D01*
X0316184Y0045032D01*
X0316312Y0045125D01*
X0316442Y0045215D01*
X0316575Y0045301D01*
X0316710Y0045385D01*
X0316846Y0045464D01*
X0316985Y0045541D01*
X0317126Y0045613D01*
X0317268Y0045683D01*
X0317412Y0045748D01*
X0317558Y0045810D01*
X0317705Y0045868D01*
X0317854Y0045923D01*
X0318004Y0045974D01*
X0318155Y0046021D01*
X0318307Y0046064D01*
X0318460Y0046103D01*
X0318615Y0046139D01*
X0318770Y0046170D01*
X0318926Y0046198D01*
X0319082Y0046222D01*
X0319239Y0046242D01*
X0319397Y0046258D01*
X0319554Y0046270D01*
X0319713Y0046278D01*
X0319871Y0046282D01*
X0320029Y0046282D01*
X0320187Y0046278D01*
X0320346Y0046270D01*
X0320503Y0046258D01*
X0320661Y0046242D01*
X0320818Y0046222D01*
X0320974Y0046198D01*
X0321130Y0046170D01*
X0321285Y0046139D01*
X0321440Y0046103D01*
X0321593Y0046064D01*
X0321745Y0046021D01*
X0321896Y0045974D01*
X0322046Y0045923D01*
X0322195Y0045868D01*
X0322342Y0045810D01*
X0322488Y0045748D01*
X0322632Y0045683D01*
X0322774Y0045613D01*
X0322915Y0045541D01*
X0323054Y0045464D01*
X0323190Y0045385D01*
X0323325Y0045301D01*
X0323458Y0045215D01*
X0323588Y0045125D01*
X0323716Y0045032D01*
X0323842Y0044936D01*
X0323965Y0044836D01*
X0324086Y0044734D01*
X0324204Y0044629D01*
X0324319Y0044520D01*
X0324432Y0044409D01*
X0324542Y0044295D01*
X0324649Y0044178D01*
X0324753Y0044059D01*
X0324854Y0043937D01*
X0324951Y0043812D01*
X0325046Y0043685D01*
X0325137Y0043556D01*
X0325226Y0043425D01*
X0325310Y0043291D01*
X0325392Y0043155D01*
X0325470Y0043018D01*
X0325544Y0042878D01*
X0325615Y0042736D01*
X0325683Y0042593D01*
X0325747Y0042448D01*
X0325807Y0042302D01*
X0325863Y0042154D01*
X0325916Y0042005D01*
X0325965Y0041854D01*
X0326010Y0041702D01*
X0326051Y0041549D01*
X0326089Y0041396D01*
X0326122Y0041241D01*
X0326152Y0041085D01*
X0326178Y0040929D01*
X0326199Y0040772D01*
X0326217Y0040615D01*
X0326231Y0040457D01*
X0326241Y0040299D01*
X0326247Y0040141D01*
X0326249Y0039983D01*
X0326247Y0039825D01*
X0326241Y0039667D01*
X0326231Y0039509D01*
X0326217Y0039351D01*
X0326199Y0039194D01*
X0326178Y0039037D01*
X0326152Y0038881D01*
X0326122Y0038725D01*
X0326089Y0038570D01*
X0326051Y0038417D01*
X0326010Y0038264D01*
X0325965Y0038112D01*
X0325916Y0037961D01*
X0325863Y0037812D01*
X0325807Y0037664D01*
X0325747Y0037518D01*
X0325683Y0037373D01*
X0325615Y0037230D01*
X0325544Y0037088D01*
X0325470Y0036948D01*
X0325392Y0036811D01*
X0325310Y0036675D01*
X0325226Y0036541D01*
X0325137Y0036410D01*
X0325046Y0036281D01*
X0324951Y0036154D01*
X0324854Y0036029D01*
X0324753Y0035907D01*
X0324649Y0035788D01*
X0324542Y0035671D01*
X0324432Y0035557D01*
X0324319Y0035446D01*
X0324204Y0035337D01*
X0324086Y0035232D01*
X0323965Y0035130D01*
X0323842Y0035030D01*
X0323716Y0034934D01*
X0323588Y0034841D01*
X0323458Y0034751D01*
X0323325Y0034665D01*
X0323190Y0034581D01*
X0323054Y0034502D01*
X0322915Y0034425D01*
X0322774Y0034353D01*
X0322632Y0034283D01*
X0322488Y0034218D01*
X0322342Y0034156D01*
X0322195Y0034098D01*
X0322046Y0034043D01*
X0321896Y0033992D01*
X0321745Y0033945D01*
X0321593Y0033902D01*
X0321440Y0033863D01*
X0321285Y0033827D01*
X0321130Y0033796D01*
X0320974Y0033768D01*
X0320818Y0033744D01*
X0320661Y0033724D01*
X0320503Y0033708D01*
X0320346Y0033696D01*
X0320187Y0033688D01*
X0320029Y0033684D01*
X0319871Y0033684D01*
X0319713Y0033688D01*
X0319554Y0033696D01*
X0319397Y0033708D01*
X0319239Y0033724D01*
X0319082Y0033744D01*
X0318926Y0033768D01*
X0318770Y0033796D01*
X0318615Y0033827D01*
X0318460Y0033863D01*
X0318307Y0033902D01*
X0318155Y0033945D01*
X0318004Y0033992D01*
X0317854Y0034043D01*
X0317705Y0034098D01*
X0317558Y0034156D01*
X0317412Y0034218D01*
X0317268Y0034283D01*
X0317126Y0034353D01*
X0316985Y0034425D01*
X0316846Y0034502D01*
X0316710Y0034581D01*
X0316575Y0034665D01*
X0316442Y0034751D01*
X0316312Y0034841D01*
X0316184Y0034934D01*
X0316058Y0035030D01*
X0315935Y0035130D01*
X0315814Y0035232D01*
X0315696Y0035337D01*
X0315581Y0035446D01*
X0315468Y0035557D01*
X0315358Y0035671D01*
X0315251Y0035788D01*
X0315147Y0035907D01*
X0315046Y0036029D01*
X0314949Y0036154D01*
X0314854Y0036281D01*
X0314763Y0036410D01*
X0314674Y0036541D01*
X0314590Y0036675D01*
X0314508Y0036811D01*
X0314430Y0036948D01*
X0314356Y0037088D01*
X0314285Y0037230D01*
X0314217Y0037373D01*
X0314153Y0037518D01*
X0314093Y0037664D01*
X0314037Y0037812D01*
X0313984Y0037961D01*
X0313935Y0038112D01*
X0313890Y0038264D01*
X0313849Y0038417D01*
X0313811Y0038570D01*
X0313778Y0038725D01*
X0313748Y0038881D01*
X0313722Y0039037D01*
X0313701Y0039194D01*
X0313683Y0039351D01*
X0313669Y0039509D01*
X0313659Y0039667D01*
X0313653Y0039825D01*
X0313651Y0039983D01*
X0313651Y0138408D02*
X0313653Y0138566D01*
X0313659Y0138724D01*
X0313669Y0138882D01*
X0313683Y0139040D01*
X0313701Y0139197D01*
X0313722Y0139354D01*
X0313748Y0139510D01*
X0313778Y0139666D01*
X0313811Y0139821D01*
X0313849Y0139974D01*
X0313890Y0140127D01*
X0313935Y0140279D01*
X0313984Y0140430D01*
X0314037Y0140579D01*
X0314093Y0140727D01*
X0314153Y0140873D01*
X0314217Y0141018D01*
X0314285Y0141161D01*
X0314356Y0141303D01*
X0314430Y0141443D01*
X0314508Y0141580D01*
X0314590Y0141716D01*
X0314674Y0141850D01*
X0314763Y0141981D01*
X0314854Y0142110D01*
X0314949Y0142237D01*
X0315046Y0142362D01*
X0315147Y0142484D01*
X0315251Y0142603D01*
X0315358Y0142720D01*
X0315468Y0142834D01*
X0315581Y0142945D01*
X0315696Y0143054D01*
X0315814Y0143159D01*
X0315935Y0143261D01*
X0316058Y0143361D01*
X0316184Y0143457D01*
X0316312Y0143550D01*
X0316442Y0143640D01*
X0316575Y0143726D01*
X0316710Y0143810D01*
X0316846Y0143889D01*
X0316985Y0143966D01*
X0317126Y0144038D01*
X0317268Y0144108D01*
X0317412Y0144173D01*
X0317558Y0144235D01*
X0317705Y0144293D01*
X0317854Y0144348D01*
X0318004Y0144399D01*
X0318155Y0144446D01*
X0318307Y0144489D01*
X0318460Y0144528D01*
X0318615Y0144564D01*
X0318770Y0144595D01*
X0318926Y0144623D01*
X0319082Y0144647D01*
X0319239Y0144667D01*
X0319397Y0144683D01*
X0319554Y0144695D01*
X0319713Y0144703D01*
X0319871Y0144707D01*
X0320029Y0144707D01*
X0320187Y0144703D01*
X0320346Y0144695D01*
X0320503Y0144683D01*
X0320661Y0144667D01*
X0320818Y0144647D01*
X0320974Y0144623D01*
X0321130Y0144595D01*
X0321285Y0144564D01*
X0321440Y0144528D01*
X0321593Y0144489D01*
X0321745Y0144446D01*
X0321896Y0144399D01*
X0322046Y0144348D01*
X0322195Y0144293D01*
X0322342Y0144235D01*
X0322488Y0144173D01*
X0322632Y0144108D01*
X0322774Y0144038D01*
X0322915Y0143966D01*
X0323054Y0143889D01*
X0323190Y0143810D01*
X0323325Y0143726D01*
X0323458Y0143640D01*
X0323588Y0143550D01*
X0323716Y0143457D01*
X0323842Y0143361D01*
X0323965Y0143261D01*
X0324086Y0143159D01*
X0324204Y0143054D01*
X0324319Y0142945D01*
X0324432Y0142834D01*
X0324542Y0142720D01*
X0324649Y0142603D01*
X0324753Y0142484D01*
X0324854Y0142362D01*
X0324951Y0142237D01*
X0325046Y0142110D01*
X0325137Y0141981D01*
X0325226Y0141850D01*
X0325310Y0141716D01*
X0325392Y0141580D01*
X0325470Y0141443D01*
X0325544Y0141303D01*
X0325615Y0141161D01*
X0325683Y0141018D01*
X0325747Y0140873D01*
X0325807Y0140727D01*
X0325863Y0140579D01*
X0325916Y0140430D01*
X0325965Y0140279D01*
X0326010Y0140127D01*
X0326051Y0139974D01*
X0326089Y0139821D01*
X0326122Y0139666D01*
X0326152Y0139510D01*
X0326178Y0139354D01*
X0326199Y0139197D01*
X0326217Y0139040D01*
X0326231Y0138882D01*
X0326241Y0138724D01*
X0326247Y0138566D01*
X0326249Y0138408D01*
X0326247Y0138250D01*
X0326241Y0138092D01*
X0326231Y0137934D01*
X0326217Y0137776D01*
X0326199Y0137619D01*
X0326178Y0137462D01*
X0326152Y0137306D01*
X0326122Y0137150D01*
X0326089Y0136995D01*
X0326051Y0136842D01*
X0326010Y0136689D01*
X0325965Y0136537D01*
X0325916Y0136386D01*
X0325863Y0136237D01*
X0325807Y0136089D01*
X0325747Y0135943D01*
X0325683Y0135798D01*
X0325615Y0135655D01*
X0325544Y0135513D01*
X0325470Y0135373D01*
X0325392Y0135236D01*
X0325310Y0135100D01*
X0325226Y0134966D01*
X0325137Y0134835D01*
X0325046Y0134706D01*
X0324951Y0134579D01*
X0324854Y0134454D01*
X0324753Y0134332D01*
X0324649Y0134213D01*
X0324542Y0134096D01*
X0324432Y0133982D01*
X0324319Y0133871D01*
X0324204Y0133762D01*
X0324086Y0133657D01*
X0323965Y0133555D01*
X0323842Y0133455D01*
X0323716Y0133359D01*
X0323588Y0133266D01*
X0323458Y0133176D01*
X0323325Y0133090D01*
X0323190Y0133006D01*
X0323054Y0132927D01*
X0322915Y0132850D01*
X0322774Y0132778D01*
X0322632Y0132708D01*
X0322488Y0132643D01*
X0322342Y0132581D01*
X0322195Y0132523D01*
X0322046Y0132468D01*
X0321896Y0132417D01*
X0321745Y0132370D01*
X0321593Y0132327D01*
X0321440Y0132288D01*
X0321285Y0132252D01*
X0321130Y0132221D01*
X0320974Y0132193D01*
X0320818Y0132169D01*
X0320661Y0132149D01*
X0320503Y0132133D01*
X0320346Y0132121D01*
X0320187Y0132113D01*
X0320029Y0132109D01*
X0319871Y0132109D01*
X0319713Y0132113D01*
X0319554Y0132121D01*
X0319397Y0132133D01*
X0319239Y0132149D01*
X0319082Y0132169D01*
X0318926Y0132193D01*
X0318770Y0132221D01*
X0318615Y0132252D01*
X0318460Y0132288D01*
X0318307Y0132327D01*
X0318155Y0132370D01*
X0318004Y0132417D01*
X0317854Y0132468D01*
X0317705Y0132523D01*
X0317558Y0132581D01*
X0317412Y0132643D01*
X0317268Y0132708D01*
X0317126Y0132778D01*
X0316985Y0132850D01*
X0316846Y0132927D01*
X0316710Y0133006D01*
X0316575Y0133090D01*
X0316442Y0133176D01*
X0316312Y0133266D01*
X0316184Y0133359D01*
X0316058Y0133455D01*
X0315935Y0133555D01*
X0315814Y0133657D01*
X0315696Y0133762D01*
X0315581Y0133871D01*
X0315468Y0133982D01*
X0315358Y0134096D01*
X0315251Y0134213D01*
X0315147Y0134332D01*
X0315046Y0134454D01*
X0314949Y0134579D01*
X0314854Y0134706D01*
X0314763Y0134835D01*
X0314674Y0134966D01*
X0314590Y0135100D01*
X0314508Y0135236D01*
X0314430Y0135373D01*
X0314356Y0135513D01*
X0314285Y0135655D01*
X0314217Y0135798D01*
X0314153Y0135943D01*
X0314093Y0136089D01*
X0314037Y0136237D01*
X0313984Y0136386D01*
X0313935Y0136537D01*
X0313890Y0136689D01*
X0313849Y0136842D01*
X0313811Y0136995D01*
X0313778Y0137150D01*
X0313748Y0137306D01*
X0313722Y0137462D01*
X0313701Y0137619D01*
X0313683Y0137776D01*
X0313669Y0137934D01*
X0313659Y0138092D01*
X0313653Y0138250D01*
X0313651Y0138408D01*
X0164044Y0181715D02*
X0164046Y0181873D01*
X0164052Y0182031D01*
X0164062Y0182189D01*
X0164076Y0182347D01*
X0164094Y0182504D01*
X0164115Y0182661D01*
X0164141Y0182817D01*
X0164171Y0182973D01*
X0164204Y0183128D01*
X0164242Y0183281D01*
X0164283Y0183434D01*
X0164328Y0183586D01*
X0164377Y0183737D01*
X0164430Y0183886D01*
X0164486Y0184034D01*
X0164546Y0184180D01*
X0164610Y0184325D01*
X0164678Y0184468D01*
X0164749Y0184610D01*
X0164823Y0184750D01*
X0164901Y0184887D01*
X0164983Y0185023D01*
X0165067Y0185157D01*
X0165156Y0185288D01*
X0165247Y0185417D01*
X0165342Y0185544D01*
X0165439Y0185669D01*
X0165540Y0185791D01*
X0165644Y0185910D01*
X0165751Y0186027D01*
X0165861Y0186141D01*
X0165974Y0186252D01*
X0166089Y0186361D01*
X0166207Y0186466D01*
X0166328Y0186568D01*
X0166451Y0186668D01*
X0166577Y0186764D01*
X0166705Y0186857D01*
X0166835Y0186947D01*
X0166968Y0187033D01*
X0167103Y0187117D01*
X0167239Y0187196D01*
X0167378Y0187273D01*
X0167519Y0187345D01*
X0167661Y0187415D01*
X0167805Y0187480D01*
X0167951Y0187542D01*
X0168098Y0187600D01*
X0168247Y0187655D01*
X0168397Y0187706D01*
X0168548Y0187753D01*
X0168700Y0187796D01*
X0168853Y0187835D01*
X0169008Y0187871D01*
X0169163Y0187902D01*
X0169319Y0187930D01*
X0169475Y0187954D01*
X0169632Y0187974D01*
X0169790Y0187990D01*
X0169947Y0188002D01*
X0170106Y0188010D01*
X0170264Y0188014D01*
X0170422Y0188014D01*
X0170580Y0188010D01*
X0170739Y0188002D01*
X0170896Y0187990D01*
X0171054Y0187974D01*
X0171211Y0187954D01*
X0171367Y0187930D01*
X0171523Y0187902D01*
X0171678Y0187871D01*
X0171833Y0187835D01*
X0171986Y0187796D01*
X0172138Y0187753D01*
X0172289Y0187706D01*
X0172439Y0187655D01*
X0172588Y0187600D01*
X0172735Y0187542D01*
X0172881Y0187480D01*
X0173025Y0187415D01*
X0173167Y0187345D01*
X0173308Y0187273D01*
X0173447Y0187196D01*
X0173583Y0187117D01*
X0173718Y0187033D01*
X0173851Y0186947D01*
X0173981Y0186857D01*
X0174109Y0186764D01*
X0174235Y0186668D01*
X0174358Y0186568D01*
X0174479Y0186466D01*
X0174597Y0186361D01*
X0174712Y0186252D01*
X0174825Y0186141D01*
X0174935Y0186027D01*
X0175042Y0185910D01*
X0175146Y0185791D01*
X0175247Y0185669D01*
X0175344Y0185544D01*
X0175439Y0185417D01*
X0175530Y0185288D01*
X0175619Y0185157D01*
X0175703Y0185023D01*
X0175785Y0184887D01*
X0175863Y0184750D01*
X0175937Y0184610D01*
X0176008Y0184468D01*
X0176076Y0184325D01*
X0176140Y0184180D01*
X0176200Y0184034D01*
X0176256Y0183886D01*
X0176309Y0183737D01*
X0176358Y0183586D01*
X0176403Y0183434D01*
X0176444Y0183281D01*
X0176482Y0183128D01*
X0176515Y0182973D01*
X0176545Y0182817D01*
X0176571Y0182661D01*
X0176592Y0182504D01*
X0176610Y0182347D01*
X0176624Y0182189D01*
X0176634Y0182031D01*
X0176640Y0181873D01*
X0176642Y0181715D01*
X0176640Y0181557D01*
X0176634Y0181399D01*
X0176624Y0181241D01*
X0176610Y0181083D01*
X0176592Y0180926D01*
X0176571Y0180769D01*
X0176545Y0180613D01*
X0176515Y0180457D01*
X0176482Y0180302D01*
X0176444Y0180149D01*
X0176403Y0179996D01*
X0176358Y0179844D01*
X0176309Y0179693D01*
X0176256Y0179544D01*
X0176200Y0179396D01*
X0176140Y0179250D01*
X0176076Y0179105D01*
X0176008Y0178962D01*
X0175937Y0178820D01*
X0175863Y0178680D01*
X0175785Y0178543D01*
X0175703Y0178407D01*
X0175619Y0178273D01*
X0175530Y0178142D01*
X0175439Y0178013D01*
X0175344Y0177886D01*
X0175247Y0177761D01*
X0175146Y0177639D01*
X0175042Y0177520D01*
X0174935Y0177403D01*
X0174825Y0177289D01*
X0174712Y0177178D01*
X0174597Y0177069D01*
X0174479Y0176964D01*
X0174358Y0176862D01*
X0174235Y0176762D01*
X0174109Y0176666D01*
X0173981Y0176573D01*
X0173851Y0176483D01*
X0173718Y0176397D01*
X0173583Y0176313D01*
X0173447Y0176234D01*
X0173308Y0176157D01*
X0173167Y0176085D01*
X0173025Y0176015D01*
X0172881Y0175950D01*
X0172735Y0175888D01*
X0172588Y0175830D01*
X0172439Y0175775D01*
X0172289Y0175724D01*
X0172138Y0175677D01*
X0171986Y0175634D01*
X0171833Y0175595D01*
X0171678Y0175559D01*
X0171523Y0175528D01*
X0171367Y0175500D01*
X0171211Y0175476D01*
X0171054Y0175456D01*
X0170896Y0175440D01*
X0170739Y0175428D01*
X0170580Y0175420D01*
X0170422Y0175416D01*
X0170264Y0175416D01*
X0170106Y0175420D01*
X0169947Y0175428D01*
X0169790Y0175440D01*
X0169632Y0175456D01*
X0169475Y0175476D01*
X0169319Y0175500D01*
X0169163Y0175528D01*
X0169008Y0175559D01*
X0168853Y0175595D01*
X0168700Y0175634D01*
X0168548Y0175677D01*
X0168397Y0175724D01*
X0168247Y0175775D01*
X0168098Y0175830D01*
X0167951Y0175888D01*
X0167805Y0175950D01*
X0167661Y0176015D01*
X0167519Y0176085D01*
X0167378Y0176157D01*
X0167239Y0176234D01*
X0167103Y0176313D01*
X0166968Y0176397D01*
X0166835Y0176483D01*
X0166705Y0176573D01*
X0166577Y0176666D01*
X0166451Y0176762D01*
X0166328Y0176862D01*
X0166207Y0176964D01*
X0166089Y0177069D01*
X0165974Y0177178D01*
X0165861Y0177289D01*
X0165751Y0177403D01*
X0165644Y0177520D01*
X0165540Y0177639D01*
X0165439Y0177761D01*
X0165342Y0177886D01*
X0165247Y0178013D01*
X0165156Y0178142D01*
X0165067Y0178273D01*
X0164983Y0178407D01*
X0164901Y0178543D01*
X0164823Y0178680D01*
X0164749Y0178820D01*
X0164678Y0178962D01*
X0164610Y0179105D01*
X0164546Y0179250D01*
X0164486Y0179396D01*
X0164430Y0179544D01*
X0164377Y0179693D01*
X0164328Y0179844D01*
X0164283Y0179996D01*
X0164242Y0180149D01*
X0164204Y0180302D01*
X0164171Y0180457D01*
X0164141Y0180613D01*
X0164115Y0180769D01*
X0164094Y0180926D01*
X0164076Y0181083D01*
X0164062Y0181241D01*
X0164052Y0181399D01*
X0164046Y0181557D01*
X0164044Y0181715D01*
D11*
X0117866Y0103774D02*
X0116932Y0102840D01*
X0116932Y0100972D01*
X0116038Y0100972D02*
X0115104Y0100972D01*
X0115571Y0100972D02*
X0115571Y0103774D01*
X0116038Y0103774D01*
X0116932Y0102373D02*
X0118800Y0102373D01*
X0118800Y0102840D02*
X0117866Y0103774D01*
X0118800Y0102840D02*
X0118800Y0100972D01*
X0114196Y0102840D02*
X0113262Y0100972D01*
X0112328Y0102840D01*
X0110967Y0102840D02*
X0110033Y0102840D01*
X0109565Y0102373D01*
X0109565Y0100972D01*
X0110967Y0100972D01*
X0111434Y0101439D01*
X0110967Y0101906D01*
X0109565Y0101906D01*
X0108671Y0101906D02*
X0107737Y0102840D01*
X0107270Y0102840D01*
X0106369Y0102373D02*
X0106369Y0101439D01*
X0105902Y0100972D01*
X0104968Y0100972D01*
X0104501Y0101439D01*
X0104501Y0102373D01*
X0104968Y0102840D01*
X0105902Y0102840D01*
X0106369Y0102373D01*
X0108671Y0102840D02*
X0108671Y0100972D01*
X0100845Y0100972D02*
X0100845Y0103774D01*
X0098976Y0103774D01*
X0097615Y0102840D02*
X0098082Y0102373D01*
X0098082Y0101439D01*
X0097615Y0100972D01*
X0096681Y0100972D01*
X0096214Y0101906D02*
X0098082Y0101906D01*
X0097615Y0102840D02*
X0096681Y0102840D01*
X0096214Y0102373D01*
X0096214Y0101906D01*
X0095320Y0101906D02*
X0094386Y0102840D01*
X0093919Y0102840D01*
X0093018Y0102840D02*
X0093018Y0100972D01*
X0093018Y0101906D02*
X0092084Y0102840D01*
X0091617Y0102840D01*
X0090249Y0102840D02*
X0089315Y0102840D01*
X0088848Y0102373D01*
X0088848Y0100972D01*
X0090249Y0100972D01*
X0090716Y0101439D01*
X0090249Y0101906D01*
X0088848Y0101906D01*
X0087954Y0102840D02*
X0086553Y0102840D01*
X0086085Y0102373D01*
X0086085Y0100972D01*
X0087954Y0100972D02*
X0087954Y0102840D01*
X0095320Y0102840D02*
X0095320Y0100972D01*
X0099911Y0102373D02*
X0100845Y0102373D01*
D12*
X0028162Y0060353D02*
X0028162Y0057991D01*
X0023438Y0057991D02*
X0023438Y0060353D01*
X0022781Y0042675D02*
X0022781Y0042107D01*
X0023916Y0040973D01*
X0023916Y0039272D01*
X0023916Y0040973D02*
X0025050Y0042107D01*
X0025050Y0042675D01*
X0032781Y0036675D02*
X0035050Y0033272D01*
X0032781Y0033272D02*
X0035050Y0036675D01*
X0191921Y0094806D02*
X0191921Y0095940D01*
X0193055Y0097075D01*
X0194470Y0097075D02*
X0196739Y0097075D01*
X0196739Y0095373D01*
X0195604Y0095940D01*
X0195037Y0095940D01*
X0194470Y0095373D01*
X0194470Y0094239D01*
X0195037Y0093672D01*
X0196171Y0093672D01*
X0196739Y0094239D01*
X0198153Y0093672D02*
X0200422Y0093672D01*
X0198153Y0095940D01*
X0198153Y0096507D01*
X0198720Y0097075D01*
X0199855Y0097075D01*
X0200422Y0096507D01*
X0201743Y0095940D02*
X0202310Y0095940D01*
X0202310Y0095373D01*
X0201743Y0095373D01*
X0201743Y0095940D01*
X0201743Y0094239D02*
X0202310Y0094239D01*
X0202310Y0093672D01*
X0201743Y0093672D01*
X0201743Y0094239D01*
X0201743Y0093672D02*
X0202877Y0092537D01*
X0206560Y0094239D02*
X0204292Y0096507D01*
X0204292Y0097075D01*
X0206560Y0097075D01*
X0207975Y0096507D02*
X0208542Y0097075D01*
X0209676Y0097075D01*
X0210243Y0096507D01*
X0211565Y0097075D02*
X0212699Y0095940D01*
X0212699Y0094806D01*
X0211565Y0093672D01*
X0210243Y0094239D02*
X0209676Y0093672D01*
X0208542Y0093672D01*
X0207975Y0094239D01*
X0207975Y0094806D01*
X0208542Y0095373D01*
X0209109Y0095373D01*
X0208542Y0095373D02*
X0207975Y0095940D01*
X0207975Y0096507D01*
X0206560Y0094239D02*
X0206560Y0093672D01*
X0207055Y0083075D02*
X0205921Y0081940D01*
X0205921Y0080806D01*
X0207055Y0079672D01*
X0209037Y0079672D02*
X0209037Y0083075D01*
X0210739Y0081373D01*
X0208470Y0081373D01*
X0212060Y0081373D02*
X0212627Y0081373D01*
X0212627Y0081940D01*
X0212060Y0081940D01*
X0212060Y0081373D01*
X0212060Y0080239D02*
X0212627Y0080239D01*
X0212627Y0079672D01*
X0212060Y0079672D01*
X0212060Y0080239D01*
X0212060Y0079672D02*
X0213194Y0078537D01*
X0214609Y0080239D02*
X0215176Y0079672D01*
X0216310Y0079672D01*
X0216877Y0080239D01*
X0214609Y0082507D01*
X0214609Y0080239D01*
X0216877Y0080239D02*
X0216877Y0082507D01*
X0216310Y0083075D01*
X0215176Y0083075D01*
X0214609Y0082507D01*
X0218292Y0081373D02*
X0220560Y0081373D01*
X0218859Y0083075D01*
X0218859Y0079672D01*
X0221881Y0079672D02*
X0223016Y0080806D01*
X0223016Y0081940D01*
X0221881Y0083075D01*
X0193055Y0093672D02*
X0191921Y0094806D01*
X0308921Y0148806D02*
X0308921Y0149940D01*
X0310055Y0151075D01*
X0311470Y0150507D02*
X0311470Y0149940D01*
X0312037Y0149373D01*
X0313171Y0149373D01*
X0313739Y0149940D01*
X0313739Y0150507D01*
X0313171Y0151075D01*
X0312037Y0151075D01*
X0311470Y0150507D01*
X0312037Y0149373D02*
X0311470Y0148806D01*
X0311470Y0148239D01*
X0312037Y0147672D01*
X0313171Y0147672D01*
X0313739Y0148239D01*
X0313739Y0148806D01*
X0313171Y0149373D01*
X0315153Y0149940D02*
X0315153Y0150507D01*
X0315720Y0151075D01*
X0316855Y0151075D01*
X0317422Y0150507D01*
X0318743Y0149940D02*
X0318743Y0149373D01*
X0319310Y0149373D01*
X0319310Y0149940D01*
X0318743Y0149940D01*
X0318743Y0148239D02*
X0319310Y0148239D01*
X0319310Y0147672D01*
X0318743Y0147672D01*
X0318743Y0148239D01*
X0318743Y0147672D02*
X0319877Y0146537D01*
X0317422Y0147672D02*
X0315153Y0149940D01*
X0315153Y0147672D02*
X0317422Y0147672D01*
X0321292Y0150507D02*
X0323560Y0148239D01*
X0323560Y0147672D01*
X0324975Y0150507D02*
X0327243Y0148239D01*
X0327243Y0147672D01*
X0328565Y0147672D02*
X0329699Y0148806D01*
X0329699Y0149940D01*
X0328565Y0151075D01*
X0327243Y0151075D02*
X0324975Y0151075D01*
X0324975Y0150507D01*
X0323560Y0151075D02*
X0321292Y0151075D01*
X0321292Y0150507D01*
X0310055Y0147672D02*
X0308921Y0148806D01*
X0180699Y0191806D02*
X0180699Y0192940D01*
X0179565Y0194075D01*
X0178243Y0193507D02*
X0177676Y0194075D01*
X0176542Y0194075D01*
X0175975Y0193507D01*
X0175975Y0192940D01*
X0176542Y0192373D01*
X0175975Y0191806D01*
X0175975Y0191239D01*
X0176542Y0190672D01*
X0177676Y0190672D01*
X0178243Y0191239D01*
X0179565Y0190672D02*
X0180699Y0191806D01*
X0177109Y0192373D02*
X0176542Y0192373D01*
X0174560Y0192940D02*
X0174560Y0193507D01*
X0173993Y0194075D01*
X0172859Y0194075D01*
X0172292Y0193507D01*
X0172292Y0191239D01*
X0172859Y0190672D01*
X0173993Y0190672D01*
X0174560Y0191239D01*
X0173993Y0192373D02*
X0172292Y0192373D01*
X0173993Y0192373D02*
X0174560Y0192940D01*
X0170310Y0192940D02*
X0170310Y0192373D01*
X0169743Y0192373D01*
X0169743Y0192940D01*
X0170310Y0192940D01*
X0170310Y0191239D02*
X0170310Y0190672D01*
X0169743Y0190672D01*
X0169743Y0191239D01*
X0170310Y0191239D01*
X0169743Y0190672D02*
X0170877Y0189537D01*
X0168422Y0191239D02*
X0167855Y0190672D01*
X0166720Y0190672D01*
X0166153Y0191239D01*
X0166153Y0191806D01*
X0166720Y0192373D01*
X0167287Y0192373D01*
X0166720Y0192373D02*
X0166153Y0192940D01*
X0166153Y0193507D01*
X0166720Y0194075D01*
X0167855Y0194075D01*
X0168422Y0193507D01*
X0164739Y0193507D02*
X0164739Y0192940D01*
X0164171Y0192373D01*
X0162470Y0192373D01*
X0162470Y0191239D02*
X0162470Y0193507D01*
X0163037Y0194075D01*
X0164171Y0194075D01*
X0164739Y0193507D01*
X0164739Y0191239D02*
X0164171Y0190672D01*
X0163037Y0190672D01*
X0162470Y0191239D01*
X0161055Y0190672D02*
X0159921Y0191806D01*
X0159921Y0192940D01*
X0161055Y0194075D01*
X0311921Y0051940D02*
X0313055Y0053075D01*
X0314470Y0052507D02*
X0314470Y0051940D01*
X0315037Y0051373D01*
X0314470Y0050806D01*
X0314470Y0050239D01*
X0315037Y0049672D01*
X0316171Y0049672D01*
X0316739Y0050239D01*
X0318060Y0050239D02*
X0318627Y0050239D01*
X0318627Y0049672D01*
X0318060Y0049672D01*
X0318060Y0050239D01*
X0318060Y0049672D02*
X0319194Y0048537D01*
X0318627Y0051373D02*
X0318060Y0051373D01*
X0318060Y0051940D01*
X0318627Y0051940D01*
X0318627Y0051373D01*
X0316739Y0052507D02*
X0316171Y0053075D01*
X0315037Y0053075D01*
X0314470Y0052507D01*
X0315037Y0051373D02*
X0315604Y0051373D01*
X0313055Y0049672D02*
X0311921Y0050806D01*
X0311921Y0051940D01*
X0320609Y0052507D02*
X0322877Y0050239D01*
X0322877Y0049672D01*
X0324292Y0052507D02*
X0326560Y0050239D01*
X0326560Y0049672D01*
X0327881Y0049672D02*
X0329016Y0050806D01*
X0329016Y0051940D01*
X0327881Y0053075D01*
X0326560Y0053075D02*
X0324292Y0053075D01*
X0324292Y0052507D01*
X0322877Y0053075D02*
X0320609Y0053075D01*
X0320609Y0052507D01*
D13*
X0031350Y0031972D02*
X0030350Y0030972D01*
X0031350Y0031972D02*
X0030350Y0032972D01*
X0031350Y0031972D02*
X0025350Y0031972D01*
X0025350Y0037972D01*
X0026350Y0036972D01*
X0025350Y0037972D02*
X0024350Y0036972D01*
D14*
X0049800Y0070172D03*
X0068800Y0084172D03*
X0068800Y0089172D03*
D15*
X0106367Y0112817D02*
X0106367Y0117739D01*
X0106367Y0112817D02*
X0125068Y0112817D01*
X0106367Y0135455D02*
X0106367Y0140376D01*
X0125068Y0140376D01*
X0127036Y0126597D02*
X0127047Y0127467D01*
X0127079Y0128336D01*
X0127132Y0129204D01*
X0127207Y0130070D01*
X0127302Y0130934D01*
X0127420Y0131796D01*
X0127558Y0132655D01*
X0127717Y0133510D01*
X0127897Y0134360D01*
X0128098Y0135207D01*
X0128320Y0136047D01*
X0128562Y0136883D01*
X0128824Y0137712D01*
X0129107Y0138534D01*
X0129410Y0139349D01*
X0129733Y0140157D01*
X0130076Y0140956D01*
X0130438Y0141747D01*
X0130819Y0142528D01*
X0131220Y0143300D01*
X0131639Y0144062D01*
X0132077Y0144813D01*
X0132533Y0145554D01*
X0133008Y0146283D01*
X0133500Y0147000D01*
X0134009Y0147704D01*
X0134536Y0148397D01*
X0135079Y0149075D01*
X0135639Y0149741D01*
X0136215Y0150392D01*
X0136807Y0151029D01*
X0137414Y0151652D01*
X0138037Y0152259D01*
X0138674Y0152851D01*
X0139325Y0153427D01*
X0139991Y0153987D01*
X0140669Y0154530D01*
X0141362Y0155057D01*
X0142066Y0155566D01*
X0142783Y0156058D01*
X0143512Y0156533D01*
X0144253Y0156989D01*
X0145004Y0157427D01*
X0145766Y0157846D01*
X0146538Y0158247D01*
X0147319Y0158628D01*
X0148110Y0158990D01*
X0148909Y0159333D01*
X0149717Y0159656D01*
X0150532Y0159959D01*
X0151354Y0160242D01*
X0152183Y0160504D01*
X0153019Y0160746D01*
X0153859Y0160968D01*
X0154706Y0161169D01*
X0155556Y0161349D01*
X0156411Y0161508D01*
X0157270Y0161646D01*
X0158132Y0161764D01*
X0158996Y0161859D01*
X0159862Y0161934D01*
X0160730Y0161987D01*
X0161599Y0162019D01*
X0162469Y0162030D01*
X0163339Y0162019D01*
X0164208Y0161987D01*
X0165076Y0161934D01*
X0165942Y0161859D01*
X0166806Y0161764D01*
X0167668Y0161646D01*
X0168527Y0161508D01*
X0169382Y0161349D01*
X0170232Y0161169D01*
X0171079Y0160968D01*
X0171919Y0160746D01*
X0172755Y0160504D01*
X0173584Y0160242D01*
X0174406Y0159959D01*
X0175221Y0159656D01*
X0176029Y0159333D01*
X0176828Y0158990D01*
X0177619Y0158628D01*
X0178400Y0158247D01*
X0179172Y0157846D01*
X0179934Y0157427D01*
X0180685Y0156989D01*
X0181426Y0156533D01*
X0182155Y0156058D01*
X0182872Y0155566D01*
X0183576Y0155057D01*
X0184269Y0154530D01*
X0184947Y0153987D01*
X0185613Y0153427D01*
X0186264Y0152851D01*
X0186901Y0152259D01*
X0187524Y0151652D01*
X0188131Y0151029D01*
X0188723Y0150392D01*
X0189299Y0149741D01*
X0189859Y0149075D01*
X0190402Y0148397D01*
X0190929Y0147704D01*
X0191438Y0147000D01*
X0191930Y0146283D01*
X0192405Y0145554D01*
X0192861Y0144813D01*
X0193299Y0144062D01*
X0193718Y0143300D01*
X0194119Y0142528D01*
X0194500Y0141747D01*
X0194862Y0140956D01*
X0195205Y0140157D01*
X0195528Y0139349D01*
X0195831Y0138534D01*
X0196114Y0137712D01*
X0196376Y0136883D01*
X0196618Y0136047D01*
X0196840Y0135207D01*
X0197041Y0134360D01*
X0197221Y0133510D01*
X0197380Y0132655D01*
X0197518Y0131796D01*
X0197636Y0130934D01*
X0197731Y0130070D01*
X0197806Y0129204D01*
X0197859Y0128336D01*
X0197891Y0127467D01*
X0197902Y0126597D01*
X0197891Y0125727D01*
X0197859Y0124858D01*
X0197806Y0123990D01*
X0197731Y0123124D01*
X0197636Y0122260D01*
X0197518Y0121398D01*
X0197380Y0120539D01*
X0197221Y0119684D01*
X0197041Y0118834D01*
X0196840Y0117987D01*
X0196618Y0117147D01*
X0196376Y0116311D01*
X0196114Y0115482D01*
X0195831Y0114660D01*
X0195528Y0113845D01*
X0195205Y0113037D01*
X0194862Y0112238D01*
X0194500Y0111447D01*
X0194119Y0110666D01*
X0193718Y0109894D01*
X0193299Y0109132D01*
X0192861Y0108381D01*
X0192405Y0107640D01*
X0191930Y0106911D01*
X0191438Y0106194D01*
X0190929Y0105490D01*
X0190402Y0104797D01*
X0189859Y0104119D01*
X0189299Y0103453D01*
X0188723Y0102802D01*
X0188131Y0102165D01*
X0187524Y0101542D01*
X0186901Y0100935D01*
X0186264Y0100343D01*
X0185613Y0099767D01*
X0184947Y0099207D01*
X0184269Y0098664D01*
X0183576Y0098137D01*
X0182872Y0097628D01*
X0182155Y0097136D01*
X0181426Y0096661D01*
X0180685Y0096205D01*
X0179934Y0095767D01*
X0179172Y0095348D01*
X0178400Y0094947D01*
X0177619Y0094566D01*
X0176828Y0094204D01*
X0176029Y0093861D01*
X0175221Y0093538D01*
X0174406Y0093235D01*
X0173584Y0092952D01*
X0172755Y0092690D01*
X0171919Y0092448D01*
X0171079Y0092226D01*
X0170232Y0092025D01*
X0169382Y0091845D01*
X0168527Y0091686D01*
X0167668Y0091548D01*
X0166806Y0091430D01*
X0165942Y0091335D01*
X0165076Y0091260D01*
X0164208Y0091207D01*
X0163339Y0091175D01*
X0162469Y0091164D01*
X0161599Y0091175D01*
X0160730Y0091207D01*
X0159862Y0091260D01*
X0158996Y0091335D01*
X0158132Y0091430D01*
X0157270Y0091548D01*
X0156411Y0091686D01*
X0155556Y0091845D01*
X0154706Y0092025D01*
X0153859Y0092226D01*
X0153019Y0092448D01*
X0152183Y0092690D01*
X0151354Y0092952D01*
X0150532Y0093235D01*
X0149717Y0093538D01*
X0148909Y0093861D01*
X0148110Y0094204D01*
X0147319Y0094566D01*
X0146538Y0094947D01*
X0145766Y0095348D01*
X0145004Y0095767D01*
X0144253Y0096205D01*
X0143512Y0096661D01*
X0142783Y0097136D01*
X0142066Y0097628D01*
X0141362Y0098137D01*
X0140669Y0098664D01*
X0139991Y0099207D01*
X0139325Y0099767D01*
X0138674Y0100343D01*
X0138037Y0100935D01*
X0137414Y0101542D01*
X0136807Y0102165D01*
X0136215Y0102802D01*
X0135639Y0103453D01*
X0135079Y0104119D01*
X0134536Y0104797D01*
X0134009Y0105490D01*
X0133500Y0106194D01*
X0133008Y0106911D01*
X0132533Y0107640D01*
X0132077Y0108381D01*
X0131639Y0109132D01*
X0131220Y0109894D01*
X0130819Y0110666D01*
X0130438Y0111447D01*
X0130076Y0112238D01*
X0129733Y0113037D01*
X0129410Y0113845D01*
X0129107Y0114660D01*
X0128824Y0115482D01*
X0128562Y0116311D01*
X0128320Y0117147D01*
X0128098Y0117987D01*
X0127897Y0118834D01*
X0127717Y0119684D01*
X0127558Y0120539D01*
X0127420Y0121398D01*
X0127302Y0122260D01*
X0127207Y0123124D01*
X0127132Y0123990D01*
X0127079Y0124858D01*
X0127047Y0125727D01*
X0127036Y0126597D01*
X0123099Y0126597D02*
X0123111Y0127563D01*
X0123146Y0128529D01*
X0123206Y0129493D01*
X0123289Y0130456D01*
X0123395Y0131416D01*
X0123525Y0132374D01*
X0123679Y0133328D01*
X0123855Y0134278D01*
X0124056Y0135223D01*
X0124279Y0136163D01*
X0124525Y0137097D01*
X0124794Y0138026D01*
X0125086Y0138947D01*
X0125400Y0139860D01*
X0125737Y0140766D01*
X0126096Y0141663D01*
X0126477Y0142551D01*
X0126879Y0143430D01*
X0127303Y0144298D01*
X0127748Y0145156D01*
X0128214Y0146002D01*
X0128700Y0146837D01*
X0129207Y0147660D01*
X0129734Y0148470D01*
X0130281Y0149267D01*
X0130847Y0150050D01*
X0131432Y0150819D01*
X0132036Y0151573D01*
X0132658Y0152312D01*
X0133298Y0153036D01*
X0133955Y0153744D01*
X0134630Y0154436D01*
X0135322Y0155111D01*
X0136030Y0155768D01*
X0136754Y0156408D01*
X0137493Y0157030D01*
X0138247Y0157634D01*
X0139016Y0158219D01*
X0139799Y0158785D01*
X0140596Y0159332D01*
X0141406Y0159859D01*
X0142229Y0160366D01*
X0143064Y0160852D01*
X0143910Y0161318D01*
X0144768Y0161763D01*
X0145636Y0162187D01*
X0146515Y0162589D01*
X0147403Y0162970D01*
X0148300Y0163329D01*
X0149206Y0163666D01*
X0150119Y0163980D01*
X0151040Y0164272D01*
X0151969Y0164541D01*
X0152903Y0164787D01*
X0153843Y0165010D01*
X0154788Y0165211D01*
X0155738Y0165387D01*
X0156692Y0165541D01*
X0157650Y0165671D01*
X0158610Y0165777D01*
X0159573Y0165860D01*
X0160537Y0165920D01*
X0161503Y0165955D01*
X0162469Y0165967D01*
X0163435Y0165955D01*
X0164401Y0165920D01*
X0165365Y0165860D01*
X0166328Y0165777D01*
X0167288Y0165671D01*
X0168246Y0165541D01*
X0169200Y0165387D01*
X0170150Y0165211D01*
X0171095Y0165010D01*
X0172035Y0164787D01*
X0172969Y0164541D01*
X0173898Y0164272D01*
X0174819Y0163980D01*
X0175732Y0163666D01*
X0176638Y0163329D01*
X0177535Y0162970D01*
X0178423Y0162589D01*
X0179302Y0162187D01*
X0180170Y0161763D01*
X0181028Y0161318D01*
X0181874Y0160852D01*
X0182709Y0160366D01*
X0183532Y0159859D01*
X0184342Y0159332D01*
X0185139Y0158785D01*
X0185922Y0158219D01*
X0186691Y0157634D01*
X0187445Y0157030D01*
X0188184Y0156408D01*
X0188908Y0155768D01*
X0189616Y0155111D01*
X0190308Y0154436D01*
X0190983Y0153744D01*
X0191640Y0153036D01*
X0192280Y0152312D01*
X0192902Y0151573D01*
X0193506Y0150819D01*
X0194091Y0150050D01*
X0194657Y0149267D01*
X0195204Y0148470D01*
X0195731Y0147660D01*
X0196238Y0146837D01*
X0196724Y0146002D01*
X0197190Y0145156D01*
X0197635Y0144298D01*
X0198059Y0143430D01*
X0198461Y0142551D01*
X0198842Y0141663D01*
X0199201Y0140766D01*
X0199538Y0139860D01*
X0199852Y0138947D01*
X0200144Y0138026D01*
X0200413Y0137097D01*
X0200659Y0136163D01*
X0200882Y0135223D01*
X0201083Y0134278D01*
X0201259Y0133328D01*
X0201413Y0132374D01*
X0201543Y0131416D01*
X0201649Y0130456D01*
X0201732Y0129493D01*
X0201792Y0128529D01*
X0201827Y0127563D01*
X0201839Y0126597D01*
X0201827Y0125631D01*
X0201792Y0124665D01*
X0201732Y0123701D01*
X0201649Y0122738D01*
X0201543Y0121778D01*
X0201413Y0120820D01*
X0201259Y0119866D01*
X0201083Y0118916D01*
X0200882Y0117971D01*
X0200659Y0117031D01*
X0200413Y0116097D01*
X0200144Y0115168D01*
X0199852Y0114247D01*
X0199538Y0113334D01*
X0199201Y0112428D01*
X0198842Y0111531D01*
X0198461Y0110643D01*
X0198059Y0109764D01*
X0197635Y0108896D01*
X0197190Y0108038D01*
X0196724Y0107192D01*
X0196238Y0106357D01*
X0195731Y0105534D01*
X0195204Y0104724D01*
X0194657Y0103927D01*
X0194091Y0103144D01*
X0193506Y0102375D01*
X0192902Y0101621D01*
X0192280Y0100882D01*
X0191640Y0100158D01*
X0190983Y0099450D01*
X0190308Y0098758D01*
X0189616Y0098083D01*
X0188908Y0097426D01*
X0188184Y0096786D01*
X0187445Y0096164D01*
X0186691Y0095560D01*
X0185922Y0094975D01*
X0185139Y0094409D01*
X0184342Y0093862D01*
X0183532Y0093335D01*
X0182709Y0092828D01*
X0181874Y0092342D01*
X0181028Y0091876D01*
X0180170Y0091431D01*
X0179302Y0091007D01*
X0178423Y0090605D01*
X0177535Y0090224D01*
X0176638Y0089865D01*
X0175732Y0089528D01*
X0174819Y0089214D01*
X0173898Y0088922D01*
X0172969Y0088653D01*
X0172035Y0088407D01*
X0171095Y0088184D01*
X0170150Y0087983D01*
X0169200Y0087807D01*
X0168246Y0087653D01*
X0167288Y0087523D01*
X0166328Y0087417D01*
X0165365Y0087334D01*
X0164401Y0087274D01*
X0163435Y0087239D01*
X0162469Y0087227D01*
X0161503Y0087239D01*
X0160537Y0087274D01*
X0159573Y0087334D01*
X0158610Y0087417D01*
X0157650Y0087523D01*
X0156692Y0087653D01*
X0155738Y0087807D01*
X0154788Y0087983D01*
X0153843Y0088184D01*
X0152903Y0088407D01*
X0151969Y0088653D01*
X0151040Y0088922D01*
X0150119Y0089214D01*
X0149206Y0089528D01*
X0148300Y0089865D01*
X0147403Y0090224D01*
X0146515Y0090605D01*
X0145636Y0091007D01*
X0144768Y0091431D01*
X0143910Y0091876D01*
X0143064Y0092342D01*
X0142229Y0092828D01*
X0141406Y0093335D01*
X0140596Y0093862D01*
X0139799Y0094409D01*
X0139016Y0094975D01*
X0138247Y0095560D01*
X0137493Y0096164D01*
X0136754Y0096786D01*
X0136030Y0097426D01*
X0135322Y0098083D01*
X0134630Y0098758D01*
X0133955Y0099450D01*
X0133298Y0100158D01*
X0132658Y0100882D01*
X0132036Y0101621D01*
X0131432Y0102375D01*
X0130847Y0103144D01*
X0130281Y0103927D01*
X0129734Y0104724D01*
X0129207Y0105534D01*
X0128700Y0106357D01*
X0128214Y0107192D01*
X0127748Y0108038D01*
X0127303Y0108896D01*
X0126879Y0109764D01*
X0126477Y0110643D01*
X0126096Y0111531D01*
X0125737Y0112428D01*
X0125400Y0113334D01*
X0125086Y0114247D01*
X0124794Y0115168D01*
X0124525Y0116097D01*
X0124279Y0117031D01*
X0124056Y0117971D01*
X0123855Y0118916D01*
X0123679Y0119866D01*
X0123525Y0120820D01*
X0123395Y0121778D01*
X0123289Y0122738D01*
X0123206Y0123701D01*
X0123146Y0124665D01*
X0123111Y0125631D01*
X0123099Y0126597D01*
X0199871Y0140376D02*
X0218572Y0140376D01*
X0218572Y0135455D01*
X0218572Y0117739D02*
X0218572Y0112817D01*
X0199871Y0112817D01*
D16*
X0113724Y0108351D02*
X0110654Y0108351D01*
X0112189Y0109885D02*
X0112189Y0106816D01*
D17*
X0152800Y0062422D02*
X0152800Y0055922D01*
X0152802Y0055862D01*
X0152807Y0055801D01*
X0152816Y0055742D01*
X0152829Y0055683D01*
X0152845Y0055624D01*
X0152865Y0055567D01*
X0152888Y0055512D01*
X0152915Y0055457D01*
X0152944Y0055405D01*
X0152977Y0055354D01*
X0153013Y0055305D01*
X0153051Y0055259D01*
X0153093Y0055215D01*
X0153137Y0055173D01*
X0153183Y0055135D01*
X0153232Y0055099D01*
X0153283Y0055066D01*
X0153335Y0055037D01*
X0153390Y0055010D01*
X0153445Y0054987D01*
X0153502Y0054967D01*
X0153561Y0054951D01*
X0153620Y0054938D01*
X0153679Y0054929D01*
X0153740Y0054924D01*
X0153800Y0054922D01*
X0159800Y0054922D02*
X0159860Y0054924D01*
X0159921Y0054929D01*
X0159980Y0054938D01*
X0160039Y0054951D01*
X0160098Y0054967D01*
X0160155Y0054987D01*
X0160210Y0055010D01*
X0160265Y0055037D01*
X0160317Y0055066D01*
X0160368Y0055099D01*
X0160417Y0055135D01*
X0160463Y0055173D01*
X0160507Y0055215D01*
X0160549Y0055259D01*
X0160587Y0055305D01*
X0160623Y0055354D01*
X0160656Y0055405D01*
X0160685Y0055457D01*
X0160712Y0055512D01*
X0160735Y0055567D01*
X0160755Y0055624D01*
X0160771Y0055683D01*
X0160784Y0055742D01*
X0160793Y0055801D01*
X0160798Y0055862D01*
X0160800Y0055922D01*
X0160800Y0062422D01*
X0160798Y0062482D01*
X0160793Y0062543D01*
X0160784Y0062602D01*
X0160771Y0062661D01*
X0160755Y0062720D01*
X0160735Y0062777D01*
X0160712Y0062832D01*
X0160685Y0062887D01*
X0160656Y0062939D01*
X0160623Y0062990D01*
X0160587Y0063039D01*
X0160549Y0063085D01*
X0160507Y0063129D01*
X0160463Y0063171D01*
X0160417Y0063209D01*
X0160368Y0063245D01*
X0160317Y0063278D01*
X0160265Y0063307D01*
X0160210Y0063334D01*
X0160155Y0063357D01*
X0160098Y0063377D01*
X0160039Y0063393D01*
X0159980Y0063406D01*
X0159921Y0063415D01*
X0159860Y0063420D01*
X0159800Y0063422D01*
X0163800Y0062422D02*
X0163800Y0055922D01*
X0163802Y0055862D01*
X0163807Y0055801D01*
X0163816Y0055742D01*
X0163829Y0055683D01*
X0163845Y0055624D01*
X0163865Y0055567D01*
X0163888Y0055512D01*
X0163915Y0055457D01*
X0163944Y0055405D01*
X0163977Y0055354D01*
X0164013Y0055305D01*
X0164051Y0055259D01*
X0164093Y0055215D01*
X0164137Y0055173D01*
X0164183Y0055135D01*
X0164232Y0055099D01*
X0164283Y0055066D01*
X0164335Y0055037D01*
X0164390Y0055010D01*
X0164445Y0054987D01*
X0164502Y0054967D01*
X0164561Y0054951D01*
X0164620Y0054938D01*
X0164679Y0054929D01*
X0164740Y0054924D01*
X0164800Y0054922D01*
X0170800Y0054922D02*
X0170860Y0054924D01*
X0170921Y0054929D01*
X0170980Y0054938D01*
X0171039Y0054951D01*
X0171098Y0054967D01*
X0171155Y0054987D01*
X0171210Y0055010D01*
X0171265Y0055037D01*
X0171317Y0055066D01*
X0171368Y0055099D01*
X0171417Y0055135D01*
X0171463Y0055173D01*
X0171507Y0055215D01*
X0171549Y0055259D01*
X0171587Y0055305D01*
X0171623Y0055354D01*
X0171656Y0055405D01*
X0171685Y0055457D01*
X0171712Y0055512D01*
X0171735Y0055567D01*
X0171755Y0055624D01*
X0171771Y0055683D01*
X0171784Y0055742D01*
X0171793Y0055801D01*
X0171798Y0055862D01*
X0171800Y0055922D01*
X0171800Y0062422D01*
X0171798Y0062482D01*
X0171793Y0062543D01*
X0171784Y0062602D01*
X0171771Y0062661D01*
X0171755Y0062720D01*
X0171735Y0062777D01*
X0171712Y0062832D01*
X0171685Y0062887D01*
X0171656Y0062939D01*
X0171623Y0062990D01*
X0171587Y0063039D01*
X0171549Y0063085D01*
X0171507Y0063129D01*
X0171463Y0063171D01*
X0171417Y0063209D01*
X0171368Y0063245D01*
X0171317Y0063278D01*
X0171265Y0063307D01*
X0171210Y0063334D01*
X0171155Y0063357D01*
X0171098Y0063377D01*
X0171039Y0063393D01*
X0170980Y0063406D01*
X0170921Y0063415D01*
X0170860Y0063420D01*
X0170800Y0063422D01*
X0173800Y0062422D02*
X0173800Y0055922D01*
X0173802Y0055862D01*
X0173807Y0055801D01*
X0173816Y0055742D01*
X0173829Y0055683D01*
X0173845Y0055624D01*
X0173865Y0055567D01*
X0173888Y0055512D01*
X0173915Y0055457D01*
X0173944Y0055405D01*
X0173977Y0055354D01*
X0174013Y0055305D01*
X0174051Y0055259D01*
X0174093Y0055215D01*
X0174137Y0055173D01*
X0174183Y0055135D01*
X0174232Y0055099D01*
X0174283Y0055066D01*
X0174335Y0055037D01*
X0174390Y0055010D01*
X0174445Y0054987D01*
X0174502Y0054967D01*
X0174561Y0054951D01*
X0174620Y0054938D01*
X0174679Y0054929D01*
X0174740Y0054924D01*
X0174800Y0054922D01*
X0180800Y0054922D02*
X0180860Y0054924D01*
X0180921Y0054929D01*
X0180980Y0054938D01*
X0181039Y0054951D01*
X0181098Y0054967D01*
X0181155Y0054987D01*
X0181210Y0055010D01*
X0181265Y0055037D01*
X0181317Y0055066D01*
X0181368Y0055099D01*
X0181417Y0055135D01*
X0181463Y0055173D01*
X0181507Y0055215D01*
X0181549Y0055259D01*
X0181587Y0055305D01*
X0181623Y0055354D01*
X0181656Y0055405D01*
X0181685Y0055457D01*
X0181712Y0055512D01*
X0181735Y0055567D01*
X0181755Y0055624D01*
X0181771Y0055683D01*
X0181784Y0055742D01*
X0181793Y0055801D01*
X0181798Y0055862D01*
X0181800Y0055922D01*
X0181800Y0062422D01*
X0181798Y0062482D01*
X0181793Y0062543D01*
X0181784Y0062602D01*
X0181771Y0062661D01*
X0181755Y0062720D01*
X0181735Y0062777D01*
X0181712Y0062832D01*
X0181685Y0062887D01*
X0181656Y0062939D01*
X0181623Y0062990D01*
X0181587Y0063039D01*
X0181549Y0063085D01*
X0181507Y0063129D01*
X0181463Y0063171D01*
X0181417Y0063209D01*
X0181368Y0063245D01*
X0181317Y0063278D01*
X0181265Y0063307D01*
X0181210Y0063334D01*
X0181155Y0063357D01*
X0181098Y0063377D01*
X0181039Y0063393D01*
X0180980Y0063406D01*
X0180921Y0063415D01*
X0180860Y0063420D01*
X0180800Y0063422D01*
X0174800Y0063422D02*
X0174740Y0063420D01*
X0174679Y0063415D01*
X0174620Y0063406D01*
X0174561Y0063393D01*
X0174502Y0063377D01*
X0174445Y0063357D01*
X0174390Y0063334D01*
X0174335Y0063307D01*
X0174283Y0063278D01*
X0174232Y0063245D01*
X0174183Y0063209D01*
X0174137Y0063171D01*
X0174093Y0063129D01*
X0174051Y0063085D01*
X0174013Y0063039D01*
X0173977Y0062990D01*
X0173944Y0062939D01*
X0173915Y0062887D01*
X0173888Y0062832D01*
X0173865Y0062777D01*
X0173845Y0062720D01*
X0173829Y0062661D01*
X0173816Y0062602D01*
X0173807Y0062543D01*
X0173802Y0062482D01*
X0173800Y0062422D01*
X0164800Y0063422D02*
X0164740Y0063420D01*
X0164679Y0063415D01*
X0164620Y0063406D01*
X0164561Y0063393D01*
X0164502Y0063377D01*
X0164445Y0063357D01*
X0164390Y0063334D01*
X0164335Y0063307D01*
X0164283Y0063278D01*
X0164232Y0063245D01*
X0164183Y0063209D01*
X0164137Y0063171D01*
X0164093Y0063129D01*
X0164051Y0063085D01*
X0164013Y0063039D01*
X0163977Y0062990D01*
X0163944Y0062939D01*
X0163915Y0062887D01*
X0163888Y0062832D01*
X0163865Y0062777D01*
X0163845Y0062720D01*
X0163829Y0062661D01*
X0163816Y0062602D01*
X0163807Y0062543D01*
X0163802Y0062482D01*
X0163800Y0062422D01*
X0153800Y0063422D02*
X0153740Y0063420D01*
X0153679Y0063415D01*
X0153620Y0063406D01*
X0153561Y0063393D01*
X0153502Y0063377D01*
X0153445Y0063357D01*
X0153390Y0063334D01*
X0153335Y0063307D01*
X0153283Y0063278D01*
X0153232Y0063245D01*
X0153183Y0063209D01*
X0153137Y0063171D01*
X0153093Y0063129D01*
X0153051Y0063085D01*
X0153013Y0063039D01*
X0152977Y0062990D01*
X0152944Y0062939D01*
X0152915Y0062887D01*
X0152888Y0062832D01*
X0152865Y0062777D01*
X0152845Y0062720D01*
X0152829Y0062661D01*
X0152816Y0062602D01*
X0152807Y0062543D01*
X0152802Y0062482D01*
X0152800Y0062422D01*
M02*
