G75*
%MOIN*%
%OFA0B0*%
%FSLAX25Y25*%
%IPPOS*%
%LPD*%
%AMOC8*
5,1,8,0,0,1.08239X$1,22.5*
%
%ADD10C,0.12998*%
%ADD11C,0.06900*%
%ADD12R,0.06900X0.06900*%
%ADD13C,0.07800*%
%ADD14R,0.07800X0.07800*%
%ADD15R,0.04337X0.05912*%
%ADD16R,0.03156X0.03943*%
%ADD17C,0.09000*%
%ADD18C,0.07000*%
%ADD19R,0.10636X0.14180*%
%ADD20R,0.05400X0.02900*%
%ADD21C,0.03746*%
%ADD22R,0.05124X0.03550*%
D10*
X0151780Y0043920D03*
X0196780Y0043920D03*
X0319950Y0039983D03*
X0319950Y0138408D03*
X0170343Y0181715D03*
D11*
X0286800Y0083172D03*
D12*
X0286800Y0073172D03*
D13*
X0230500Y0040172D03*
X0219100Y0040172D03*
X0186780Y0068920D03*
X0176780Y0068920D03*
X0166780Y0068920D03*
X0161780Y0078920D03*
X0171780Y0078920D03*
X0181780Y0078920D03*
X0191780Y0078920D03*
X0134800Y0061672D03*
X0124800Y0060672D03*
X0114800Y0061672D03*
X0104800Y0060672D03*
X0094800Y0061672D03*
X0094800Y0051672D03*
X0104800Y0050672D03*
X0104800Y0040672D03*
X0094800Y0041672D03*
X0081800Y0040922D03*
X0071800Y0041922D03*
X0061800Y0040922D03*
X0061800Y0050922D03*
X0061800Y0060922D03*
X0071800Y0061922D03*
X0081800Y0060922D03*
X0081800Y0050922D03*
X0071800Y0051922D03*
X0114800Y0051672D03*
X0124800Y0050672D03*
X0124800Y0040672D03*
X0114800Y0041672D03*
X0134800Y0041672D03*
X0134800Y0051672D03*
X0027300Y0129172D03*
X0028300Y0139172D03*
X0027300Y0149172D03*
X0028300Y0159172D03*
X0027300Y0169172D03*
X0027800Y0197672D03*
X0037800Y0196672D03*
X0047800Y0197672D03*
X0057800Y0196672D03*
X0067800Y0197672D03*
X0077800Y0196672D03*
X0087800Y0197672D03*
X0097800Y0196672D03*
X0107800Y0197672D03*
X0117800Y0196672D03*
X0117800Y0206672D03*
X0107800Y0207672D03*
X0097800Y0206672D03*
X0087800Y0207672D03*
X0077800Y0206672D03*
X0067800Y0207672D03*
X0057800Y0206672D03*
X0047800Y0207672D03*
X0037800Y0206672D03*
X0027800Y0207672D03*
X0027800Y0217672D03*
X0037800Y0216672D03*
X0047800Y0217672D03*
X0057800Y0216672D03*
X0067800Y0217672D03*
X0077800Y0216672D03*
X0087800Y0217672D03*
X0097800Y0216672D03*
X0107800Y0217672D03*
X0117800Y0216672D03*
X0135800Y0207672D03*
X0145800Y0208672D03*
X0155800Y0207672D03*
X0152500Y0179172D03*
X0141100Y0179172D03*
D14*
X0051800Y0041922D03*
X0051800Y0051922D03*
X0051800Y0061922D03*
X0156780Y0068920D03*
D15*
X0052540Y0084502D03*
X0045060Y0084502D03*
X0048800Y0075841D03*
D16*
X0047241Y0070172D03*
X0052359Y0070172D03*
X0066241Y0084172D03*
X0066241Y0089172D03*
X0071359Y0089172D03*
X0071359Y0084172D03*
D17*
X0034910Y0075416D03*
X0034910Y0102975D03*
D18*
X0025068Y0099038D03*
X0025068Y0079353D03*
D19*
X0104595Y0126597D03*
X0220343Y0126597D03*
D20*
X0177800Y0061172D03*
X0177800Y0057172D03*
X0167800Y0057172D03*
X0167800Y0061172D03*
X0156800Y0061172D03*
X0156800Y0057172D03*
D21*
X0034711Y0059274D03*
X0034711Y0044313D03*
D22*
X0025800Y0055628D03*
X0025800Y0062715D03*
M02*
