G75*
%MOIN*%
%OFA0B0*%
%FSLAX25Y25*%
%IPPOS*%
%LPD*%
%AMOC8*
5,1,8,0,0,1.08239X$1,22.5*
%
%ADD10C,0.06500*%
%ADD11R,0.06500X0.06500*%
%ADD12C,0.07400*%
%ADD13R,0.07400X0.07400*%
%ADD14R,0.03937X0.05512*%
%ADD15R,0.02756X0.03543*%
%ADD16C,0.08661*%
%ADD17C,0.06693*%
%ADD18R,0.10236X0.13780*%
%ADD19C,0.00800*%
%ADD20R,0.05000X0.02500*%
%ADD21R,0.04724X0.03150*%
%ADD22C,0.01600*%
%ADD23C,0.02400*%
%ADD24C,0.01000*%
%ADD25C,0.02800*%
%ADD26C,0.01200*%
%ADD27C,0.02400*%
%ADD28C,0.03600*%
D10*
X0286800Y0083172D03*
D11*
X0286800Y0073172D03*
D12*
X0230500Y0040172D03*
X0219100Y0040172D03*
X0186780Y0068920D03*
X0176780Y0068920D03*
X0166780Y0068920D03*
X0161780Y0078920D03*
X0171780Y0078920D03*
X0181780Y0078920D03*
X0191780Y0078920D03*
X0134800Y0061672D03*
X0124800Y0060672D03*
X0114800Y0061672D03*
X0104800Y0060672D03*
X0094800Y0061672D03*
X0094800Y0051672D03*
X0104800Y0050672D03*
X0104800Y0040672D03*
X0094800Y0041672D03*
X0081800Y0040922D03*
X0071800Y0041922D03*
X0061800Y0040922D03*
X0061800Y0050922D03*
X0061800Y0060922D03*
X0071800Y0061922D03*
X0081800Y0060922D03*
X0081800Y0050922D03*
X0071800Y0051922D03*
X0114800Y0051672D03*
X0124800Y0050672D03*
X0124800Y0040672D03*
X0114800Y0041672D03*
X0134800Y0041672D03*
X0134800Y0051672D03*
X0027300Y0129172D03*
X0028300Y0139172D03*
X0027300Y0149172D03*
X0028300Y0159172D03*
X0027300Y0169172D03*
X0027800Y0197672D03*
X0037800Y0196672D03*
X0047800Y0197672D03*
X0057800Y0196672D03*
X0067800Y0197672D03*
X0077800Y0196672D03*
X0087800Y0197672D03*
X0097800Y0196672D03*
X0107800Y0197672D03*
X0117800Y0196672D03*
X0117800Y0206672D03*
X0107800Y0207672D03*
X0097800Y0206672D03*
X0087800Y0207672D03*
X0077800Y0206672D03*
X0067800Y0207672D03*
X0057800Y0206672D03*
X0047800Y0207672D03*
X0037800Y0206672D03*
X0027800Y0207672D03*
X0027800Y0217672D03*
X0037800Y0216672D03*
X0047800Y0217672D03*
X0057800Y0216672D03*
X0067800Y0217672D03*
X0077800Y0216672D03*
X0087800Y0217672D03*
X0097800Y0216672D03*
X0107800Y0217672D03*
X0117800Y0216672D03*
X0135800Y0207672D03*
X0145800Y0208672D03*
X0155800Y0207672D03*
X0152500Y0179172D03*
X0141100Y0179172D03*
D13*
X0156780Y0068920D03*
X0051800Y0061922D03*
X0051800Y0051922D03*
X0051800Y0041922D03*
D14*
X0048800Y0075841D03*
X0045060Y0084502D03*
X0052540Y0084502D03*
D15*
X0066241Y0084172D03*
X0066241Y0089172D03*
X0071359Y0089172D03*
X0071359Y0084172D03*
X0052359Y0070172D03*
X0047241Y0070172D03*
D16*
X0034910Y0075416D03*
X0034910Y0102975D03*
D17*
X0025068Y0099038D03*
X0025068Y0079353D03*
D18*
X0104595Y0126597D03*
X0220343Y0126597D03*
D19*
X0177800Y0060672D02*
X0177800Y0057672D01*
X0167800Y0057672D02*
X0167800Y0060672D01*
X0156800Y0060672D02*
X0156800Y0057672D01*
D20*
X0156800Y0057172D03*
X0156800Y0061172D03*
X0167800Y0061172D03*
X0167800Y0057172D03*
X0177800Y0057172D03*
X0177800Y0061172D03*
D21*
X0025800Y0062715D03*
X0025800Y0055628D03*
D22*
X0018600Y0053978D02*
X0018600Y0029972D01*
X0329961Y0029972D01*
X0329961Y0185372D01*
X0292711Y0185372D01*
X0292711Y0185372D01*
X0294000Y0184083D01*
X0294000Y0179214D01*
X0294343Y0178871D01*
X0294800Y0177768D01*
X0294800Y0177566D01*
X0295159Y0177206D01*
X0295835Y0176531D01*
X0296200Y0175649D01*
X0296200Y0128694D01*
X0296600Y0127729D01*
X0296600Y0126615D01*
X0296174Y0125586D01*
X0295386Y0124798D01*
X0294357Y0124372D01*
X0293243Y0124372D01*
X0292214Y0124798D01*
X0291426Y0125586D01*
X0291000Y0126615D01*
X0291000Y0127729D01*
X0291400Y0128694D01*
X0291400Y0174172D01*
X0291203Y0174172D01*
X0290101Y0174628D01*
X0289257Y0175472D01*
X0288800Y0176575D01*
X0288800Y0177768D01*
X0289257Y0178871D01*
X0289600Y0179214D01*
X0289600Y0181972D01*
X0278560Y0181972D01*
X0278386Y0181798D01*
X0277357Y0181372D01*
X0276243Y0181372D01*
X0275214Y0181798D01*
X0274426Y0182586D01*
X0274000Y0183615D01*
X0274000Y0184729D01*
X0274266Y0185372D01*
X0198162Y0185372D01*
X0197693Y0185840D01*
X0197693Y0223222D01*
X0018600Y0223222D01*
X0018600Y0084366D01*
X0020765Y0086531D01*
X0021441Y0087206D01*
X0022323Y0087572D01*
X0036957Y0087572D01*
X0037101Y0087715D01*
X0038203Y0088172D01*
X0039397Y0088172D01*
X0040499Y0087715D01*
X0041343Y0086871D01*
X0041491Y0086514D01*
X0041491Y0087921D01*
X0042429Y0088858D01*
X0042960Y0088858D01*
X0042960Y0096362D01*
X0041600Y0095002D01*
X0041600Y0094615D01*
X0041174Y0093586D01*
X0040386Y0092798D01*
X0039357Y0092372D01*
X0038243Y0092372D01*
X0037214Y0092798D01*
X0036426Y0093586D01*
X0036000Y0094615D01*
X0036000Y0095729D01*
X0036426Y0096758D01*
X0037153Y0097484D01*
X0036090Y0097044D01*
X0033731Y0097044D01*
X0031551Y0097947D01*
X0030014Y0099484D01*
X0030014Y0098054D01*
X0029261Y0096236D01*
X0027870Y0094844D01*
X0026052Y0094091D01*
X0024084Y0094091D01*
X0022266Y0094844D01*
X0020874Y0096236D01*
X0020121Y0098054D01*
X0020121Y0100022D01*
X0020874Y0101840D01*
X0022266Y0103231D01*
X0024084Y0103984D01*
X0026052Y0103984D01*
X0027870Y0103231D01*
X0028980Y0102121D01*
X0028980Y0104154D01*
X0029882Y0106334D01*
X0031551Y0108003D01*
X0033731Y0108905D01*
X0036090Y0108905D01*
X0038270Y0108003D01*
X0039938Y0106334D01*
X0040841Y0104154D01*
X0040841Y0101795D01*
X0039938Y0099615D01*
X0038294Y0097972D01*
X0038630Y0097972D01*
X0041700Y0101041D01*
X0042930Y0102272D01*
X0049142Y0102272D01*
X0049000Y0102615D01*
X0049000Y0103729D01*
X0049426Y0104758D01*
X0049860Y0105191D01*
X0047144Y0107072D01*
X0046930Y0107072D01*
X0046449Y0107553D01*
X0045889Y0107940D01*
X0045851Y0108151D01*
X0045700Y0108302D01*
X0045700Y0108982D01*
X0045578Y0109652D01*
X0045700Y0109828D01*
X0045700Y0112312D01*
X0045426Y0112586D01*
X0045000Y0113615D01*
X0045000Y0114729D01*
X0045426Y0115758D01*
X0046214Y0116545D01*
X0047243Y0116972D01*
X0048357Y0116972D01*
X0049386Y0116545D01*
X0050174Y0115758D01*
X0050600Y0114729D01*
X0050600Y0113615D01*
X0050174Y0112586D01*
X0049900Y0112312D01*
X0049900Y0110272D01*
X0054956Y0106772D01*
X0075440Y0106772D01*
X0075714Y0107045D01*
X0076743Y0107472D01*
X0077857Y0107472D01*
X0078886Y0107045D01*
X0079674Y0106258D01*
X0080100Y0105229D01*
X0080100Y0104272D01*
X0088225Y0104272D01*
X0088426Y0104758D01*
X0089214Y0105545D01*
X0090243Y0105972D01*
X0091357Y0105972D01*
X0092000Y0105705D01*
X0092000Y0106729D01*
X0092426Y0107758D01*
X0093214Y0108545D01*
X0094243Y0108972D01*
X0094630Y0108972D01*
X0100686Y0115027D01*
X0101161Y0118107D01*
X0098814Y0118107D01*
X0097877Y0119044D01*
X0097877Y0134149D01*
X0098814Y0135087D01*
X0107441Y0135087D01*
X0106560Y0135451D01*
X0105773Y0136239D01*
X0105362Y0137230D01*
X0104385Y0137230D01*
X0103356Y0137656D01*
X0102800Y0138212D01*
X0102386Y0137798D01*
X0101357Y0137372D01*
X0100243Y0137372D01*
X0099214Y0137798D01*
X0098940Y0138072D01*
X0097670Y0138072D01*
X0096900Y0137302D01*
X0096900Y0127302D01*
X0095670Y0126072D01*
X0091670Y0122072D01*
X0086930Y0122072D01*
X0085700Y0123302D01*
X0082930Y0126072D01*
X0077458Y0126072D01*
X0077600Y0125729D01*
X0077600Y0124615D01*
X0077174Y0123586D01*
X0076386Y0122798D01*
X0075500Y0122431D01*
X0076205Y0121726D01*
X0076631Y0120697D01*
X0076631Y0119583D01*
X0076205Y0118554D01*
X0075418Y0117766D01*
X0074388Y0117340D01*
X0074001Y0117340D01*
X0073733Y0117072D01*
X0072798Y0117072D01*
X0039630Y0117042D01*
X0039386Y0116798D01*
X0038357Y0116372D01*
X0037243Y0116372D01*
X0036214Y0116798D01*
X0035426Y0117586D01*
X0035000Y0118615D01*
X0035000Y0119729D01*
X0035426Y0120758D01*
X0036214Y0121545D01*
X0037243Y0121972D01*
X0038357Y0121972D01*
X0039386Y0121545D01*
X0039690Y0121242D01*
X0071269Y0121270D01*
X0071458Y0121726D01*
X0072245Y0122514D01*
X0073131Y0122881D01*
X0072940Y0123072D01*
X0034930Y0123072D01*
X0033930Y0124072D01*
X0032700Y0125302D01*
X0032700Y0136076D01*
X0031302Y0134679D01*
X0029578Y0133965D01*
X0030302Y0133665D01*
X0031793Y0132174D01*
X0032600Y0130226D01*
X0032600Y0128117D01*
X0031793Y0126169D01*
X0030302Y0124679D01*
X0028354Y0123872D01*
X0026246Y0123872D01*
X0024298Y0124679D01*
X0022807Y0126169D01*
X0022000Y0128117D01*
X0022000Y0130226D01*
X0022807Y0132174D01*
X0024298Y0133665D01*
X0026022Y0134379D01*
X0025298Y0134679D01*
X0023807Y0136169D01*
X0023000Y0138117D01*
X0023000Y0140226D01*
X0023807Y0142174D01*
X0025298Y0143665D01*
X0026022Y0143965D01*
X0024298Y0144679D01*
X0022807Y0146169D01*
X0022000Y0148117D01*
X0022000Y0150226D01*
X0022807Y0152174D01*
X0024298Y0153665D01*
X0025784Y0154281D01*
X0025417Y0154468D01*
X0024717Y0154976D01*
X0024105Y0155589D01*
X0023596Y0156289D01*
X0023203Y0157060D01*
X0022935Y0157884D01*
X0022800Y0158739D01*
X0022800Y0158972D01*
X0028100Y0158972D01*
X0028100Y0159372D01*
X0022800Y0159372D01*
X0022800Y0159605D01*
X0022935Y0160460D01*
X0023203Y0161283D01*
X0023596Y0162054D01*
X0024105Y0162755D01*
X0024717Y0163367D01*
X0025417Y0163876D01*
X0025784Y0164063D01*
X0024298Y0164679D01*
X0022807Y0166169D01*
X0022000Y0168117D01*
X0022000Y0170226D01*
X0022807Y0172174D01*
X0024298Y0173665D01*
X0026246Y0174472D01*
X0028354Y0174472D01*
X0030302Y0173665D01*
X0031793Y0172174D01*
X0032600Y0170226D01*
X0032600Y0168117D01*
X0031793Y0166169D01*
X0030302Y0164679D01*
X0029796Y0164469D01*
X0030411Y0164269D01*
X0031183Y0163876D01*
X0031883Y0163367D01*
X0032495Y0162755D01*
X0033004Y0162054D01*
X0033397Y0161283D01*
X0033665Y0160460D01*
X0033800Y0159605D01*
X0033800Y0159372D01*
X0028500Y0159372D01*
X0028500Y0158972D01*
X0033800Y0158972D01*
X0033800Y0158739D01*
X0033665Y0157884D01*
X0033397Y0157060D01*
X0033004Y0156289D01*
X0032495Y0155589D01*
X0031883Y0154976D01*
X0031183Y0154468D01*
X0030411Y0154075D01*
X0029796Y0153875D01*
X0030302Y0153665D01*
X0031793Y0152174D01*
X0032167Y0151272D01*
X0036670Y0151272D01*
X0036700Y0151241D01*
X0036700Y0191391D01*
X0034798Y0192179D01*
X0033307Y0193669D01*
X0032593Y0195393D01*
X0032293Y0194669D01*
X0030802Y0193179D01*
X0028854Y0192372D01*
X0026746Y0192372D01*
X0024798Y0193179D01*
X0023307Y0194669D01*
X0022500Y0196617D01*
X0022500Y0198726D01*
X0023307Y0200674D01*
X0024798Y0202165D01*
X0026022Y0202672D01*
X0024798Y0203179D01*
X0023307Y0204669D01*
X0022500Y0206617D01*
X0022500Y0208726D01*
X0023307Y0210674D01*
X0024798Y0212165D01*
X0025744Y0212557D01*
X0025689Y0212575D01*
X0024917Y0212968D01*
X0024217Y0213476D01*
X0023605Y0214089D01*
X0023096Y0214789D01*
X0022703Y0215560D01*
X0022435Y0216384D01*
X0022300Y0217239D01*
X0022300Y0217472D01*
X0027600Y0217472D01*
X0027600Y0217872D01*
X0027600Y0223172D01*
X0027367Y0223172D01*
X0026512Y0223036D01*
X0025689Y0222769D01*
X0024917Y0222376D01*
X0024217Y0221867D01*
X0023605Y0221255D01*
X0023096Y0220554D01*
X0022703Y0219783D01*
X0022435Y0218960D01*
X0022300Y0218105D01*
X0022300Y0217872D01*
X0027600Y0217872D01*
X0028000Y0217872D01*
X0028000Y0223172D01*
X0028233Y0223172D01*
X0029088Y0223036D01*
X0029911Y0222769D01*
X0030683Y0222376D01*
X0031383Y0221867D01*
X0031995Y0221255D01*
X0032504Y0220554D01*
X0032897Y0219783D01*
X0033020Y0219405D01*
X0033096Y0219554D01*
X0033605Y0220255D01*
X0034217Y0220867D01*
X0034917Y0221376D01*
X0035689Y0221769D01*
X0036512Y0222036D01*
X0037367Y0222172D01*
X0037600Y0222172D01*
X0037600Y0216872D01*
X0038000Y0216872D01*
X0038000Y0222172D01*
X0038233Y0222172D01*
X0039088Y0222036D01*
X0039911Y0221769D01*
X0040683Y0221376D01*
X0041383Y0220867D01*
X0041995Y0220255D01*
X0042504Y0219554D01*
X0042580Y0219405D01*
X0042703Y0219783D01*
X0043096Y0220554D01*
X0043605Y0221255D01*
X0044217Y0221867D01*
X0044917Y0222376D01*
X0045689Y0222769D01*
X0046512Y0223036D01*
X0047367Y0223172D01*
X0047600Y0223172D01*
X0047600Y0217872D01*
X0048000Y0217872D01*
X0048000Y0223172D01*
X0048233Y0223172D01*
X0049088Y0223036D01*
X0049911Y0222769D01*
X0050683Y0222376D01*
X0051383Y0221867D01*
X0051995Y0221255D01*
X0052504Y0220554D01*
X0052897Y0219783D01*
X0053020Y0219405D01*
X0053096Y0219554D01*
X0053605Y0220255D01*
X0054217Y0220867D01*
X0054917Y0221376D01*
X0055689Y0221769D01*
X0056512Y0222036D01*
X0057367Y0222172D01*
X0057600Y0222172D01*
X0057600Y0216872D01*
X0058000Y0216872D01*
X0058000Y0222172D01*
X0058233Y0222172D01*
X0059088Y0222036D01*
X0059911Y0221769D01*
X0060683Y0221376D01*
X0061383Y0220867D01*
X0061995Y0220255D01*
X0062504Y0219554D01*
X0062580Y0219405D01*
X0062703Y0219783D01*
X0063096Y0220554D01*
X0063605Y0221255D01*
X0064217Y0221867D01*
X0064917Y0222376D01*
X0065689Y0222769D01*
X0066512Y0223036D01*
X0067367Y0223172D01*
X0067600Y0223172D01*
X0067600Y0217872D01*
X0068000Y0217872D01*
X0068000Y0223172D01*
X0068233Y0223172D01*
X0069088Y0223036D01*
X0069911Y0222769D01*
X0070683Y0222376D01*
X0071383Y0221867D01*
X0071995Y0221255D01*
X0072504Y0220554D01*
X0072897Y0219783D01*
X0073020Y0219405D01*
X0073096Y0219554D01*
X0073605Y0220255D01*
X0074217Y0220867D01*
X0074917Y0221376D01*
X0075689Y0221769D01*
X0076512Y0222036D01*
X0077367Y0222172D01*
X0077600Y0222172D01*
X0077600Y0216872D01*
X0078000Y0216872D01*
X0078000Y0222172D01*
X0078233Y0222172D01*
X0079088Y0222036D01*
X0079911Y0221769D01*
X0080683Y0221376D01*
X0081383Y0220867D01*
X0081995Y0220255D01*
X0082504Y0219554D01*
X0082580Y0219405D01*
X0082703Y0219783D01*
X0083096Y0220554D01*
X0083605Y0221255D01*
X0084217Y0221867D01*
X0084917Y0222376D01*
X0085689Y0222769D01*
X0086512Y0223036D01*
X0087367Y0223172D01*
X0087600Y0223172D01*
X0087600Y0217872D01*
X0088000Y0217872D01*
X0088000Y0223172D01*
X0088233Y0223172D01*
X0089088Y0223036D01*
X0089911Y0222769D01*
X0090683Y0222376D01*
X0091383Y0221867D01*
X0091995Y0221255D01*
X0092504Y0220554D01*
X0092897Y0219783D01*
X0093020Y0219405D01*
X0093096Y0219554D01*
X0093605Y0220255D01*
X0094217Y0220867D01*
X0094917Y0221376D01*
X0095689Y0221769D01*
X0096512Y0222036D01*
X0097367Y0222172D01*
X0097600Y0222172D01*
X0097600Y0216872D01*
X0098000Y0216872D01*
X0098000Y0222172D01*
X0098233Y0222172D01*
X0099088Y0222036D01*
X0099911Y0221769D01*
X0100683Y0221376D01*
X0101383Y0220867D01*
X0101995Y0220255D01*
X0102504Y0219554D01*
X0102580Y0219405D01*
X0102703Y0219783D01*
X0103096Y0220554D01*
X0103605Y0221255D01*
X0104217Y0221867D01*
X0104917Y0222376D01*
X0105689Y0222769D01*
X0106512Y0223036D01*
X0107367Y0223172D01*
X0107600Y0223172D01*
X0107600Y0217872D01*
X0108000Y0217872D01*
X0108000Y0223172D01*
X0108233Y0223172D01*
X0109088Y0223036D01*
X0109911Y0222769D01*
X0110683Y0222376D01*
X0111383Y0221867D01*
X0111995Y0221255D01*
X0112504Y0220554D01*
X0112897Y0219783D01*
X0113020Y0219405D01*
X0113096Y0219554D01*
X0113605Y0220255D01*
X0114217Y0220867D01*
X0114917Y0221376D01*
X0115689Y0221769D01*
X0116512Y0222036D01*
X0117367Y0222172D01*
X0117600Y0222172D01*
X0117600Y0216872D01*
X0118000Y0216872D01*
X0118000Y0222172D01*
X0118233Y0222172D01*
X0119088Y0222036D01*
X0119911Y0221769D01*
X0120683Y0221376D01*
X0121383Y0220867D01*
X0121995Y0220255D01*
X0122504Y0219554D01*
X0122897Y0218783D01*
X0123165Y0217960D01*
X0123300Y0217105D01*
X0123300Y0216872D01*
X0118000Y0216872D01*
X0118000Y0216472D01*
X0123300Y0216472D01*
X0123300Y0216239D01*
X0123165Y0215384D01*
X0122897Y0214560D01*
X0122504Y0213789D01*
X0121995Y0213089D01*
X0121383Y0212476D01*
X0120683Y0211968D01*
X0119911Y0211575D01*
X0119856Y0211557D01*
X0120802Y0211165D01*
X0122293Y0209674D01*
X0123100Y0207726D01*
X0123100Y0205617D01*
X0122293Y0203669D01*
X0120802Y0202179D01*
X0119578Y0201672D01*
X0120802Y0201165D01*
X0122293Y0199674D01*
X0123100Y0197726D01*
X0123100Y0195617D01*
X0122726Y0194715D01*
X0123900Y0193541D01*
X0123900Y0130031D01*
X0124174Y0129758D01*
X0124600Y0128729D01*
X0124600Y0127615D01*
X0124174Y0126586D01*
X0123386Y0125798D01*
X0122357Y0125372D01*
X0121243Y0125372D01*
X0120214Y0125798D01*
X0119426Y0126586D01*
X0119192Y0127151D01*
X0118464Y0127151D01*
X0117434Y0127577D01*
X0116647Y0128365D01*
X0116220Y0129394D01*
X0116220Y0130508D01*
X0116647Y0131537D01*
X0116700Y0131591D01*
X0116700Y0183302D01*
X0107630Y0192372D01*
X0106746Y0192372D01*
X0104798Y0193179D01*
X0103307Y0194669D01*
X0103007Y0195393D01*
X0102293Y0193669D01*
X0100802Y0192179D01*
X0099900Y0191805D01*
X0099900Y0165041D01*
X0101900Y0163041D01*
X0101900Y0153041D01*
X0113215Y0141727D01*
X0113215Y0137716D01*
X0113489Y0137443D01*
X0113915Y0136414D01*
X0113915Y0135300D01*
X0113489Y0134271D01*
X0112701Y0133483D01*
X0111672Y0133057D01*
X0111313Y0133057D01*
X0111313Y0119044D01*
X0110376Y0118107D01*
X0105410Y0118107D01*
X0104756Y0113867D01*
X0104756Y0113158D01*
X0104627Y0113029D01*
X0104599Y0112848D01*
X0104027Y0112429D01*
X0097600Y0106002D01*
X0097600Y0105615D01*
X0097174Y0104586D01*
X0096386Y0103798D01*
X0095357Y0103372D01*
X0094243Y0103372D01*
X0093600Y0103638D01*
X0093600Y0102615D01*
X0093458Y0102272D01*
X0133670Y0102272D01*
X0136050Y0099892D01*
X0136243Y0099972D01*
X0137357Y0099972D01*
X0138386Y0099545D01*
X0139174Y0098758D01*
X0139600Y0097729D01*
X0139600Y0096615D01*
X0139174Y0095586D01*
X0138386Y0094798D01*
X0137357Y0094372D01*
X0136243Y0094372D01*
X0135214Y0094798D01*
X0134940Y0095072D01*
X0134930Y0095072D01*
X0133700Y0096302D01*
X0131930Y0098072D01*
X0111458Y0098072D01*
X0111600Y0097729D01*
X0111600Y0096615D01*
X0111174Y0095586D01*
X0110860Y0095272D01*
X0112940Y0095272D01*
X0113214Y0095545D01*
X0114243Y0095972D01*
X0115101Y0095972D01*
X0115426Y0096758D01*
X0116214Y0097545D01*
X0117243Y0097972D01*
X0118357Y0097972D01*
X0119386Y0097545D01*
X0120174Y0096758D01*
X0120600Y0095729D01*
X0120600Y0094615D01*
X0120174Y0093586D01*
X0119900Y0093312D01*
X0119900Y0063802D01*
X0119726Y0063628D01*
X0120007Y0062950D01*
X0120307Y0063674D01*
X0121798Y0065165D01*
X0123746Y0065972D01*
X0124700Y0065972D01*
X0124700Y0092312D01*
X0124426Y0092586D01*
X0124000Y0093615D01*
X0124000Y0094729D01*
X0124426Y0095758D01*
X0125214Y0096545D01*
X0126243Y0096972D01*
X0127357Y0096972D01*
X0128386Y0096545D01*
X0129174Y0095758D01*
X0129600Y0094729D01*
X0129600Y0093615D01*
X0129174Y0092586D01*
X0128900Y0092312D01*
X0128900Y0077481D01*
X0128964Y0077545D01*
X0129993Y0077972D01*
X0131107Y0077972D01*
X0132136Y0077545D01*
X0132550Y0077131D01*
X0132964Y0077545D01*
X0133993Y0077972D01*
X0135107Y0077972D01*
X0136136Y0077545D01*
X0136550Y0077131D01*
X0136964Y0077545D01*
X0137993Y0077972D01*
X0139107Y0077972D01*
X0140136Y0077545D01*
X0140924Y0076758D01*
X0141350Y0075729D01*
X0141350Y0075272D01*
X0145670Y0075272D01*
X0146900Y0074041D01*
X0149900Y0071041D01*
X0149900Y0058272D01*
X0152700Y0058272D01*
X0152700Y0059084D01*
X0152787Y0059172D01*
X0152700Y0059259D01*
X0152700Y0063084D01*
X0153235Y0063620D01*
X0152418Y0063620D01*
X0151480Y0064557D01*
X0151480Y0073282D01*
X0152418Y0074220D01*
X0158892Y0074220D01*
X0158197Y0074725D01*
X0157585Y0075337D01*
X0157076Y0076037D01*
X0156683Y0076808D01*
X0156416Y0077632D01*
X0156280Y0078487D01*
X0156280Y0078735D01*
X0161596Y0078735D01*
X0161965Y0078735D01*
X0161965Y0079104D01*
X0167280Y0079104D01*
X0171596Y0079104D01*
X0171596Y0084420D01*
X0171347Y0084420D01*
X0170492Y0084284D01*
X0169669Y0084017D01*
X0168898Y0083624D01*
X0168197Y0083115D01*
X0167585Y0082503D01*
X0167076Y0081802D01*
X0166780Y0081221D01*
X0166484Y0081802D01*
X0165975Y0082503D01*
X0165363Y0083115D01*
X0164663Y0083624D01*
X0163892Y0084017D01*
X0163068Y0084284D01*
X0162213Y0084420D01*
X0161965Y0084420D01*
X0161965Y0079104D01*
X0161596Y0079104D01*
X0161596Y0084420D01*
X0161347Y0084420D01*
X0160492Y0084284D01*
X0159669Y0084017D01*
X0158898Y0083624D01*
X0158197Y0083115D01*
X0157585Y0082503D01*
X0157076Y0081802D01*
X0156683Y0081031D01*
X0156416Y0080208D01*
X0156280Y0079353D01*
X0156280Y0079104D01*
X0161596Y0079104D01*
X0161596Y0078735D01*
X0161596Y0073767D01*
X0162080Y0073282D01*
X0162080Y0071422D01*
X0162287Y0071922D01*
X0163778Y0073413D01*
X0165726Y0074220D01*
X0167835Y0074220D01*
X0169783Y0073413D01*
X0171273Y0071922D01*
X0171780Y0070698D01*
X0172287Y0071922D01*
X0173778Y0073413D01*
X0175726Y0074220D01*
X0177835Y0074220D01*
X0179783Y0073413D01*
X0181273Y0071922D01*
X0181780Y0070698D01*
X0182287Y0071922D01*
X0183137Y0072772D01*
X0181303Y0072772D01*
X0180421Y0073137D01*
X0179746Y0073812D01*
X0179639Y0074070D01*
X0178778Y0074427D01*
X0177287Y0075917D01*
X0176895Y0076864D01*
X0176877Y0076808D01*
X0176484Y0076037D01*
X0175975Y0075337D01*
X0175363Y0074725D01*
X0174663Y0074216D01*
X0173892Y0073823D01*
X0173068Y0073555D01*
X0172213Y0073420D01*
X0171965Y0073420D01*
X0171965Y0078735D01*
X0171596Y0078735D01*
X0171596Y0073420D01*
X0171347Y0073420D01*
X0170492Y0073555D01*
X0169669Y0073823D01*
X0168898Y0074216D01*
X0168197Y0074725D01*
X0167585Y0075337D01*
X0167076Y0076037D01*
X0166780Y0076618D01*
X0166484Y0076037D01*
X0165975Y0075337D01*
X0165363Y0074725D01*
X0164663Y0074216D01*
X0163892Y0073823D01*
X0163068Y0073555D01*
X0162213Y0073420D01*
X0161965Y0073420D01*
X0161965Y0078735D01*
X0171596Y0078735D01*
X0171596Y0079104D01*
X0171965Y0079104D01*
X0171965Y0084420D01*
X0172213Y0084420D01*
X0173068Y0084284D01*
X0173892Y0084017D01*
X0174663Y0083624D01*
X0175363Y0083115D01*
X0175975Y0082503D01*
X0176484Y0081802D01*
X0176877Y0081031D01*
X0176895Y0080976D01*
X0177287Y0081922D01*
X0178778Y0083413D01*
X0180726Y0084220D01*
X0182835Y0084220D01*
X0184783Y0083413D01*
X0186273Y0081922D01*
X0186780Y0080698D01*
X0187287Y0081922D01*
X0188778Y0083413D01*
X0190726Y0084220D01*
X0192835Y0084220D01*
X0194783Y0083413D01*
X0196273Y0081922D01*
X0197080Y0079974D01*
X0197080Y0077865D01*
X0196777Y0077134D01*
X0204940Y0068972D01*
X0237792Y0068972D01*
X0237874Y0069054D01*
X0239124Y0069572D01*
X0240476Y0069572D01*
X0241726Y0069054D01*
X0241808Y0068972D01*
X0278640Y0068972D01*
X0281950Y0072281D01*
X0281950Y0077084D01*
X0282887Y0078022D01*
X0290713Y0078022D01*
X0291650Y0077084D01*
X0291650Y0069259D01*
X0290713Y0068322D01*
X0285910Y0068322D01*
X0282174Y0064586D01*
X0281386Y0063798D01*
X0280357Y0063372D01*
X0241808Y0063372D01*
X0241726Y0063289D01*
X0240476Y0062772D01*
X0239124Y0062772D01*
X0237874Y0063289D01*
X0237792Y0063372D01*
X0204994Y0063372D01*
X0219794Y0048572D01*
X0229277Y0048572D01*
X0230159Y0048206D01*
X0232835Y0045531D01*
X0233130Y0044819D01*
X0233502Y0044665D01*
X0234000Y0044167D01*
X0234000Y0055372D01*
X0227808Y0055372D01*
X0227726Y0055289D01*
X0226476Y0054772D01*
X0225124Y0054772D01*
X0223874Y0055289D01*
X0222918Y0056246D01*
X0222400Y0057495D01*
X0222400Y0058848D01*
X0222918Y0060098D01*
X0223874Y0061054D01*
X0225124Y0061572D01*
X0226476Y0061572D01*
X0227726Y0061054D01*
X0227808Y0060972D01*
X0236357Y0060972D01*
X0237386Y0060545D01*
X0239174Y0058758D01*
X0239600Y0057729D01*
X0239600Y0034615D01*
X0239174Y0033586D01*
X0238386Y0032798D01*
X0237386Y0031798D01*
X0236357Y0031372D01*
X0027243Y0031372D01*
X0026214Y0031798D01*
X0025426Y0032586D01*
X0023426Y0034586D01*
X0023000Y0035615D01*
X0023000Y0052454D01*
X0022775Y0052454D01*
X0022000Y0053228D01*
X0019866Y0053228D01*
X0018984Y0053594D01*
X0018600Y0053978D01*
X0018600Y0053748D02*
X0018830Y0053748D01*
X0018600Y0052149D02*
X0023000Y0052149D01*
X0023000Y0050551D02*
X0018600Y0050551D01*
X0018600Y0048952D02*
X0023000Y0048952D01*
X0023000Y0047354D02*
X0018600Y0047354D01*
X0018600Y0045755D02*
X0023000Y0045755D01*
X0023000Y0044157D02*
X0018600Y0044157D01*
X0018600Y0042558D02*
X0023000Y0042558D01*
X0023000Y0040960D02*
X0018600Y0040960D01*
X0018600Y0039361D02*
X0023000Y0039361D01*
X0023000Y0037763D02*
X0018600Y0037763D01*
X0018600Y0036164D02*
X0023000Y0036164D01*
X0023446Y0034566D02*
X0018600Y0034566D01*
X0018600Y0032967D02*
X0025045Y0032967D01*
X0028960Y0036972D02*
X0028600Y0037331D01*
X0028600Y0052454D01*
X0028825Y0052454D01*
X0029762Y0053391D01*
X0029762Y0057866D01*
X0028825Y0058803D01*
X0022775Y0058803D01*
X0022000Y0058028D01*
X0021337Y0058028D01*
X0021200Y0058166D01*
X0021200Y0075942D01*
X0021715Y0075427D01*
X0022370Y0074951D01*
X0023092Y0074583D01*
X0023863Y0074333D01*
X0024663Y0074206D01*
X0025068Y0074206D01*
X0025473Y0074206D01*
X0026273Y0074333D01*
X0027043Y0074583D01*
X0027765Y0074951D01*
X0028420Y0075427D01*
X0028980Y0075986D01*
X0028980Y0074236D01*
X0029882Y0072056D01*
X0031551Y0070388D01*
X0033731Y0069485D01*
X0036090Y0069485D01*
X0038270Y0070388D01*
X0039938Y0072056D01*
X0040841Y0074236D01*
X0040841Y0076595D01*
X0039938Y0078775D01*
X0038270Y0080444D01*
X0036090Y0081346D01*
X0033731Y0081346D01*
X0031551Y0080444D01*
X0030214Y0079107D01*
X0030214Y0079353D01*
X0030214Y0079758D01*
X0030087Y0080558D01*
X0029837Y0081328D01*
X0029469Y0082050D01*
X0028993Y0082705D01*
X0028927Y0082772D01*
X0036957Y0082772D01*
X0037101Y0082628D01*
X0038203Y0082172D01*
X0039397Y0082172D01*
X0040499Y0082628D01*
X0041343Y0083472D01*
X0041491Y0083830D01*
X0041491Y0081084D01*
X0042429Y0080146D01*
X0046118Y0080146D01*
X0045231Y0079260D01*
X0045231Y0075242D01*
X0045141Y0075152D01*
X0045141Y0073484D01*
X0044263Y0072606D01*
X0044263Y0067737D01*
X0045200Y0066800D01*
X0046733Y0066800D01*
X0046660Y0066727D01*
X0046423Y0066316D01*
X0046300Y0065859D01*
X0046300Y0062122D01*
X0051600Y0062122D01*
X0051600Y0061722D01*
X0046300Y0061722D01*
X0046300Y0057985D01*
X0046423Y0057527D01*
X0046660Y0057116D01*
X0046854Y0056922D01*
X0046660Y0056727D01*
X0046423Y0056316D01*
X0046300Y0055859D01*
X0046300Y0052122D01*
X0051600Y0052122D01*
X0051600Y0056422D01*
X0051600Y0061722D01*
X0052000Y0061722D01*
X0052000Y0052122D01*
X0051600Y0052122D01*
X0051600Y0051722D01*
X0046300Y0051722D01*
X0046300Y0047985D01*
X0046423Y0047527D01*
X0046660Y0047116D01*
X0046854Y0046922D01*
X0046660Y0046727D01*
X0046423Y0046316D01*
X0046300Y0045859D01*
X0046300Y0042122D01*
X0051600Y0042122D01*
X0051600Y0047422D01*
X0051600Y0051722D01*
X0052000Y0051722D01*
X0052000Y0042122D01*
X0051600Y0042122D01*
X0051600Y0041722D01*
X0046300Y0041722D01*
X0046300Y0037985D01*
X0046423Y0037527D01*
X0046660Y0037116D01*
X0046804Y0036972D01*
X0028960Y0036972D01*
X0028600Y0037763D02*
X0046359Y0037763D01*
X0046300Y0039361D02*
X0028600Y0039361D01*
X0028600Y0040960D02*
X0033732Y0040960D01*
X0034021Y0040840D02*
X0035402Y0040840D01*
X0036679Y0041369D01*
X0037656Y0042346D01*
X0038185Y0043623D01*
X0038185Y0045004D01*
X0037656Y0046281D01*
X0036679Y0047258D01*
X0035402Y0047787D01*
X0034021Y0047787D01*
X0032744Y0047258D01*
X0031767Y0046281D01*
X0031238Y0045004D01*
X0031238Y0043623D01*
X0031767Y0042346D01*
X0032744Y0041369D01*
X0034021Y0040840D01*
X0035691Y0040960D02*
X0046300Y0040960D01*
X0046300Y0042558D02*
X0037744Y0042558D01*
X0038185Y0044157D02*
X0046300Y0044157D01*
X0046300Y0045755D02*
X0037874Y0045755D01*
X0036447Y0047354D02*
X0046523Y0047354D01*
X0046300Y0048952D02*
X0028600Y0048952D01*
X0028600Y0047354D02*
X0032976Y0047354D01*
X0031549Y0045755D02*
X0028600Y0045755D01*
X0028600Y0044157D02*
X0031238Y0044157D01*
X0031679Y0042558D02*
X0028600Y0042558D01*
X0028600Y0050551D02*
X0046300Y0050551D01*
X0046300Y0052149D02*
X0028600Y0052149D01*
X0029762Y0053748D02*
X0046300Y0053748D01*
X0046300Y0055346D02*
X0029762Y0055346D01*
X0029762Y0056945D02*
X0032129Y0056945D01*
X0031767Y0057307D02*
X0032744Y0056330D01*
X0034021Y0055801D01*
X0035402Y0055801D01*
X0036679Y0056330D01*
X0037656Y0057307D01*
X0038185Y0058583D01*
X0038185Y0059965D01*
X0037656Y0061241D01*
X0036679Y0062218D01*
X0036617Y0062244D01*
X0036726Y0062289D01*
X0037682Y0063246D01*
X0038200Y0064495D01*
X0038200Y0065848D01*
X0037682Y0067098D01*
X0036726Y0068054D01*
X0035476Y0068572D01*
X0034124Y0068572D01*
X0032874Y0068054D01*
X0032792Y0067972D01*
X0027243Y0067972D01*
X0026214Y0067545D01*
X0024558Y0065890D01*
X0022775Y0065890D01*
X0021838Y0064952D01*
X0021838Y0060477D01*
X0022775Y0059540D01*
X0028825Y0059540D01*
X0029762Y0060477D01*
X0029762Y0062372D01*
X0032792Y0062372D01*
X0032874Y0062289D01*
X0032895Y0062281D01*
X0032744Y0062218D01*
X0031767Y0061241D01*
X0031238Y0059965D01*
X0031238Y0058583D01*
X0031767Y0057307D01*
X0031255Y0058543D02*
X0029085Y0058543D01*
X0029427Y0060142D02*
X0031312Y0060142D01*
X0032266Y0061740D02*
X0029762Y0061740D01*
X0025800Y0062715D02*
X0025800Y0063172D01*
X0021838Y0063339D02*
X0021200Y0063339D01*
X0021200Y0064937D02*
X0021838Y0064937D01*
X0021200Y0066536D02*
X0025204Y0066536D01*
X0021200Y0068134D02*
X0033068Y0068134D01*
X0033132Y0069733D02*
X0021200Y0069733D01*
X0021200Y0071331D02*
X0030607Y0071331D01*
X0029521Y0072930D02*
X0021200Y0072930D01*
X0021200Y0074528D02*
X0023261Y0074528D01*
X0025068Y0074528D02*
X0025068Y0074528D01*
X0025068Y0074206D02*
X0025068Y0079353D01*
X0030214Y0079353D01*
X0025068Y0079353D01*
X0025068Y0079353D01*
X0025068Y0079353D01*
X0025068Y0074206D01*
X0026874Y0074528D02*
X0028980Y0074528D01*
X0025068Y0076127D02*
X0025068Y0076127D01*
X0025068Y0077726D02*
X0025068Y0077726D01*
X0025068Y0079324D02*
X0025068Y0079324D01*
X0030214Y0079324D02*
X0030431Y0079324D01*
X0029969Y0080923D02*
X0032707Y0080923D01*
X0029127Y0082521D02*
X0037360Y0082521D01*
X0037113Y0080923D02*
X0041653Y0080923D01*
X0041491Y0082521D02*
X0040240Y0082521D01*
X0038800Y0085172D02*
X0022800Y0085172D01*
X0018800Y0081172D01*
X0018800Y0057172D01*
X0020343Y0055628D01*
X0025800Y0055628D01*
X0022515Y0058543D02*
X0021200Y0058543D01*
X0021200Y0060142D02*
X0022173Y0060142D01*
X0021838Y0061740D02*
X0021200Y0061740D01*
X0037157Y0061740D02*
X0051600Y0061740D01*
X0051600Y0060142D02*
X0052000Y0060142D01*
X0052000Y0058543D02*
X0051600Y0058543D01*
X0051600Y0056945D02*
X0052000Y0056945D01*
X0052000Y0055346D02*
X0051600Y0055346D01*
X0051600Y0053748D02*
X0052000Y0053748D01*
X0052000Y0052149D02*
X0051600Y0052149D01*
X0051600Y0050551D02*
X0052000Y0050551D01*
X0052000Y0048952D02*
X0051600Y0048952D01*
X0051600Y0047354D02*
X0052000Y0047354D01*
X0052000Y0045755D02*
X0051600Y0045755D01*
X0051600Y0044157D02*
X0052000Y0044157D01*
X0052000Y0042558D02*
X0051600Y0042558D01*
X0046831Y0056945D02*
X0037294Y0056945D01*
X0038168Y0058543D02*
X0046300Y0058543D01*
X0046300Y0060142D02*
X0038111Y0060142D01*
X0037721Y0063339D02*
X0046300Y0063339D01*
X0046300Y0064937D02*
X0038200Y0064937D01*
X0037915Y0066536D02*
X0046549Y0066536D01*
X0044263Y0068134D02*
X0036532Y0068134D01*
X0036688Y0069733D02*
X0044263Y0069733D01*
X0044263Y0071331D02*
X0039213Y0071331D01*
X0040300Y0072930D02*
X0044587Y0072930D01*
X0045141Y0074528D02*
X0040841Y0074528D01*
X0040841Y0076127D02*
X0045231Y0076127D01*
X0045231Y0077726D02*
X0040373Y0077726D01*
X0039389Y0079324D02*
X0045296Y0079324D01*
X0047741Y0080197D02*
X0048628Y0081084D01*
X0048628Y0087921D01*
X0047691Y0088858D01*
X0047160Y0088858D01*
X0047160Y0095562D01*
X0047670Y0096072D01*
X0096740Y0096072D01*
X0096426Y0095758D01*
X0096101Y0094972D01*
X0095243Y0094972D01*
X0094214Y0094545D01*
X0093426Y0093758D01*
X0093000Y0092729D01*
X0093000Y0091615D01*
X0093426Y0090586D01*
X0094214Y0089798D01*
X0094700Y0089597D01*
X0094700Y0083041D01*
X0094680Y0083022D01*
X0083354Y0083022D01*
X0083600Y0083615D01*
X0083600Y0084729D01*
X0083174Y0085758D01*
X0082860Y0086072D01*
X0082940Y0086072D01*
X0083214Y0085798D01*
X0084243Y0085372D01*
X0085357Y0085372D01*
X0086386Y0085798D01*
X0087174Y0086586D01*
X0087600Y0087615D01*
X0087600Y0088729D01*
X0087174Y0089758D01*
X0086386Y0090545D01*
X0085357Y0090972D01*
X0084243Y0090972D01*
X0083214Y0090545D01*
X0082940Y0090272D01*
X0078660Y0090272D01*
X0078386Y0090545D01*
X0077357Y0090972D01*
X0076970Y0090972D01*
X0076670Y0091272D01*
X0074337Y0091272D01*
X0074337Y0091606D01*
X0073400Y0092543D01*
X0069318Y0092543D01*
X0068800Y0092025D01*
X0068282Y0092543D01*
X0064200Y0092543D01*
X0063263Y0091606D01*
X0063263Y0086737D01*
X0063329Y0086672D01*
X0063263Y0086606D01*
X0063263Y0086272D01*
X0059508Y0086272D01*
X0058726Y0087054D01*
X0057476Y0087572D01*
X0056124Y0087572D01*
X0056109Y0087565D01*
X0056109Y0087921D01*
X0055171Y0088858D01*
X0049909Y0088858D01*
X0048972Y0087921D01*
X0048972Y0081084D01*
X0049859Y0080197D01*
X0047741Y0080197D01*
X0048467Y0080923D02*
X0049133Y0080923D01*
X0048972Y0082521D02*
X0048628Y0082521D01*
X0048628Y0084120D02*
X0048972Y0084120D01*
X0048972Y0085718D02*
X0048628Y0085718D01*
X0048628Y0087317D02*
X0048972Y0087317D01*
X0047160Y0088915D02*
X0063263Y0088915D01*
X0063263Y0087317D02*
X0058092Y0087317D01*
X0063263Y0090514D02*
X0047160Y0090514D01*
X0047160Y0092112D02*
X0063769Y0092112D01*
X0068713Y0092112D02*
X0068887Y0092112D01*
X0073831Y0092112D02*
X0093000Y0092112D01*
X0093407Y0093711D02*
X0047160Y0093711D01*
X0047160Y0095309D02*
X0096240Y0095309D01*
X0100860Y0096072D02*
X0106225Y0096072D01*
X0106426Y0095586D01*
X0106835Y0095177D01*
X0103930Y0092272D01*
X0102700Y0091041D01*
X0102700Y0065538D01*
X0101798Y0065165D01*
X0100307Y0063674D01*
X0100097Y0063167D01*
X0099897Y0063783D01*
X0099504Y0064554D01*
X0098995Y0065255D01*
X0098383Y0065867D01*
X0097683Y0066376D01*
X0096911Y0066769D01*
X0096088Y0067036D01*
X0095233Y0067172D01*
X0095000Y0067172D01*
X0095000Y0061872D01*
X0094600Y0061872D01*
X0094600Y0067172D01*
X0094367Y0067172D01*
X0093512Y0067036D01*
X0092689Y0066769D01*
X0091917Y0066376D01*
X0091217Y0065867D01*
X0090605Y0065255D01*
X0090096Y0064554D01*
X0089703Y0063783D01*
X0089435Y0062960D01*
X0089300Y0062105D01*
X0089300Y0061872D01*
X0094600Y0061872D01*
X0094600Y0061472D01*
X0089300Y0061472D01*
X0089300Y0061239D01*
X0089435Y0060384D01*
X0089703Y0059560D01*
X0090096Y0058789D01*
X0090605Y0058089D01*
X0091217Y0057476D01*
X0091917Y0056968D01*
X0092498Y0056672D01*
X0091917Y0056376D01*
X0091217Y0055867D01*
X0090605Y0055255D01*
X0090096Y0054554D01*
X0089703Y0053783D01*
X0089435Y0052960D01*
X0089300Y0052105D01*
X0089300Y0051872D01*
X0094600Y0051872D01*
X0094600Y0061472D01*
X0095000Y0061472D01*
X0095000Y0056172D01*
X0095000Y0051872D01*
X0094600Y0051872D01*
X0094600Y0051472D01*
X0089300Y0051472D01*
X0089300Y0051239D01*
X0089435Y0050384D01*
X0089703Y0049560D01*
X0090096Y0048789D01*
X0090605Y0048089D01*
X0091217Y0047476D01*
X0091917Y0046968D01*
X0092498Y0046672D01*
X0091917Y0046376D01*
X0091217Y0045867D01*
X0090605Y0045255D01*
X0090096Y0044554D01*
X0089703Y0043783D01*
X0089435Y0042960D01*
X0089300Y0042105D01*
X0089300Y0041872D01*
X0094600Y0041872D01*
X0094600Y0051472D01*
X0095000Y0051472D01*
X0095000Y0046172D01*
X0095000Y0041872D01*
X0094600Y0041872D01*
X0094600Y0041472D01*
X0089300Y0041472D01*
X0089300Y0041239D01*
X0089435Y0040384D01*
X0089703Y0039560D01*
X0090096Y0038789D01*
X0090605Y0038089D01*
X0091217Y0037476D01*
X0091912Y0036972D01*
X0085345Y0036972D01*
X0086293Y0037919D01*
X0087100Y0039867D01*
X0087100Y0041976D01*
X0086293Y0043924D01*
X0084802Y0045415D01*
X0083578Y0045922D01*
X0084802Y0046429D01*
X0086293Y0047919D01*
X0087100Y0049867D01*
X0087100Y0051976D01*
X0086293Y0053924D01*
X0084802Y0055415D01*
X0083578Y0055922D01*
X0084802Y0056429D01*
X0086293Y0057919D01*
X0087100Y0059867D01*
X0087100Y0061976D01*
X0086293Y0063924D01*
X0084802Y0065415D01*
X0082854Y0066222D01*
X0080746Y0066222D01*
X0078798Y0065415D01*
X0077307Y0063924D01*
X0077007Y0063200D01*
X0076726Y0063878D01*
X0081670Y0068822D01*
X0082900Y0070052D01*
X0082900Y0074312D01*
X0083174Y0074586D01*
X0083600Y0075615D01*
X0083600Y0076729D01*
X0083561Y0076822D01*
X0097670Y0076822D01*
X0100900Y0080052D01*
X0100900Y0092312D01*
X0101174Y0092586D01*
X0101600Y0093615D01*
X0101600Y0094729D01*
X0101174Y0095758D01*
X0100860Y0096072D01*
X0101360Y0095309D02*
X0106703Y0095309D01*
X0105369Y0093711D02*
X0101600Y0093711D01*
X0100900Y0092112D02*
X0103771Y0092112D01*
X0102700Y0090514D02*
X0100900Y0090514D01*
X0100900Y0088915D02*
X0102700Y0088915D01*
X0102700Y0087317D02*
X0100900Y0087317D01*
X0100900Y0085718D02*
X0102700Y0085718D01*
X0102700Y0084120D02*
X0100900Y0084120D01*
X0100900Y0082521D02*
X0102700Y0082521D01*
X0102700Y0080923D02*
X0100900Y0080923D01*
X0100172Y0079324D02*
X0102700Y0079324D01*
X0102700Y0077726D02*
X0098574Y0077726D01*
X0102700Y0076127D02*
X0083600Y0076127D01*
X0083117Y0074528D02*
X0102700Y0074528D01*
X0102700Y0072930D02*
X0082900Y0072930D01*
X0082900Y0071331D02*
X0102700Y0071331D01*
X0102700Y0069733D02*
X0082581Y0069733D01*
X0080983Y0068134D02*
X0102700Y0068134D01*
X0102700Y0066536D02*
X0097368Y0066536D01*
X0095000Y0066536D02*
X0094600Y0066536D01*
X0094600Y0064937D02*
X0095000Y0064937D01*
X0095000Y0063339D02*
X0094600Y0063339D01*
X0094600Y0061740D02*
X0087100Y0061740D01*
X0087100Y0060142D02*
X0089514Y0060142D01*
X0090274Y0058543D02*
X0086552Y0058543D01*
X0085319Y0056945D02*
X0091962Y0056945D01*
X0090697Y0055346D02*
X0084871Y0055346D01*
X0086366Y0053748D02*
X0089692Y0053748D01*
X0089307Y0052149D02*
X0087028Y0052149D01*
X0087100Y0050551D02*
X0089409Y0050551D01*
X0090013Y0048952D02*
X0086721Y0048952D01*
X0085727Y0047354D02*
X0091386Y0047354D01*
X0091105Y0045755D02*
X0083980Y0045755D01*
X0086060Y0044157D02*
X0089893Y0044157D01*
X0089372Y0042558D02*
X0086859Y0042558D01*
X0087100Y0040960D02*
X0089344Y0040960D01*
X0089804Y0039361D02*
X0086890Y0039361D01*
X0086136Y0037763D02*
X0090931Y0037763D01*
X0094600Y0042558D02*
X0095000Y0042558D01*
X0095000Y0044157D02*
X0094600Y0044157D01*
X0094600Y0045755D02*
X0095000Y0045755D01*
X0095000Y0047354D02*
X0094600Y0047354D01*
X0094600Y0048952D02*
X0095000Y0048952D01*
X0095000Y0050551D02*
X0094600Y0050551D01*
X0094600Y0052149D02*
X0095000Y0052149D01*
X0095000Y0053748D02*
X0094600Y0053748D01*
X0094600Y0055346D02*
X0095000Y0055346D01*
X0095000Y0056945D02*
X0094600Y0056945D01*
X0094600Y0058543D02*
X0095000Y0058543D01*
X0095000Y0060142D02*
X0094600Y0060142D01*
X0100041Y0063339D02*
X0100168Y0063339D01*
X0099226Y0064937D02*
X0101570Y0064937D01*
X0106900Y0065538D02*
X0106900Y0089302D01*
X0108670Y0091072D01*
X0112940Y0091072D01*
X0113214Y0090798D01*
X0114243Y0090372D01*
X0115357Y0090372D01*
X0115700Y0090514D01*
X0115700Y0066972D01*
X0113746Y0066972D01*
X0111798Y0066165D01*
X0110307Y0064674D01*
X0109593Y0062950D01*
X0109293Y0063674D01*
X0107802Y0065165D01*
X0106900Y0065538D01*
X0106900Y0066536D02*
X0112694Y0066536D01*
X0110570Y0064937D02*
X0108030Y0064937D01*
X0109432Y0063339D02*
X0109754Y0063339D01*
X0106900Y0068134D02*
X0115700Y0068134D01*
X0115700Y0069733D02*
X0106900Y0069733D01*
X0106900Y0071331D02*
X0115700Y0071331D01*
X0115700Y0072930D02*
X0106900Y0072930D01*
X0106900Y0074528D02*
X0115700Y0074528D01*
X0115700Y0076127D02*
X0106900Y0076127D01*
X0106900Y0077726D02*
X0115700Y0077726D01*
X0115700Y0079324D02*
X0106900Y0079324D01*
X0106900Y0080923D02*
X0115700Y0080923D01*
X0115700Y0082521D02*
X0106900Y0082521D01*
X0106900Y0084120D02*
X0115700Y0084120D01*
X0115700Y0085718D02*
X0106900Y0085718D01*
X0106900Y0087317D02*
X0115700Y0087317D01*
X0115700Y0088915D02*
X0106900Y0088915D01*
X0108112Y0090514D02*
X0113900Y0090514D01*
X0115700Y0090514D02*
X0115700Y0090514D01*
X0119900Y0090514D02*
X0124700Y0090514D01*
X0124700Y0092112D02*
X0119900Y0092112D01*
X0120226Y0093711D02*
X0124000Y0093711D01*
X0124240Y0095309D02*
X0120600Y0095309D01*
X0120024Y0096908D02*
X0126089Y0096908D01*
X0127511Y0096908D02*
X0133094Y0096908D01*
X0134693Y0095309D02*
X0129360Y0095309D01*
X0129600Y0093711D02*
X0150407Y0093711D01*
X0150426Y0093758D02*
X0150101Y0092972D01*
X0149243Y0092972D01*
X0148214Y0092545D01*
X0147426Y0091758D01*
X0147000Y0090729D01*
X0147000Y0089615D01*
X0147426Y0088586D01*
X0148214Y0087798D01*
X0149243Y0087372D01*
X0150357Y0087372D01*
X0150550Y0087452D01*
X0150930Y0087072D01*
X0185670Y0087072D01*
X0193670Y0095072D01*
X0194900Y0096302D01*
X0194900Y0163302D01*
X0198670Y0167072D01*
X0207670Y0167072D01*
X0208670Y0168072D01*
X0283930Y0168072D01*
X0284450Y0167552D01*
X0284450Y0167531D01*
X0283926Y0167008D01*
X0283500Y0165979D01*
X0283500Y0164865D01*
X0283926Y0163836D01*
X0284714Y0163048D01*
X0285743Y0162622D01*
X0286857Y0162622D01*
X0287886Y0163048D01*
X0288674Y0163836D01*
X0289100Y0164865D01*
X0289100Y0165979D01*
X0288674Y0167008D01*
X0288650Y0167031D01*
X0288650Y0169291D01*
X0287420Y0170522D01*
X0287420Y0170522D01*
X0286900Y0171041D01*
X0285670Y0172272D01*
X0266458Y0172272D01*
X0266600Y0172615D01*
X0266600Y0173729D01*
X0266174Y0174758D01*
X0265386Y0175545D01*
X0264357Y0175972D01*
X0263499Y0175972D01*
X0263174Y0176758D01*
X0262386Y0177545D01*
X0261357Y0177972D01*
X0260499Y0177972D01*
X0260174Y0178758D01*
X0259386Y0179545D01*
X0258357Y0179972D01*
X0257499Y0179972D01*
X0257174Y0180758D01*
X0256386Y0181545D01*
X0255357Y0181972D01*
X0254499Y0181972D01*
X0254174Y0182758D01*
X0253386Y0183545D01*
X0252357Y0183972D01*
X0251243Y0183972D01*
X0250214Y0183545D01*
X0249426Y0182758D01*
X0249225Y0182272D01*
X0205670Y0182272D01*
X0204670Y0183272D01*
X0200930Y0183272D01*
X0199430Y0181772D01*
X0186430Y0181772D01*
X0180700Y0176041D01*
X0180700Y0134041D01*
X0165930Y0119272D01*
X0152930Y0119272D01*
X0152550Y0118892D01*
X0152357Y0118972D01*
X0151243Y0118972D01*
X0150214Y0118545D01*
X0149426Y0117758D01*
X0149000Y0116729D01*
X0149000Y0115615D01*
X0149426Y0114586D01*
X0150214Y0113798D01*
X0151243Y0113372D01*
X0152101Y0113372D01*
X0152426Y0112586D01*
X0153214Y0111798D01*
X0154243Y0111372D01*
X0155101Y0111372D01*
X0155426Y0110586D01*
X0156214Y0109798D01*
X0157243Y0109372D01*
X0158357Y0109372D01*
X0159386Y0109798D01*
X0160174Y0110586D01*
X0160375Y0111072D01*
X0169670Y0111072D01*
X0186700Y0128102D01*
X0186700Y0100041D01*
X0181930Y0095272D01*
X0158670Y0095272D01*
X0157670Y0096272D01*
X0157660Y0096272D01*
X0157386Y0096545D01*
X0156357Y0096972D01*
X0155243Y0096972D01*
X0154214Y0096545D01*
X0153426Y0095758D01*
X0153101Y0094972D01*
X0152243Y0094972D01*
X0151214Y0094545D01*
X0150426Y0093758D01*
X0147781Y0092112D02*
X0128900Y0092112D01*
X0128900Y0090514D02*
X0147000Y0090514D01*
X0147290Y0088915D02*
X0128900Y0088915D01*
X0128900Y0087317D02*
X0150685Y0087317D01*
X0157604Y0082521D02*
X0128900Y0082521D01*
X0128900Y0080923D02*
X0156648Y0080923D01*
X0156280Y0079324D02*
X0128900Y0079324D01*
X0128900Y0077726D02*
X0129399Y0077726D01*
X0131701Y0077726D02*
X0133399Y0077726D01*
X0135701Y0077726D02*
X0137399Y0077726D01*
X0139701Y0077726D02*
X0156401Y0077726D01*
X0157030Y0076127D02*
X0141185Y0076127D01*
X0146413Y0074528D02*
X0158467Y0074528D01*
X0161596Y0074528D02*
X0161965Y0074528D01*
X0161965Y0076127D02*
X0161596Y0076127D01*
X0161596Y0077726D02*
X0161965Y0077726D01*
X0161965Y0079324D02*
X0161596Y0079324D01*
X0161596Y0080923D02*
X0161965Y0080923D01*
X0161965Y0082521D02*
X0161596Y0082521D01*
X0161596Y0084120D02*
X0161965Y0084120D01*
X0163575Y0084120D02*
X0169986Y0084120D01*
X0171596Y0084120D02*
X0171965Y0084120D01*
X0171965Y0082521D02*
X0171596Y0082521D01*
X0171596Y0080923D02*
X0171965Y0080923D01*
X0171965Y0079324D02*
X0171596Y0079324D01*
X0171596Y0077726D02*
X0171965Y0077726D01*
X0171965Y0076127D02*
X0171596Y0076127D01*
X0171596Y0074528D02*
X0171965Y0074528D01*
X0173295Y0072930D02*
X0170265Y0072930D01*
X0171518Y0071331D02*
X0172043Y0071331D01*
X0175093Y0074528D02*
X0178676Y0074528D01*
X0177200Y0076127D02*
X0176530Y0076127D01*
X0180265Y0072930D02*
X0180921Y0072930D01*
X0181518Y0071331D02*
X0182043Y0071331D01*
X0181780Y0075172D02*
X0186550Y0075172D01*
X0191050Y0073172D01*
X0191800Y0073172D01*
X0218800Y0046172D01*
X0228800Y0046172D01*
X0230800Y0044172D01*
X0230800Y0040472D01*
X0230500Y0040172D01*
X0232610Y0045755D02*
X0234000Y0045755D01*
X0234000Y0047354D02*
X0231012Y0047354D01*
X0234000Y0048952D02*
X0219413Y0048952D01*
X0217815Y0050551D02*
X0234000Y0050551D01*
X0234000Y0052149D02*
X0216216Y0052149D01*
X0214618Y0053748D02*
X0234000Y0053748D01*
X0234000Y0055346D02*
X0227783Y0055346D01*
X0223817Y0055346D02*
X0213019Y0055346D01*
X0211421Y0056945D02*
X0222628Y0056945D01*
X0222400Y0058543D02*
X0209822Y0058543D01*
X0208224Y0060142D02*
X0222962Y0060142D01*
X0237790Y0060142D02*
X0329961Y0060142D01*
X0329961Y0061740D02*
X0206625Y0061740D01*
X0205027Y0063339D02*
X0237824Y0063339D01*
X0239263Y0058543D02*
X0329961Y0058543D01*
X0329961Y0056945D02*
X0239600Y0056945D01*
X0239600Y0055346D02*
X0329961Y0055346D01*
X0329961Y0053748D02*
X0239600Y0053748D01*
X0239600Y0052149D02*
X0329961Y0052149D01*
X0329961Y0050551D02*
X0239600Y0050551D01*
X0239600Y0048952D02*
X0329961Y0048952D01*
X0329961Y0047354D02*
X0323318Y0047354D01*
X0324537Y0046849D02*
X0321561Y0048082D01*
X0318339Y0048082D01*
X0315362Y0046849D01*
X0313083Y0044571D01*
X0311850Y0041594D01*
X0311850Y0038372D01*
X0313083Y0035395D01*
X0315362Y0033116D01*
X0318339Y0031883D01*
X0321561Y0031883D01*
X0324537Y0033116D01*
X0326816Y0035395D01*
X0328049Y0038372D01*
X0328049Y0041594D01*
X0326816Y0044571D01*
X0324537Y0046849D01*
X0325631Y0045755D02*
X0329961Y0045755D01*
X0329961Y0044157D02*
X0326987Y0044157D01*
X0327649Y0042558D02*
X0329961Y0042558D01*
X0329961Y0040960D02*
X0328049Y0040960D01*
X0328049Y0039361D02*
X0329961Y0039361D01*
X0329961Y0037763D02*
X0327797Y0037763D01*
X0327134Y0036164D02*
X0329961Y0036164D01*
X0329961Y0034566D02*
X0325987Y0034566D01*
X0324177Y0032967D02*
X0329961Y0032967D01*
X0329961Y0031369D02*
X0018600Y0031369D01*
X0063900Y0065788D02*
X0063900Y0073302D01*
X0064670Y0074072D01*
X0072940Y0074072D01*
X0073214Y0073798D01*
X0074243Y0073372D01*
X0075357Y0073372D01*
X0076386Y0073798D01*
X0077174Y0074586D01*
X0077600Y0075615D01*
X0077600Y0076729D01*
X0077561Y0076822D01*
X0078039Y0076822D01*
X0078000Y0076729D01*
X0078000Y0075615D01*
X0078426Y0074586D01*
X0078700Y0074312D01*
X0078700Y0071791D01*
X0073756Y0066848D01*
X0072854Y0067222D01*
X0070746Y0067222D01*
X0068798Y0066415D01*
X0067307Y0064924D01*
X0066593Y0063200D01*
X0066293Y0063924D01*
X0064802Y0065415D01*
X0063900Y0065788D01*
X0063900Y0066536D02*
X0069090Y0066536D01*
X0067320Y0064937D02*
X0065280Y0064937D01*
X0066535Y0063339D02*
X0066650Y0063339D01*
X0063900Y0068134D02*
X0075043Y0068134D01*
X0076641Y0069733D02*
X0063900Y0069733D01*
X0063900Y0071331D02*
X0078240Y0071331D01*
X0078700Y0072930D02*
X0063900Y0072930D01*
X0077117Y0074528D02*
X0078483Y0074528D01*
X0078000Y0076127D02*
X0077600Y0076127D01*
X0079384Y0066536D02*
X0092232Y0066536D01*
X0090374Y0064937D02*
X0085280Y0064937D01*
X0086535Y0063339D02*
X0089559Y0063339D01*
X0078320Y0064937D02*
X0077786Y0064937D01*
X0077065Y0063339D02*
X0076950Y0063339D01*
X0083600Y0084120D02*
X0094700Y0084120D01*
X0094700Y0085718D02*
X0086193Y0085718D01*
X0087477Y0087317D02*
X0094700Y0087317D01*
X0094700Y0088915D02*
X0087523Y0088915D01*
X0086418Y0090514D02*
X0093498Y0090514D01*
X0083182Y0090514D02*
X0078418Y0090514D01*
X0083190Y0085718D02*
X0083407Y0085718D01*
X0093600Y0103302D02*
X0186700Y0103302D01*
X0186700Y0104900D02*
X0097304Y0104900D01*
X0098097Y0106499D02*
X0186700Y0106499D01*
X0186700Y0108097D02*
X0099695Y0108097D01*
X0101294Y0109696D02*
X0156461Y0109696D01*
X0155133Y0111294D02*
X0102892Y0111294D01*
X0104606Y0112893D02*
X0152299Y0112893D01*
X0149521Y0114491D02*
X0104853Y0114491D01*
X0105099Y0116090D02*
X0149000Y0116090D01*
X0149398Y0117688D02*
X0105346Y0117688D01*
X0111313Y0119287D02*
X0165945Y0119287D01*
X0167544Y0120885D02*
X0111313Y0120885D01*
X0111313Y0122484D02*
X0169142Y0122484D01*
X0170741Y0124082D02*
X0111313Y0124082D01*
X0111313Y0125681D02*
X0120497Y0125681D01*
X0123103Y0125681D02*
X0172339Y0125681D01*
X0173938Y0127279D02*
X0124461Y0127279D01*
X0124538Y0128878D02*
X0175536Y0128878D01*
X0177135Y0130476D02*
X0123900Y0130476D01*
X0123900Y0132075D02*
X0178733Y0132075D01*
X0180332Y0133673D02*
X0123900Y0133673D01*
X0123900Y0135272D02*
X0180700Y0135272D01*
X0180700Y0136870D02*
X0123900Y0136870D01*
X0123900Y0138469D02*
X0180700Y0138469D01*
X0180700Y0140067D02*
X0123900Y0140067D01*
X0123900Y0141666D02*
X0180700Y0141666D01*
X0180700Y0143264D02*
X0123900Y0143264D01*
X0123900Y0144863D02*
X0180700Y0144863D01*
X0180700Y0146461D02*
X0123900Y0146461D01*
X0123900Y0148060D02*
X0180700Y0148060D01*
X0180700Y0149659D02*
X0123900Y0149659D01*
X0123900Y0151257D02*
X0180700Y0151257D01*
X0180700Y0152856D02*
X0123900Y0152856D01*
X0123900Y0154454D02*
X0180700Y0154454D01*
X0180700Y0156053D02*
X0145154Y0156053D01*
X0145726Y0156289D02*
X0146682Y0157246D01*
X0147200Y0158495D01*
X0147200Y0159848D01*
X0146682Y0161098D01*
X0145726Y0162054D01*
X0144476Y0162572D01*
X0143124Y0162572D01*
X0141874Y0162054D01*
X0141792Y0161972D01*
X0131808Y0161972D01*
X0131726Y0162054D01*
X0130476Y0162572D01*
X0129124Y0162572D01*
X0127874Y0162054D01*
X0126918Y0161098D01*
X0126400Y0159848D01*
X0126400Y0158495D01*
X0126918Y0157246D01*
X0127874Y0156289D01*
X0129124Y0155772D01*
X0130476Y0155772D01*
X0131726Y0156289D01*
X0131808Y0156372D01*
X0141792Y0156372D01*
X0141874Y0156289D01*
X0143124Y0155772D01*
X0144476Y0155772D01*
X0145726Y0156289D01*
X0146850Y0157651D02*
X0180700Y0157651D01*
X0180700Y0159250D02*
X0147200Y0159250D01*
X0146786Y0160848D02*
X0180700Y0160848D01*
X0180700Y0162447D02*
X0144778Y0162447D01*
X0142822Y0162447D02*
X0130778Y0162447D01*
X0128822Y0162447D02*
X0123900Y0162447D01*
X0123900Y0164045D02*
X0180700Y0164045D01*
X0180700Y0165644D02*
X0123900Y0165644D01*
X0123900Y0167242D02*
X0180700Y0167242D01*
X0180700Y0168841D02*
X0123900Y0168841D01*
X0123900Y0170439D02*
X0180700Y0170439D01*
X0180700Y0172038D02*
X0123900Y0172038D01*
X0123900Y0173636D02*
X0168683Y0173636D01*
X0168732Y0173616D02*
X0171954Y0173616D01*
X0174931Y0174849D01*
X0177209Y0177127D01*
X0178443Y0180104D01*
X0178443Y0183326D01*
X0177209Y0186303D01*
X0174931Y0188581D01*
X0171954Y0189814D01*
X0168732Y0189814D01*
X0165755Y0188581D01*
X0163477Y0186303D01*
X0162244Y0183326D01*
X0162244Y0180104D01*
X0163477Y0177127D01*
X0165755Y0174849D01*
X0168732Y0173616D01*
X0172004Y0173636D02*
X0180700Y0173636D01*
X0180700Y0175235D02*
X0175317Y0175235D01*
X0176916Y0176833D02*
X0181492Y0176833D01*
X0183090Y0178432D02*
X0177750Y0178432D01*
X0178412Y0180030D02*
X0184689Y0180030D01*
X0186287Y0181629D02*
X0178443Y0181629D01*
X0178443Y0183227D02*
X0200886Y0183227D01*
X0204714Y0183227D02*
X0249896Y0183227D01*
X0253704Y0183227D02*
X0274160Y0183227D01*
X0274040Y0184826D02*
X0177821Y0184826D01*
X0177088Y0186424D02*
X0197693Y0186424D01*
X0197693Y0188023D02*
X0175489Y0188023D01*
X0172420Y0189621D02*
X0197693Y0189621D01*
X0197693Y0191220D02*
X0123900Y0191220D01*
X0123900Y0192818D02*
X0197693Y0192818D01*
X0197693Y0194417D02*
X0123025Y0194417D01*
X0123100Y0196015D02*
X0197693Y0196015D01*
X0197693Y0197614D02*
X0123100Y0197614D01*
X0122484Y0199212D02*
X0197693Y0199212D01*
X0197693Y0200811D02*
X0121156Y0200811D01*
X0121033Y0202409D02*
X0134655Y0202409D01*
X0134746Y0202372D02*
X0136854Y0202372D01*
X0138802Y0203179D01*
X0140293Y0204669D01*
X0141007Y0206393D01*
X0141307Y0205669D01*
X0142798Y0204179D01*
X0144746Y0203372D01*
X0146854Y0203372D01*
X0148802Y0204179D01*
X0150293Y0205669D01*
X0150503Y0206176D01*
X0150703Y0205560D01*
X0151096Y0204789D01*
X0151605Y0204089D01*
X0152217Y0203476D01*
X0152917Y0202968D01*
X0153689Y0202575D01*
X0154512Y0202307D01*
X0155367Y0202172D01*
X0155600Y0202172D01*
X0155600Y0207472D01*
X0156000Y0207472D01*
X0156000Y0207872D01*
X0155600Y0207872D01*
X0155600Y0213172D01*
X0155367Y0213172D01*
X0154512Y0213036D01*
X0153689Y0212769D01*
X0152917Y0212376D01*
X0152217Y0211867D01*
X0151605Y0211255D01*
X0151096Y0210554D01*
X0150909Y0210187D01*
X0150293Y0211674D01*
X0148802Y0213165D01*
X0146854Y0213972D01*
X0144746Y0213972D01*
X0142798Y0213165D01*
X0141307Y0211674D01*
X0140593Y0209950D01*
X0140293Y0210674D01*
X0138802Y0212165D01*
X0136854Y0212972D01*
X0134746Y0212972D01*
X0132798Y0212165D01*
X0131307Y0210674D01*
X0130500Y0208726D01*
X0130500Y0206617D01*
X0131307Y0204669D01*
X0132798Y0203179D01*
X0134746Y0202372D01*
X0136945Y0202409D02*
X0154197Y0202409D01*
X0155600Y0202409D02*
X0156000Y0202409D01*
X0156000Y0202172D02*
X0156233Y0202172D01*
X0157088Y0202307D01*
X0157911Y0202575D01*
X0158683Y0202968D01*
X0159383Y0203476D01*
X0159995Y0204089D01*
X0160504Y0204789D01*
X0160897Y0205560D01*
X0161165Y0206384D01*
X0161300Y0207239D01*
X0161300Y0207472D01*
X0156000Y0207472D01*
X0156000Y0202172D01*
X0157403Y0202409D02*
X0197693Y0202409D01*
X0197693Y0204008D02*
X0159914Y0204008D01*
X0160912Y0205606D02*
X0197693Y0205606D01*
X0197693Y0207205D02*
X0161295Y0207205D01*
X0161300Y0207872D02*
X0161300Y0208105D01*
X0161165Y0208960D01*
X0160897Y0209783D01*
X0160504Y0210554D01*
X0159995Y0211255D01*
X0159383Y0211867D01*
X0158683Y0212376D01*
X0157911Y0212769D01*
X0157088Y0213036D01*
X0156233Y0213172D01*
X0156000Y0213172D01*
X0156000Y0207872D01*
X0161300Y0207872D01*
X0161189Y0208803D02*
X0197693Y0208803D01*
X0197693Y0210402D02*
X0160582Y0210402D01*
X0159199Y0212000D02*
X0197693Y0212000D01*
X0197693Y0213599D02*
X0147754Y0213599D01*
X0149967Y0212000D02*
X0152401Y0212000D01*
X0151018Y0210402D02*
X0150820Y0210402D01*
X0155600Y0210402D02*
X0156000Y0210402D01*
X0156000Y0212000D02*
X0155600Y0212000D01*
X0155600Y0208803D02*
X0156000Y0208803D01*
X0156000Y0207205D02*
X0155600Y0207205D01*
X0155600Y0205606D02*
X0156000Y0205606D01*
X0156000Y0204008D02*
X0155600Y0204008D01*
X0151686Y0204008D02*
X0148390Y0204008D01*
X0150230Y0205606D02*
X0150688Y0205606D01*
X0143210Y0204008D02*
X0139632Y0204008D01*
X0140681Y0205606D02*
X0141370Y0205606D01*
X0140780Y0210402D02*
X0140406Y0210402D01*
X0141633Y0212000D02*
X0138967Y0212000D01*
X0143846Y0213599D02*
X0122366Y0213599D01*
X0123104Y0215197D02*
X0197693Y0215197D01*
X0197693Y0216796D02*
X0118000Y0216796D01*
X0118000Y0218395D02*
X0117600Y0218395D01*
X0117600Y0219993D02*
X0118000Y0219993D01*
X0118000Y0221592D02*
X0117600Y0221592D01*
X0115341Y0221592D02*
X0111658Y0221592D01*
X0112790Y0219993D02*
X0113415Y0219993D01*
X0108000Y0219993D02*
X0107600Y0219993D01*
X0107600Y0218395D02*
X0108000Y0218395D01*
X0102810Y0219993D02*
X0102185Y0219993D01*
X0103942Y0221592D02*
X0100259Y0221592D01*
X0098000Y0221592D02*
X0097600Y0221592D01*
X0097600Y0219993D02*
X0098000Y0219993D01*
X0098000Y0218395D02*
X0097600Y0218395D01*
X0093415Y0219993D02*
X0092790Y0219993D01*
X0091658Y0221592D02*
X0095341Y0221592D01*
X0088000Y0221592D02*
X0087600Y0221592D01*
X0087600Y0219993D02*
X0088000Y0219993D01*
X0088000Y0218395D02*
X0087600Y0218395D01*
X0083942Y0221592D02*
X0080259Y0221592D01*
X0078000Y0221592D02*
X0077600Y0221592D01*
X0077600Y0219993D02*
X0078000Y0219993D01*
X0078000Y0218395D02*
X0077600Y0218395D01*
X0082185Y0219993D02*
X0082810Y0219993D01*
X0075341Y0221592D02*
X0071658Y0221592D01*
X0072790Y0219993D02*
X0073415Y0219993D01*
X0068000Y0219993D02*
X0067600Y0219993D01*
X0067600Y0218395D02*
X0068000Y0218395D01*
X0068000Y0221592D02*
X0067600Y0221592D01*
X0063942Y0221592D02*
X0060259Y0221592D01*
X0058000Y0221592D02*
X0057600Y0221592D01*
X0057600Y0219993D02*
X0058000Y0219993D01*
X0058000Y0218395D02*
X0057600Y0218395D01*
X0053415Y0219993D02*
X0052790Y0219993D01*
X0051658Y0221592D02*
X0055341Y0221592D01*
X0062185Y0219993D02*
X0062810Y0219993D01*
X0048000Y0219993D02*
X0047600Y0219993D01*
X0047600Y0218395D02*
X0048000Y0218395D01*
X0042810Y0219993D02*
X0042185Y0219993D01*
X0043942Y0221592D02*
X0040259Y0221592D01*
X0038000Y0221592D02*
X0037600Y0221592D01*
X0037600Y0219993D02*
X0038000Y0219993D01*
X0038000Y0218395D02*
X0037600Y0218395D01*
X0033415Y0219993D02*
X0032790Y0219993D01*
X0031658Y0221592D02*
X0035341Y0221592D01*
X0028000Y0221592D02*
X0027600Y0221592D01*
X0027600Y0219993D02*
X0028000Y0219993D01*
X0028000Y0218395D02*
X0027600Y0218395D01*
X0022810Y0219993D02*
X0018600Y0219993D01*
X0018600Y0218395D02*
X0022346Y0218395D01*
X0022370Y0216796D02*
X0018600Y0216796D01*
X0018600Y0215197D02*
X0022888Y0215197D01*
X0024095Y0213599D02*
X0018600Y0213599D01*
X0018600Y0212000D02*
X0024633Y0212000D01*
X0023194Y0210402D02*
X0018600Y0210402D01*
X0018600Y0208803D02*
X0022532Y0208803D01*
X0022500Y0207205D02*
X0018600Y0207205D01*
X0018600Y0205606D02*
X0022919Y0205606D01*
X0023968Y0204008D02*
X0018600Y0204008D01*
X0018600Y0202409D02*
X0025388Y0202409D01*
X0023444Y0200811D02*
X0018600Y0200811D01*
X0018600Y0199212D02*
X0022702Y0199212D01*
X0022500Y0197614D02*
X0018600Y0197614D01*
X0018600Y0196015D02*
X0022749Y0196015D01*
X0023559Y0194417D02*
X0018600Y0194417D01*
X0018600Y0192818D02*
X0025667Y0192818D01*
X0029933Y0192818D02*
X0034158Y0192818D01*
X0032997Y0194417D02*
X0032041Y0194417D01*
X0036700Y0191220D02*
X0018600Y0191220D01*
X0018600Y0189621D02*
X0036700Y0189621D01*
X0036700Y0188023D02*
X0018600Y0188023D01*
X0018600Y0186424D02*
X0036700Y0186424D01*
X0036700Y0184826D02*
X0018600Y0184826D01*
X0018600Y0183227D02*
X0036700Y0183227D01*
X0036700Y0181629D02*
X0018600Y0181629D01*
X0018600Y0180030D02*
X0036700Y0180030D01*
X0036700Y0178432D02*
X0018600Y0178432D01*
X0018600Y0176833D02*
X0036700Y0176833D01*
X0036700Y0175235D02*
X0018600Y0175235D01*
X0018600Y0173636D02*
X0024269Y0173636D01*
X0022750Y0172038D02*
X0018600Y0172038D01*
X0018600Y0170439D02*
X0022088Y0170439D01*
X0022000Y0168841D02*
X0018600Y0168841D01*
X0018600Y0167242D02*
X0022363Y0167242D01*
X0023333Y0165644D02*
X0018600Y0165644D01*
X0018600Y0164045D02*
X0025750Y0164045D01*
X0023881Y0162447D02*
X0018600Y0162447D01*
X0018600Y0160848D02*
X0023062Y0160848D01*
X0023011Y0157651D02*
X0018600Y0157651D01*
X0018600Y0156053D02*
X0023768Y0156053D01*
X0025444Y0154454D02*
X0018600Y0154454D01*
X0018600Y0152856D02*
X0023489Y0152856D01*
X0022427Y0151257D02*
X0018600Y0151257D01*
X0018600Y0149659D02*
X0022000Y0149659D01*
X0022024Y0148060D02*
X0018600Y0148060D01*
X0018600Y0146461D02*
X0022686Y0146461D01*
X0024113Y0144863D02*
X0018600Y0144863D01*
X0018600Y0143264D02*
X0024897Y0143264D01*
X0023597Y0141666D02*
X0018600Y0141666D01*
X0018600Y0140067D02*
X0023000Y0140067D01*
X0023000Y0138469D02*
X0018600Y0138469D01*
X0018600Y0136870D02*
X0023517Y0136870D01*
X0024704Y0135272D02*
X0018600Y0135272D01*
X0018600Y0133673D02*
X0024319Y0133673D01*
X0022766Y0132075D02*
X0018600Y0132075D01*
X0018600Y0130476D02*
X0022104Y0130476D01*
X0022000Y0128878D02*
X0018600Y0128878D01*
X0018600Y0127279D02*
X0022347Y0127279D01*
X0023295Y0125681D02*
X0018600Y0125681D01*
X0018600Y0124082D02*
X0025737Y0124082D01*
X0028863Y0124082D02*
X0033919Y0124082D01*
X0032700Y0125681D02*
X0031305Y0125681D01*
X0032253Y0127279D02*
X0032700Y0127279D01*
X0032700Y0128878D02*
X0032600Y0128878D01*
X0032496Y0130476D02*
X0032700Y0130476D01*
X0032700Y0132075D02*
X0031834Y0132075D01*
X0032700Y0133673D02*
X0030281Y0133673D01*
X0031896Y0135272D02*
X0032700Y0135272D01*
X0033167Y0141272D02*
X0032793Y0142174D01*
X0031302Y0143665D01*
X0029578Y0144379D01*
X0030302Y0144679D01*
X0031793Y0146169D01*
X0032167Y0147072D01*
X0034700Y0147072D01*
X0034700Y0141241D01*
X0034670Y0141272D01*
X0033167Y0141272D01*
X0033003Y0141666D02*
X0034700Y0141666D01*
X0034700Y0143264D02*
X0031702Y0143264D01*
X0030487Y0144863D02*
X0034700Y0144863D01*
X0034700Y0146461D02*
X0031914Y0146461D01*
X0036684Y0151257D02*
X0036700Y0151257D01*
X0036700Y0152856D02*
X0031111Y0152856D01*
X0031156Y0154454D02*
X0036700Y0154454D01*
X0036700Y0156053D02*
X0032832Y0156053D01*
X0033589Y0157651D02*
X0036700Y0157651D01*
X0036700Y0159250D02*
X0028500Y0159250D01*
X0028100Y0159250D02*
X0018600Y0159250D01*
X0030850Y0164045D02*
X0036700Y0164045D01*
X0036700Y0162447D02*
X0032719Y0162447D01*
X0033538Y0160848D02*
X0036700Y0160848D01*
X0036700Y0165644D02*
X0031267Y0165644D01*
X0032237Y0167242D02*
X0036700Y0167242D01*
X0036700Y0168841D02*
X0032600Y0168841D01*
X0032512Y0170439D02*
X0036700Y0170439D01*
X0036700Y0172038D02*
X0031850Y0172038D01*
X0030331Y0173636D02*
X0036700Y0173636D01*
X0042900Y0173636D02*
X0045700Y0173636D01*
X0045700Y0172038D02*
X0042900Y0172038D01*
X0042900Y0170439D02*
X0045700Y0170439D01*
X0045700Y0168841D02*
X0042900Y0168841D01*
X0042900Y0167242D02*
X0045700Y0167242D01*
X0045700Y0166031D02*
X0045426Y0165758D01*
X0045000Y0164729D01*
X0045000Y0163615D01*
X0045426Y0162586D01*
X0046214Y0161798D01*
X0047243Y0161372D01*
X0048357Y0161372D01*
X0049386Y0161798D01*
X0050174Y0162586D01*
X0050600Y0163615D01*
X0050600Y0164729D01*
X0050174Y0165758D01*
X0049900Y0166031D01*
X0049900Y0192805D01*
X0050802Y0193179D01*
X0052293Y0194669D01*
X0052593Y0195393D01*
X0053307Y0193669D01*
X0054798Y0192179D01*
X0055700Y0191805D01*
X0055700Y0189302D01*
X0056930Y0188072D01*
X0083000Y0162002D01*
X0083000Y0161615D01*
X0083426Y0160586D01*
X0084214Y0159798D01*
X0085243Y0159372D01*
X0086357Y0159372D01*
X0087386Y0159798D01*
X0088059Y0160471D01*
X0088426Y0159586D01*
X0089214Y0158798D01*
X0090243Y0158372D01*
X0091357Y0158372D01*
X0092386Y0158798D01*
X0093174Y0159586D01*
X0093245Y0159757D01*
X0093700Y0159302D01*
X0093700Y0149302D01*
X0094930Y0148072D01*
X0100093Y0142909D01*
X0099214Y0142545D01*
X0098940Y0142272D01*
X0095930Y0142272D01*
X0094700Y0141041D01*
X0092700Y0139041D01*
X0092700Y0138241D01*
X0091900Y0139041D01*
X0090670Y0140272D01*
X0042900Y0140272D01*
X0042900Y0182597D01*
X0043386Y0182798D01*
X0044174Y0183586D01*
X0044600Y0184615D01*
X0044600Y0185729D01*
X0044174Y0186758D01*
X0043386Y0187545D01*
X0042357Y0187972D01*
X0041243Y0187972D01*
X0040900Y0187830D01*
X0040900Y0192276D01*
X0042293Y0193669D01*
X0043007Y0195393D01*
X0043307Y0194669D01*
X0044798Y0193179D01*
X0045700Y0192805D01*
X0045700Y0166031D01*
X0045379Y0165644D02*
X0042900Y0165644D01*
X0042900Y0164045D02*
X0045000Y0164045D01*
X0045565Y0162447D02*
X0042900Y0162447D01*
X0042900Y0160848D02*
X0083318Y0160848D01*
X0082555Y0162447D02*
X0050035Y0162447D01*
X0050600Y0164045D02*
X0080957Y0164045D01*
X0079358Y0165644D02*
X0050221Y0165644D01*
X0049900Y0167242D02*
X0077760Y0167242D01*
X0076161Y0168841D02*
X0049900Y0168841D01*
X0049900Y0170439D02*
X0074563Y0170439D01*
X0072964Y0172038D02*
X0049900Y0172038D01*
X0049900Y0173636D02*
X0071366Y0173636D01*
X0069767Y0175235D02*
X0049900Y0175235D01*
X0049900Y0176833D02*
X0068169Y0176833D01*
X0066570Y0178432D02*
X0049900Y0178432D01*
X0049900Y0180030D02*
X0064972Y0180030D01*
X0063373Y0181629D02*
X0049900Y0181629D01*
X0049900Y0183227D02*
X0061775Y0183227D01*
X0060176Y0184826D02*
X0049900Y0184826D01*
X0049900Y0186424D02*
X0058578Y0186424D01*
X0056979Y0188023D02*
X0049900Y0188023D01*
X0049900Y0189621D02*
X0055700Y0189621D01*
X0055700Y0191220D02*
X0049900Y0191220D01*
X0049933Y0192818D02*
X0054158Y0192818D01*
X0052997Y0194417D02*
X0052041Y0194417D01*
X0045667Y0192818D02*
X0041442Y0192818D01*
X0040900Y0191220D02*
X0045700Y0191220D01*
X0045700Y0189621D02*
X0040900Y0189621D01*
X0040900Y0188023D02*
X0045700Y0188023D01*
X0045700Y0186424D02*
X0044312Y0186424D01*
X0044600Y0184826D02*
X0045700Y0184826D01*
X0045700Y0183227D02*
X0043815Y0183227D01*
X0042900Y0181629D02*
X0045700Y0181629D01*
X0045700Y0180030D02*
X0042900Y0180030D01*
X0042900Y0178432D02*
X0045700Y0178432D01*
X0045700Y0176833D02*
X0042900Y0176833D01*
X0042900Y0175235D02*
X0045700Y0175235D01*
X0059900Y0191041D02*
X0065700Y0185241D01*
X0065700Y0192805D01*
X0064798Y0193179D01*
X0063307Y0194669D01*
X0063007Y0195393D01*
X0062293Y0193669D01*
X0060802Y0192179D01*
X0059900Y0191805D01*
X0059900Y0191041D01*
X0059900Y0191220D02*
X0065700Y0191220D01*
X0065667Y0192818D02*
X0061442Y0192818D01*
X0062603Y0194417D02*
X0063559Y0194417D01*
X0069900Y0192805D02*
X0070802Y0193179D01*
X0072293Y0194669D01*
X0072593Y0195393D01*
X0073307Y0193669D01*
X0074798Y0192179D01*
X0075700Y0191805D01*
X0075700Y0179241D01*
X0069900Y0185041D01*
X0069900Y0192805D01*
X0069933Y0192818D02*
X0074158Y0192818D01*
X0072997Y0194417D02*
X0072041Y0194417D01*
X0069900Y0191220D02*
X0075700Y0191220D01*
X0075700Y0189621D02*
X0069900Y0189621D01*
X0069900Y0188023D02*
X0075700Y0188023D01*
X0075700Y0186424D02*
X0069900Y0186424D01*
X0070116Y0184826D02*
X0075700Y0184826D01*
X0075700Y0183227D02*
X0071714Y0183227D01*
X0073313Y0181629D02*
X0075700Y0181629D01*
X0075700Y0180030D02*
X0074911Y0180030D01*
X0079900Y0180030D02*
X0085700Y0180030D01*
X0085700Y0178432D02*
X0080510Y0178432D01*
X0079900Y0179041D02*
X0079900Y0191805D01*
X0080802Y0192179D01*
X0082293Y0193669D01*
X0083007Y0195393D01*
X0083307Y0194669D01*
X0084798Y0193179D01*
X0085700Y0192805D01*
X0085700Y0173241D01*
X0079900Y0179041D01*
X0079900Y0181629D02*
X0085700Y0181629D01*
X0085700Y0183227D02*
X0079900Y0183227D01*
X0079900Y0184826D02*
X0085700Y0184826D01*
X0085700Y0186424D02*
X0079900Y0186424D01*
X0079900Y0188023D02*
X0085700Y0188023D01*
X0085700Y0189621D02*
X0079900Y0189621D01*
X0079900Y0191220D02*
X0085700Y0191220D01*
X0085667Y0192818D02*
X0081442Y0192818D01*
X0082603Y0194417D02*
X0083559Y0194417D01*
X0089900Y0192805D02*
X0090802Y0193179D01*
X0092293Y0194669D01*
X0092593Y0195393D01*
X0093307Y0193669D01*
X0094798Y0192179D01*
X0095700Y0191805D01*
X0095700Y0166241D01*
X0089900Y0172041D01*
X0089900Y0192805D01*
X0089933Y0192818D02*
X0094158Y0192818D01*
X0092997Y0194417D02*
X0092041Y0194417D01*
X0089900Y0191220D02*
X0095700Y0191220D01*
X0095700Y0189621D02*
X0089900Y0189621D01*
X0089900Y0188023D02*
X0095700Y0188023D01*
X0095700Y0186424D02*
X0089900Y0186424D01*
X0089900Y0184826D02*
X0095700Y0184826D01*
X0095700Y0183227D02*
X0089900Y0183227D01*
X0089900Y0181629D02*
X0095700Y0181629D01*
X0095700Y0180030D02*
X0089900Y0180030D01*
X0089900Y0178432D02*
X0095700Y0178432D01*
X0095700Y0176833D02*
X0089900Y0176833D01*
X0089900Y0175235D02*
X0095700Y0175235D01*
X0095700Y0173636D02*
X0089900Y0173636D01*
X0089904Y0172038D02*
X0095700Y0172038D01*
X0095700Y0170439D02*
X0091502Y0170439D01*
X0093101Y0168841D02*
X0095700Y0168841D01*
X0095700Y0167242D02*
X0094699Y0167242D01*
X0099900Y0167242D02*
X0116700Y0167242D01*
X0116700Y0165644D02*
X0099900Y0165644D01*
X0100896Y0164045D02*
X0116700Y0164045D01*
X0116700Y0162447D02*
X0101900Y0162447D01*
X0101900Y0160848D02*
X0116700Y0160848D01*
X0116700Y0159250D02*
X0101900Y0159250D01*
X0101900Y0157651D02*
X0116700Y0157651D01*
X0116700Y0156053D02*
X0101900Y0156053D01*
X0101900Y0154454D02*
X0116700Y0154454D01*
X0116700Y0152856D02*
X0102086Y0152856D01*
X0103684Y0151257D02*
X0116700Y0151257D01*
X0116700Y0149659D02*
X0105283Y0149659D01*
X0106881Y0148060D02*
X0116700Y0148060D01*
X0116700Y0146461D02*
X0108480Y0146461D01*
X0110079Y0144863D02*
X0116700Y0144863D01*
X0116700Y0143264D02*
X0111677Y0143264D01*
X0113215Y0141666D02*
X0116700Y0141666D01*
X0116700Y0140067D02*
X0113215Y0140067D01*
X0113215Y0138469D02*
X0116700Y0138469D01*
X0116700Y0136870D02*
X0113726Y0136870D01*
X0113903Y0135272D02*
X0116700Y0135272D01*
X0116700Y0133673D02*
X0112891Y0133673D01*
X0111313Y0132075D02*
X0116700Y0132075D01*
X0116220Y0130476D02*
X0111313Y0130476D01*
X0111313Y0128878D02*
X0116434Y0128878D01*
X0118154Y0127279D02*
X0111313Y0127279D01*
X0106994Y0135272D02*
X0096900Y0135272D01*
X0096900Y0136870D02*
X0105511Y0136870D01*
X0097877Y0133673D02*
X0096900Y0133673D01*
X0096900Y0132075D02*
X0097877Y0132075D01*
X0097877Y0130476D02*
X0096900Y0130476D01*
X0096900Y0128878D02*
X0097877Y0128878D01*
X0097877Y0127279D02*
X0096878Y0127279D01*
X0097877Y0125681D02*
X0095279Y0125681D01*
X0093681Y0124082D02*
X0097877Y0124082D01*
X0097877Y0122484D02*
X0092082Y0122484D01*
X0097877Y0120885D02*
X0076554Y0120885D01*
X0076509Y0119287D02*
X0097877Y0119287D01*
X0101096Y0117688D02*
X0075229Y0117688D01*
X0075628Y0122484D02*
X0086518Y0122484D01*
X0084919Y0124082D02*
X0077379Y0124082D01*
X0077600Y0125681D02*
X0083321Y0125681D01*
X0072215Y0122484D02*
X0018600Y0122484D01*
X0018600Y0120885D02*
X0035554Y0120885D01*
X0035000Y0119287D02*
X0018600Y0119287D01*
X0018600Y0117688D02*
X0035384Y0117688D01*
X0045000Y0114491D02*
X0018600Y0114491D01*
X0018600Y0112893D02*
X0045299Y0112893D01*
X0045700Y0111294D02*
X0018600Y0111294D01*
X0018600Y0109696D02*
X0045609Y0109696D01*
X0045861Y0108097D02*
X0038041Y0108097D01*
X0039774Y0106499D02*
X0047972Y0106499D01*
X0049569Y0104900D02*
X0040532Y0104900D01*
X0040841Y0103302D02*
X0049000Y0103302D01*
X0053041Y0108097D02*
X0092766Y0108097D01*
X0092000Y0106499D02*
X0079433Y0106499D01*
X0080100Y0104900D02*
X0088569Y0104900D01*
X0095354Y0109696D02*
X0050732Y0109696D01*
X0049900Y0111294D02*
X0096953Y0111294D01*
X0098551Y0112893D02*
X0050301Y0112893D01*
X0050600Y0114491D02*
X0100150Y0114491D01*
X0100850Y0116090D02*
X0049842Y0116090D01*
X0045758Y0116090D02*
X0018600Y0116090D01*
X0018600Y0108097D02*
X0031779Y0108097D01*
X0030047Y0106499D02*
X0018600Y0106499D01*
X0018600Y0104900D02*
X0029288Y0104900D01*
X0028980Y0103302D02*
X0027699Y0103302D01*
X0022436Y0103302D02*
X0018600Y0103302D01*
X0018600Y0101703D02*
X0020818Y0101703D01*
X0020156Y0100105D02*
X0018600Y0100105D01*
X0018600Y0098506D02*
X0020121Y0098506D01*
X0020596Y0096908D02*
X0018600Y0096908D01*
X0018600Y0095309D02*
X0021801Y0095309D01*
X0018600Y0093711D02*
X0036374Y0093711D01*
X0036000Y0095309D02*
X0028334Y0095309D01*
X0029539Y0096908D02*
X0036576Y0096908D01*
X0038829Y0098506D02*
X0039165Y0098506D01*
X0040141Y0100105D02*
X0040763Y0100105D01*
X0040803Y0101703D02*
X0042362Y0101703D01*
X0041907Y0095309D02*
X0042960Y0095309D01*
X0042960Y0093711D02*
X0041226Y0093711D01*
X0042960Y0092112D02*
X0018600Y0092112D01*
X0018600Y0090514D02*
X0042960Y0090514D01*
X0042960Y0088915D02*
X0018600Y0088915D01*
X0018600Y0087317D02*
X0021707Y0087317D01*
X0019952Y0085718D02*
X0018600Y0085718D01*
X0030014Y0098506D02*
X0030992Y0098506D01*
X0040898Y0087317D02*
X0041491Y0087317D01*
X0110897Y0095309D02*
X0112978Y0095309D01*
X0111600Y0096908D02*
X0115576Y0096908D01*
X0119900Y0088915D02*
X0124700Y0088915D01*
X0124700Y0087317D02*
X0119900Y0087317D01*
X0119900Y0085718D02*
X0124700Y0085718D01*
X0124700Y0084120D02*
X0119900Y0084120D01*
X0119900Y0082521D02*
X0124700Y0082521D01*
X0124700Y0080923D02*
X0119900Y0080923D01*
X0119900Y0079324D02*
X0124700Y0079324D01*
X0124700Y0077726D02*
X0119900Y0077726D01*
X0119900Y0076127D02*
X0124700Y0076127D01*
X0124700Y0074528D02*
X0119900Y0074528D01*
X0119900Y0072930D02*
X0124700Y0072930D01*
X0124700Y0071331D02*
X0119900Y0071331D01*
X0119900Y0069733D02*
X0124700Y0069733D01*
X0124700Y0068134D02*
X0119900Y0068134D01*
X0119900Y0066536D02*
X0124700Y0066536D01*
X0121570Y0064937D02*
X0119900Y0064937D01*
X0119846Y0063339D02*
X0120168Y0063339D01*
X0136578Y0056672D02*
X0137802Y0057179D01*
X0139293Y0058669D01*
X0140100Y0060617D01*
X0140100Y0062726D01*
X0139293Y0064674D01*
X0137895Y0066072D01*
X0141700Y0066072D01*
X0141700Y0054302D01*
X0142930Y0053072D01*
X0145930Y0050072D01*
X0146478Y0050072D01*
X0144914Y0048508D01*
X0143681Y0045531D01*
X0143681Y0042309D01*
X0144914Y0039332D01*
X0147192Y0037054D01*
X0147390Y0036972D01*
X0137303Y0036972D01*
X0137802Y0037179D01*
X0139293Y0038669D01*
X0140100Y0040617D01*
X0140100Y0042726D01*
X0139293Y0044674D01*
X0137802Y0046165D01*
X0136578Y0046672D01*
X0137802Y0047179D01*
X0139293Y0048669D01*
X0140100Y0050617D01*
X0140100Y0052726D01*
X0139293Y0054674D01*
X0137802Y0056165D01*
X0136578Y0056672D01*
X0137238Y0056945D02*
X0141700Y0056945D01*
X0141700Y0058543D02*
X0139167Y0058543D01*
X0139903Y0060142D02*
X0141700Y0060142D01*
X0141700Y0061740D02*
X0140100Y0061740D01*
X0139846Y0063339D02*
X0141700Y0063339D01*
X0141700Y0064937D02*
X0139030Y0064937D01*
X0149900Y0064937D02*
X0151480Y0064937D01*
X0151480Y0066536D02*
X0149900Y0066536D01*
X0149900Y0068134D02*
X0151480Y0068134D01*
X0151480Y0069733D02*
X0149900Y0069733D01*
X0149610Y0071331D02*
X0151480Y0071331D01*
X0151480Y0072930D02*
X0148012Y0072930D01*
X0149900Y0063339D02*
X0152955Y0063339D01*
X0152700Y0061740D02*
X0149900Y0061740D01*
X0149900Y0060142D02*
X0152700Y0060142D01*
X0152700Y0058543D02*
X0149900Y0058543D01*
X0141700Y0055346D02*
X0138621Y0055346D01*
X0139677Y0053748D02*
X0142254Y0053748D01*
X0143852Y0052149D02*
X0140100Y0052149D01*
X0140072Y0050551D02*
X0145451Y0050551D01*
X0145359Y0048952D02*
X0139410Y0048952D01*
X0137977Y0047354D02*
X0144436Y0047354D01*
X0143774Y0045755D02*
X0138212Y0045755D01*
X0139507Y0044157D02*
X0143681Y0044157D01*
X0143681Y0042558D02*
X0140100Y0042558D01*
X0140100Y0040960D02*
X0144240Y0040960D01*
X0144902Y0039361D02*
X0139580Y0039361D01*
X0138386Y0037763D02*
X0146483Y0037763D01*
X0156170Y0036972D02*
X0156368Y0037054D01*
X0158646Y0039332D01*
X0159880Y0042309D01*
X0159880Y0045531D01*
X0158646Y0048508D01*
X0157082Y0050072D01*
X0177670Y0050072D01*
X0178670Y0051072D01*
X0179900Y0052302D01*
X0179900Y0054322D01*
X0180963Y0054322D01*
X0181900Y0055259D01*
X0181900Y0059084D01*
X0181813Y0059172D01*
X0181900Y0059259D01*
X0181900Y0063084D01*
X0180963Y0064022D01*
X0178880Y0064022D01*
X0178880Y0064053D01*
X0179783Y0064427D01*
X0181273Y0065917D01*
X0181780Y0067141D01*
X0182287Y0065917D01*
X0183778Y0064427D01*
X0185726Y0063620D01*
X0187835Y0063620D01*
X0188437Y0063869D01*
X0214169Y0038137D01*
X0214214Y0038118D01*
X0214607Y0037169D01*
X0214805Y0036972D01*
X0201170Y0036972D01*
X0201368Y0037054D01*
X0203646Y0039332D01*
X0204880Y0042309D01*
X0204880Y0045531D01*
X0203646Y0048508D01*
X0201368Y0050786D01*
X0198391Y0052019D01*
X0195169Y0052019D01*
X0192192Y0050786D01*
X0189914Y0048508D01*
X0188681Y0045531D01*
X0188681Y0042309D01*
X0189914Y0039332D01*
X0192192Y0037054D01*
X0192390Y0036972D01*
X0156170Y0036972D01*
X0157077Y0037763D02*
X0191483Y0037763D01*
X0189902Y0039361D02*
X0158659Y0039361D01*
X0159321Y0040960D02*
X0189240Y0040960D01*
X0188681Y0042558D02*
X0159880Y0042558D01*
X0159880Y0044157D02*
X0188681Y0044157D01*
X0188774Y0045755D02*
X0159787Y0045755D01*
X0159124Y0047354D02*
X0189436Y0047354D01*
X0190359Y0048952D02*
X0158202Y0048952D01*
X0178149Y0050551D02*
X0191957Y0050551D01*
X0196960Y0055346D02*
X0181900Y0055346D01*
X0181900Y0056945D02*
X0195361Y0056945D01*
X0193763Y0058543D02*
X0181900Y0058543D01*
X0181900Y0060142D02*
X0192164Y0060142D01*
X0190565Y0061740D02*
X0181900Y0061740D01*
X0181645Y0063339D02*
X0188967Y0063339D01*
X0183267Y0064937D02*
X0180293Y0064937D01*
X0181530Y0066536D02*
X0182031Y0066536D01*
X0186780Y0068920D02*
X0215528Y0040172D01*
X0219100Y0040172D01*
X0214361Y0037763D02*
X0202077Y0037763D01*
X0203659Y0039361D02*
X0212945Y0039361D01*
X0211346Y0040960D02*
X0204321Y0040960D01*
X0204880Y0042558D02*
X0209748Y0042558D01*
X0208149Y0044157D02*
X0204880Y0044157D01*
X0204787Y0045755D02*
X0206551Y0045755D01*
X0204952Y0047354D02*
X0204124Y0047354D01*
X0203354Y0048952D02*
X0203202Y0048952D01*
X0201755Y0050551D02*
X0201603Y0050551D01*
X0200157Y0052149D02*
X0179748Y0052149D01*
X0178670Y0051072D02*
X0178670Y0051072D01*
X0179900Y0053748D02*
X0198558Y0053748D01*
X0204179Y0069733D02*
X0279402Y0069733D01*
X0281000Y0071331D02*
X0202580Y0071331D01*
X0200982Y0072930D02*
X0281950Y0072930D01*
X0281950Y0074528D02*
X0199383Y0074528D01*
X0197785Y0076127D02*
X0281950Y0076127D01*
X0282591Y0077726D02*
X0197022Y0077726D01*
X0197080Y0079324D02*
X0283506Y0079324D01*
X0283510Y0079320D02*
X0284153Y0078853D01*
X0284861Y0078492D01*
X0285617Y0078246D01*
X0286403Y0078122D01*
X0286800Y0078122D01*
X0287197Y0078122D01*
X0287983Y0078246D01*
X0288739Y0078492D01*
X0289447Y0078853D01*
X0290090Y0079320D01*
X0290652Y0079882D01*
X0291119Y0080525D01*
X0291480Y0081233D01*
X0291726Y0081989D01*
X0291850Y0082774D01*
X0291850Y0083172D01*
X0291850Y0083569D01*
X0291726Y0084354D01*
X0291480Y0085110D01*
X0291119Y0085818D01*
X0290652Y0086462D01*
X0290090Y0087024D01*
X0289447Y0087491D01*
X0288739Y0087852D01*
X0287983Y0088097D01*
X0287197Y0088222D01*
X0286800Y0088222D01*
X0286403Y0088222D01*
X0285617Y0088097D01*
X0284861Y0087852D01*
X0284153Y0087491D01*
X0283510Y0087024D01*
X0282948Y0086462D01*
X0282481Y0085818D01*
X0282120Y0085110D01*
X0281874Y0084354D01*
X0281750Y0083569D01*
X0281750Y0083172D01*
X0286800Y0083172D01*
X0286800Y0088222D01*
X0286800Y0083172D01*
X0286800Y0083172D01*
X0286800Y0083172D01*
X0291850Y0083172D01*
X0286800Y0083172D01*
X0286800Y0083172D01*
X0281750Y0083172D01*
X0281750Y0082774D01*
X0281874Y0081989D01*
X0282120Y0081233D01*
X0282481Y0080525D01*
X0282948Y0079882D01*
X0283510Y0079320D01*
X0282278Y0080923D02*
X0196687Y0080923D01*
X0195674Y0082521D02*
X0281790Y0082521D01*
X0281837Y0084120D02*
X0193076Y0084120D01*
X0190484Y0084120D02*
X0183076Y0084120D01*
X0180484Y0084120D02*
X0173575Y0084120D01*
X0175957Y0082521D02*
X0177886Y0082521D01*
X0181780Y0078920D02*
X0181780Y0075172D01*
X0186687Y0080923D02*
X0186873Y0080923D01*
X0187886Y0082521D02*
X0185674Y0082521D01*
X0185915Y0087317D02*
X0283913Y0087317D01*
X0282430Y0085718D02*
X0128900Y0085718D01*
X0128900Y0084120D02*
X0159986Y0084120D01*
X0165957Y0082521D02*
X0167604Y0082521D01*
X0167030Y0076127D02*
X0166530Y0076127D01*
X0165093Y0074528D02*
X0168467Y0074528D01*
X0163295Y0072930D02*
X0162080Y0072930D01*
X0187513Y0088915D02*
X0329961Y0088915D01*
X0329961Y0087317D02*
X0289687Y0087317D01*
X0291170Y0085718D02*
X0329961Y0085718D01*
X0329961Y0084120D02*
X0291763Y0084120D01*
X0291810Y0082521D02*
X0329961Y0082521D01*
X0329961Y0080923D02*
X0291322Y0080923D01*
X0290094Y0079324D02*
X0329961Y0079324D01*
X0329961Y0077726D02*
X0291009Y0077726D01*
X0291650Y0076127D02*
X0329961Y0076127D01*
X0329961Y0074528D02*
X0291650Y0074528D01*
X0291650Y0072930D02*
X0329961Y0072930D01*
X0329961Y0071331D02*
X0291650Y0071331D01*
X0291650Y0069733D02*
X0329961Y0069733D01*
X0329961Y0068134D02*
X0285723Y0068134D01*
X0284124Y0066536D02*
X0329961Y0066536D01*
X0329961Y0064937D02*
X0282526Y0064937D01*
X0286800Y0078122D02*
X0286800Y0083172D01*
X0286800Y0078122D01*
X0286800Y0079324D02*
X0286800Y0079324D01*
X0286800Y0080923D02*
X0286800Y0080923D01*
X0286800Y0082521D02*
X0286800Y0082521D01*
X0286800Y0083172D02*
X0286800Y0083172D01*
X0286800Y0084120D02*
X0286800Y0084120D01*
X0286800Y0085718D02*
X0286800Y0085718D01*
X0286800Y0087317D02*
X0286800Y0087317D01*
X0329961Y0063339D02*
X0241776Y0063339D01*
X0239600Y0047354D02*
X0316581Y0047354D01*
X0314268Y0045755D02*
X0239600Y0045755D01*
X0239600Y0044157D02*
X0312912Y0044157D01*
X0312250Y0042558D02*
X0239600Y0042558D01*
X0239600Y0040960D02*
X0311850Y0040960D01*
X0311850Y0039361D02*
X0239600Y0039361D01*
X0239600Y0037763D02*
X0312103Y0037763D01*
X0312765Y0036164D02*
X0239600Y0036164D01*
X0239580Y0034566D02*
X0313913Y0034566D01*
X0315722Y0032967D02*
X0238555Y0032967D01*
X0189112Y0090514D02*
X0329961Y0090514D01*
X0329961Y0092112D02*
X0190710Y0092112D01*
X0192309Y0093711D02*
X0329961Y0093711D01*
X0329961Y0095309D02*
X0193907Y0095309D01*
X0194900Y0096908D02*
X0329961Y0096908D01*
X0329961Y0098506D02*
X0194900Y0098506D01*
X0194900Y0100105D02*
X0329961Y0100105D01*
X0329961Y0101703D02*
X0194900Y0101703D01*
X0194900Y0103302D02*
X0329961Y0103302D01*
X0329961Y0104900D02*
X0194900Y0104900D01*
X0194900Y0106499D02*
X0329961Y0106499D01*
X0329961Y0108097D02*
X0194900Y0108097D01*
X0194900Y0109696D02*
X0329961Y0109696D01*
X0329961Y0111294D02*
X0194900Y0111294D01*
X0194900Y0112893D02*
X0329961Y0112893D01*
X0329961Y0114491D02*
X0194900Y0114491D01*
X0194900Y0116090D02*
X0329961Y0116090D01*
X0329961Y0117688D02*
X0194900Y0117688D01*
X0194900Y0119287D02*
X0213474Y0119287D01*
X0213425Y0119470D02*
X0213548Y0119012D01*
X0213785Y0118602D01*
X0214120Y0118267D01*
X0214530Y0118030D01*
X0214988Y0117907D01*
X0219543Y0117907D01*
X0219543Y0125797D01*
X0213425Y0125797D01*
X0213425Y0119470D01*
X0213425Y0120885D02*
X0194900Y0120885D01*
X0194900Y0122484D02*
X0213425Y0122484D01*
X0213425Y0124082D02*
X0194900Y0124082D01*
X0194900Y0125681D02*
X0213425Y0125681D01*
X0213425Y0127397D02*
X0219543Y0127397D01*
X0219543Y0125797D01*
X0221143Y0125797D01*
X0221143Y0117907D01*
X0225698Y0117907D01*
X0226156Y0118030D01*
X0226567Y0118267D01*
X0226902Y0118602D01*
X0227139Y0119012D01*
X0227261Y0119470D01*
X0227261Y0125797D01*
X0221143Y0125797D01*
X0221143Y0127397D01*
X0219543Y0127397D01*
X0219543Y0135287D01*
X0214988Y0135287D01*
X0214530Y0135164D01*
X0214120Y0134927D01*
X0213785Y0134592D01*
X0213548Y0134181D01*
X0213425Y0133724D01*
X0213425Y0127397D01*
X0213425Y0128878D02*
X0194900Y0128878D01*
X0194900Y0130476D02*
X0213425Y0130476D01*
X0213425Y0132075D02*
X0194900Y0132075D01*
X0194900Y0133673D02*
X0213425Y0133673D01*
X0214933Y0135272D02*
X0194900Y0135272D01*
X0194900Y0136870D02*
X0291400Y0136870D01*
X0291400Y0135272D02*
X0225753Y0135272D01*
X0225698Y0135287D02*
X0221143Y0135287D01*
X0221143Y0127397D01*
X0227261Y0127397D01*
X0227261Y0133724D01*
X0227139Y0134181D01*
X0226902Y0134592D01*
X0226567Y0134927D01*
X0226156Y0135164D01*
X0225698Y0135287D01*
X0227261Y0133673D02*
X0291400Y0133673D01*
X0291400Y0132075D02*
X0227261Y0132075D01*
X0227261Y0130476D02*
X0291400Y0130476D01*
X0291400Y0128878D02*
X0227261Y0128878D01*
X0227261Y0125681D02*
X0291387Y0125681D01*
X0291000Y0127279D02*
X0221143Y0127279D01*
X0221143Y0125681D02*
X0219543Y0125681D01*
X0219543Y0127279D02*
X0194900Y0127279D01*
X0186700Y0127279D02*
X0185878Y0127279D01*
X0186700Y0125681D02*
X0184279Y0125681D01*
X0182681Y0124082D02*
X0186700Y0124082D01*
X0186700Y0122484D02*
X0181082Y0122484D01*
X0179483Y0120885D02*
X0186700Y0120885D01*
X0186700Y0119287D02*
X0177885Y0119287D01*
X0176286Y0117688D02*
X0186700Y0117688D01*
X0186700Y0116090D02*
X0174688Y0116090D01*
X0173089Y0114491D02*
X0186700Y0114491D01*
X0186700Y0112893D02*
X0171491Y0112893D01*
X0169892Y0111294D02*
X0186700Y0111294D01*
X0186700Y0109696D02*
X0159139Y0109696D01*
X0156511Y0096908D02*
X0183566Y0096908D01*
X0185165Y0098506D02*
X0139278Y0098506D01*
X0139600Y0096908D02*
X0155089Y0096908D01*
X0153240Y0095309D02*
X0138897Y0095309D01*
X0135837Y0100105D02*
X0186700Y0100105D01*
X0186700Y0101703D02*
X0134238Y0101703D01*
X0158632Y0095309D02*
X0181968Y0095309D01*
X0219543Y0119287D02*
X0221143Y0119287D01*
X0221143Y0120885D02*
X0219543Y0120885D01*
X0219543Y0122484D02*
X0221143Y0122484D01*
X0221143Y0124082D02*
X0219543Y0124082D01*
X0219543Y0128878D02*
X0221143Y0128878D01*
X0221143Y0130476D02*
X0219543Y0130476D01*
X0219543Y0132075D02*
X0221143Y0132075D01*
X0221143Y0133673D02*
X0219543Y0133673D01*
X0219543Y0135272D02*
X0221143Y0135272D01*
X0227261Y0124082D02*
X0329961Y0124082D01*
X0329961Y0122484D02*
X0227261Y0122484D01*
X0227261Y0120885D02*
X0329961Y0120885D01*
X0329961Y0119287D02*
X0227212Y0119287D01*
X0194900Y0138469D02*
X0291400Y0138469D01*
X0291400Y0140067D02*
X0194900Y0140067D01*
X0194900Y0141666D02*
X0291400Y0141666D01*
X0291400Y0143264D02*
X0194900Y0143264D01*
X0194900Y0144863D02*
X0250149Y0144863D01*
X0250214Y0144798D02*
X0249426Y0145586D01*
X0249000Y0146615D01*
X0249000Y0146931D01*
X0248857Y0146872D01*
X0247743Y0146872D01*
X0246714Y0147298D01*
X0245926Y0148086D01*
X0245500Y0149115D01*
X0245500Y0149502D01*
X0244700Y0150302D01*
X0244700Y0162041D01*
X0245000Y0162341D01*
X0245000Y0162729D01*
X0245426Y0163758D01*
X0246214Y0164545D01*
X0247243Y0164972D01*
X0248357Y0164972D01*
X0249386Y0164545D01*
X0250174Y0163758D01*
X0250600Y0162729D01*
X0250600Y0161705D01*
X0251243Y0161972D01*
X0252357Y0161972D01*
X0253386Y0161545D01*
X0254174Y0160758D01*
X0254600Y0159729D01*
X0254600Y0159341D01*
X0254670Y0159272D01*
X0257940Y0159272D01*
X0258214Y0159545D01*
X0259243Y0159972D01*
X0260357Y0159972D01*
X0261386Y0159545D01*
X0262174Y0158758D01*
X0262600Y0157729D01*
X0262600Y0156615D01*
X0262174Y0155586D01*
X0261386Y0154798D01*
X0260357Y0154372D01*
X0259243Y0154372D01*
X0258214Y0154798D01*
X0257940Y0155072D01*
X0252930Y0155072D01*
X0251630Y0156372D01*
X0251243Y0156372D01*
X0250214Y0156798D01*
X0249426Y0157586D01*
X0249000Y0158615D01*
X0249000Y0159638D01*
X0248900Y0159597D01*
X0248900Y0152454D01*
X0249886Y0152045D01*
X0250674Y0151258D01*
X0251100Y0150229D01*
X0251100Y0149912D01*
X0251243Y0149972D01*
X0252357Y0149972D01*
X0253386Y0149545D01*
X0253660Y0149272D01*
X0265940Y0149272D01*
X0266214Y0149545D01*
X0267243Y0149972D01*
X0268357Y0149972D01*
X0269386Y0149545D01*
X0269660Y0149272D01*
X0274940Y0149272D01*
X0275214Y0149545D01*
X0276243Y0149972D01*
X0277357Y0149972D01*
X0278386Y0149545D01*
X0279174Y0148758D01*
X0279600Y0147729D01*
X0279600Y0146615D01*
X0279174Y0145586D01*
X0278386Y0144798D01*
X0277357Y0144372D01*
X0276243Y0144372D01*
X0275214Y0144798D01*
X0274940Y0145072D01*
X0269660Y0145072D01*
X0269386Y0144798D01*
X0268357Y0144372D01*
X0267243Y0144372D01*
X0266214Y0144798D01*
X0265940Y0145072D01*
X0253660Y0145072D01*
X0253386Y0144798D01*
X0252357Y0144372D01*
X0251243Y0144372D01*
X0250214Y0144798D01*
X0249063Y0146461D02*
X0194900Y0146461D01*
X0194900Y0148060D02*
X0245952Y0148060D01*
X0245343Y0149659D02*
X0194900Y0149659D01*
X0194900Y0151257D02*
X0244700Y0151257D01*
X0244700Y0152856D02*
X0194900Y0152856D01*
X0194900Y0154454D02*
X0244700Y0154454D01*
X0244700Y0156053D02*
X0194900Y0156053D01*
X0194900Y0157651D02*
X0244700Y0157651D01*
X0244700Y0159250D02*
X0194900Y0159250D01*
X0194900Y0160848D02*
X0244700Y0160848D01*
X0245000Y0162447D02*
X0194900Y0162447D01*
X0195643Y0164045D02*
X0245714Y0164045D01*
X0249886Y0164045D02*
X0283839Y0164045D01*
X0283500Y0165644D02*
X0197242Y0165644D01*
X0207840Y0167242D02*
X0284161Y0167242D01*
X0288650Y0167242D02*
X0291400Y0167242D01*
X0291400Y0165644D02*
X0289100Y0165644D01*
X0288761Y0164045D02*
X0291400Y0164045D01*
X0291400Y0162447D02*
X0250600Y0162447D01*
X0249000Y0159250D02*
X0248900Y0159250D01*
X0248900Y0157651D02*
X0249399Y0157651D01*
X0248900Y0156053D02*
X0251949Y0156053D01*
X0248900Y0154454D02*
X0259044Y0154454D01*
X0260556Y0154454D02*
X0291400Y0154454D01*
X0291400Y0152856D02*
X0248900Y0152856D01*
X0250674Y0151257D02*
X0291400Y0151257D01*
X0291400Y0149659D02*
X0278113Y0149659D01*
X0279463Y0148060D02*
X0291400Y0148060D01*
X0291400Y0146461D02*
X0279537Y0146461D01*
X0278451Y0144863D02*
X0291400Y0144863D01*
X0296200Y0144863D02*
X0314951Y0144863D01*
X0315362Y0145274D02*
X0313083Y0142996D01*
X0311850Y0140019D01*
X0311850Y0136797D01*
X0313083Y0133820D01*
X0315362Y0131542D01*
X0318339Y0130309D01*
X0321561Y0130309D01*
X0324537Y0131542D01*
X0326816Y0133820D01*
X0328049Y0136797D01*
X0328049Y0140019D01*
X0326816Y0142996D01*
X0324537Y0145274D01*
X0321561Y0146507D01*
X0318339Y0146507D01*
X0315362Y0145274D01*
X0313352Y0143264D02*
X0296200Y0143264D01*
X0296200Y0141666D02*
X0312533Y0141666D01*
X0311871Y0140067D02*
X0296200Y0140067D01*
X0296200Y0138469D02*
X0311850Y0138469D01*
X0311850Y0136870D02*
X0296200Y0136870D01*
X0296200Y0135272D02*
X0312482Y0135272D01*
X0313230Y0133673D02*
X0296200Y0133673D01*
X0296200Y0132075D02*
X0314829Y0132075D01*
X0317934Y0130476D02*
X0296200Y0130476D01*
X0296200Y0128878D02*
X0329961Y0128878D01*
X0329961Y0130476D02*
X0321966Y0130476D01*
X0325071Y0132075D02*
X0329961Y0132075D01*
X0329961Y0133673D02*
X0326669Y0133673D01*
X0327417Y0135272D02*
X0329961Y0135272D01*
X0329961Y0136870D02*
X0328049Y0136870D01*
X0328049Y0138469D02*
X0329961Y0138469D01*
X0329961Y0140067D02*
X0328029Y0140067D01*
X0327367Y0141666D02*
X0329961Y0141666D01*
X0329961Y0143264D02*
X0326547Y0143264D01*
X0324948Y0144863D02*
X0329961Y0144863D01*
X0329961Y0146461D02*
X0321671Y0146461D01*
X0318229Y0146461D02*
X0296200Y0146461D01*
X0296200Y0148060D02*
X0329961Y0148060D01*
X0329961Y0149659D02*
X0296200Y0149659D01*
X0296200Y0151257D02*
X0329961Y0151257D01*
X0329961Y0152856D02*
X0296200Y0152856D01*
X0296200Y0154454D02*
X0329961Y0154454D01*
X0329961Y0156053D02*
X0296200Y0156053D01*
X0296200Y0157651D02*
X0329961Y0157651D01*
X0329961Y0159250D02*
X0296200Y0159250D01*
X0296200Y0160848D02*
X0329961Y0160848D01*
X0329961Y0162447D02*
X0296200Y0162447D01*
X0296200Y0164045D02*
X0329961Y0164045D01*
X0329961Y0165644D02*
X0296200Y0165644D01*
X0296200Y0167242D02*
X0329961Y0167242D01*
X0329961Y0168841D02*
X0296200Y0168841D01*
X0296200Y0170439D02*
X0329961Y0170439D01*
X0329961Y0172038D02*
X0296200Y0172038D01*
X0296200Y0173636D02*
X0329961Y0173636D01*
X0329961Y0175235D02*
X0296200Y0175235D01*
X0295533Y0176833D02*
X0329961Y0176833D01*
X0329961Y0178432D02*
X0294525Y0178432D01*
X0294000Y0180030D02*
X0329961Y0180030D01*
X0329961Y0181629D02*
X0294000Y0181629D01*
X0294000Y0183227D02*
X0329961Y0183227D01*
X0329961Y0184826D02*
X0293257Y0184826D01*
X0289600Y0181629D02*
X0277978Y0181629D01*
X0275622Y0181629D02*
X0256185Y0181629D01*
X0257475Y0180030D02*
X0289600Y0180030D01*
X0289075Y0178432D02*
X0260309Y0178432D01*
X0263098Y0176833D02*
X0288800Y0176833D01*
X0289494Y0175235D02*
X0265697Y0175235D01*
X0266600Y0173636D02*
X0291400Y0173636D01*
X0291400Y0172038D02*
X0285904Y0172038D01*
X0287502Y0170439D02*
X0291400Y0170439D01*
X0291400Y0168841D02*
X0288650Y0168841D01*
X0293800Y0175172D02*
X0293800Y0127172D01*
X0296600Y0127279D02*
X0329961Y0127279D01*
X0329961Y0125681D02*
X0296213Y0125681D01*
X0275149Y0144863D02*
X0269451Y0144863D01*
X0266149Y0144863D02*
X0253451Y0144863D01*
X0253113Y0149659D02*
X0266487Y0149659D01*
X0269113Y0149659D02*
X0275487Y0149659D01*
X0262367Y0156053D02*
X0291400Y0156053D01*
X0291400Y0157651D02*
X0262600Y0157651D01*
X0261682Y0159250D02*
X0291400Y0159250D01*
X0291400Y0160848D02*
X0254083Y0160848D01*
X0291800Y0177172D02*
X0293800Y0175172D01*
X0197693Y0218395D02*
X0123023Y0218395D01*
X0122185Y0219993D02*
X0197693Y0219993D01*
X0197693Y0221592D02*
X0120259Y0221592D01*
X0120728Y0212000D02*
X0132633Y0212000D01*
X0131194Y0210402D02*
X0121565Y0210402D01*
X0122654Y0208803D02*
X0130532Y0208803D01*
X0130500Y0207205D02*
X0123100Y0207205D01*
X0123095Y0205606D02*
X0130919Y0205606D01*
X0131968Y0204008D02*
X0122433Y0204008D01*
X0108782Y0191220D02*
X0099900Y0191220D01*
X0099900Y0189621D02*
X0110380Y0189621D01*
X0111979Y0188023D02*
X0099900Y0188023D01*
X0099900Y0186424D02*
X0113578Y0186424D01*
X0115176Y0184826D02*
X0099900Y0184826D01*
X0099900Y0183227D02*
X0116700Y0183227D01*
X0116700Y0181629D02*
X0099900Y0181629D01*
X0099900Y0180030D02*
X0116700Y0180030D01*
X0116700Y0178432D02*
X0099900Y0178432D01*
X0099900Y0176833D02*
X0116700Y0176833D01*
X0116700Y0175235D02*
X0099900Y0175235D01*
X0099900Y0173636D02*
X0116700Y0173636D01*
X0116700Y0172038D02*
X0099900Y0172038D01*
X0099900Y0170439D02*
X0116700Y0170439D01*
X0116700Y0168841D02*
X0099900Y0168841D01*
X0093700Y0159250D02*
X0092838Y0159250D01*
X0093700Y0157651D02*
X0042900Y0157651D01*
X0042900Y0156053D02*
X0093700Y0156053D01*
X0093700Y0154454D02*
X0042900Y0154454D01*
X0042900Y0152856D02*
X0093700Y0152856D01*
X0093700Y0151257D02*
X0042900Y0151257D01*
X0042900Y0149659D02*
X0093700Y0149659D01*
X0094942Y0148060D02*
X0042900Y0148060D01*
X0042900Y0146461D02*
X0096540Y0146461D01*
X0098139Y0144863D02*
X0042900Y0144863D01*
X0042900Y0143264D02*
X0099737Y0143264D01*
X0095324Y0141666D02*
X0042900Y0141666D01*
X0042900Y0159250D02*
X0088762Y0159250D01*
X0085700Y0173636D02*
X0085305Y0173636D01*
X0085700Y0175235D02*
X0083707Y0175235D01*
X0082108Y0176833D02*
X0085700Y0176833D01*
X0065700Y0186424D02*
X0064517Y0186424D01*
X0065700Y0188023D02*
X0062919Y0188023D01*
X0061320Y0189621D02*
X0065700Y0189621D01*
X0043559Y0194417D02*
X0042603Y0194417D01*
X0047600Y0221592D02*
X0048000Y0221592D01*
X0023942Y0221592D02*
X0018600Y0221592D01*
X0018600Y0223190D02*
X0197693Y0223190D01*
X0168267Y0189621D02*
X0123900Y0189621D01*
X0123900Y0188023D02*
X0165197Y0188023D01*
X0163599Y0186424D02*
X0123900Y0186424D01*
X0123900Y0184826D02*
X0162865Y0184826D01*
X0162244Y0183227D02*
X0155940Y0183227D01*
X0155502Y0183665D02*
X0153554Y0184472D01*
X0151446Y0184472D01*
X0149498Y0183665D01*
X0148007Y0182174D01*
X0147200Y0180226D01*
X0147200Y0178117D01*
X0148007Y0176169D01*
X0149498Y0174679D01*
X0151446Y0173872D01*
X0153554Y0173872D01*
X0155502Y0174679D01*
X0156993Y0176169D01*
X0157800Y0178117D01*
X0157800Y0180226D01*
X0156993Y0182174D01*
X0155502Y0183665D01*
X0157219Y0181629D02*
X0162244Y0181629D01*
X0162275Y0180030D02*
X0157800Y0180030D01*
X0157800Y0178432D02*
X0162937Y0178432D01*
X0163771Y0176833D02*
X0157268Y0176833D01*
X0156058Y0175235D02*
X0165370Y0175235D01*
X0148942Y0175235D02*
X0144658Y0175235D01*
X0144102Y0174679D02*
X0145593Y0176169D01*
X0146400Y0178117D01*
X0146400Y0180226D01*
X0145593Y0182174D01*
X0144102Y0183665D01*
X0142154Y0184472D01*
X0140046Y0184472D01*
X0138098Y0183665D01*
X0136607Y0182174D01*
X0135800Y0180226D01*
X0135800Y0178117D01*
X0136607Y0176169D01*
X0138098Y0174679D01*
X0140046Y0173872D01*
X0142154Y0173872D01*
X0144102Y0174679D01*
X0145868Y0176833D02*
X0147732Y0176833D01*
X0147200Y0178432D02*
X0146400Y0178432D01*
X0146400Y0180030D02*
X0147200Y0180030D01*
X0147781Y0181629D02*
X0145819Y0181629D01*
X0144540Y0183227D02*
X0149060Y0183227D01*
X0137660Y0183227D02*
X0123900Y0183227D01*
X0123900Y0181629D02*
X0136381Y0181629D01*
X0135800Y0180030D02*
X0123900Y0180030D01*
X0123900Y0178432D02*
X0135800Y0178432D01*
X0136332Y0176833D02*
X0123900Y0176833D01*
X0123900Y0175235D02*
X0137542Y0175235D01*
X0126814Y0160848D02*
X0123900Y0160848D01*
X0123900Y0159250D02*
X0126400Y0159250D01*
X0126750Y0157651D02*
X0123900Y0157651D01*
X0123900Y0156053D02*
X0128446Y0156053D01*
X0131154Y0156053D02*
X0142446Y0156053D01*
X0093726Y0140067D02*
X0090874Y0140067D01*
X0092473Y0138469D02*
X0092700Y0138469D01*
X0101442Y0192818D02*
X0105667Y0192818D01*
X0103559Y0194417D02*
X0102603Y0194417D01*
X0107600Y0221592D02*
X0108000Y0221592D01*
D23*
X0102800Y0192922D03*
X0092800Y0192922D03*
X0082800Y0192922D03*
X0072800Y0192922D03*
X0073800Y0183922D03*
X0062800Y0192922D03*
X0052800Y0192922D03*
X0042800Y0192922D03*
X0041800Y0185172D03*
X0032800Y0192922D03*
X0023800Y0192922D03*
X0019800Y0211922D03*
X0019800Y0214922D03*
X0019800Y0217922D03*
X0019800Y0220922D03*
X0047800Y0164172D03*
X0071300Y0148422D03*
X0074300Y0148422D03*
X0074300Y0145422D03*
X0071300Y0145422D03*
X0076300Y0158422D03*
X0076300Y0161422D03*
X0079300Y0161422D03*
X0079300Y0158422D03*
X0085800Y0162172D03*
X0090800Y0161172D03*
X0104800Y0161922D03*
X0107800Y0161922D03*
X0107800Y0154922D03*
X0104800Y0154922D03*
X0097050Y0143172D03*
X0100800Y0140172D03*
X0104942Y0140030D03*
X0108146Y0137825D03*
X0111115Y0135857D03*
X0119020Y0129951D03*
X0121800Y0128172D03*
X0116800Y0125922D03*
X0113800Y0125922D03*
X0113800Y0122922D03*
X0116800Y0122922D03*
X0114800Y0115922D03*
X0122300Y0109672D03*
X0122300Y0106672D03*
X0122300Y0103672D03*
X0117800Y0095172D03*
X0114800Y0093172D03*
X0121300Y0092672D03*
X0126800Y0094172D03*
X0136800Y0097172D03*
X0140550Y0101422D03*
X0140550Y0105422D03*
X0137550Y0107422D03*
X0133550Y0107422D03*
X0151800Y0116172D03*
X0154800Y0114172D03*
X0157800Y0112172D03*
X0151800Y0120922D03*
X0139550Y0133922D03*
X0142800Y0147922D03*
X0142800Y0150922D03*
X0145800Y0150922D03*
X0148800Y0150922D03*
X0148800Y0147922D03*
X0145800Y0147922D03*
X0158800Y0146922D03*
X0158800Y0142922D03*
X0158800Y0150922D03*
X0158800Y0154922D03*
X0158800Y0158922D03*
X0187800Y0171172D03*
X0192800Y0168172D03*
X0193800Y0177172D03*
X0202800Y0178172D03*
X0195800Y0150922D03*
X0195800Y0147922D03*
X0195800Y0144922D03*
X0195800Y0141922D03*
X0195800Y0138922D03*
X0184800Y0123922D03*
X0195800Y0114922D03*
X0195800Y0111922D03*
X0195800Y0108922D03*
X0195800Y0105922D03*
X0182550Y0104422D03*
X0179550Y0104422D03*
X0176550Y0104422D03*
X0173550Y0104422D03*
X0170550Y0104422D03*
X0170550Y0101422D03*
X0173550Y0101422D03*
X0176550Y0101422D03*
X0179550Y0101422D03*
X0182550Y0101422D03*
X0155800Y0094172D03*
X0152800Y0092172D03*
X0149800Y0090172D03*
X0149550Y0085422D03*
X0146550Y0085422D03*
X0143550Y0085422D03*
X0143550Y0082422D03*
X0146550Y0082422D03*
X0143550Y0079422D03*
X0138550Y0075172D03*
X0134550Y0075172D03*
X0130550Y0075172D03*
X0121300Y0074672D03*
X0114300Y0072672D03*
X0108300Y0072672D03*
X0099300Y0076672D03*
X0098300Y0072672D03*
X0090300Y0072672D03*
X0085300Y0072672D03*
X0080800Y0076172D03*
X0074800Y0076172D03*
X0071800Y0073422D03*
X0058800Y0075172D03*
X0054800Y0070172D03*
X0060300Y0087672D03*
X0076800Y0088172D03*
X0080800Y0084172D03*
X0086300Y0084422D03*
X0084800Y0088172D03*
X0092050Y0093922D03*
X0095800Y0092172D03*
X0098800Y0094172D03*
X0102050Y0092672D03*
X0108800Y0097172D03*
X0104300Y0107922D03*
X0094800Y0106172D03*
X0090800Y0103172D03*
X0077300Y0104672D03*
X0088800Y0113172D03*
X0096300Y0114672D03*
X0095800Y0120922D03*
X0089800Y0127172D03*
X0089800Y0131172D03*
X0078300Y0122172D03*
X0074800Y0125172D03*
X0073831Y0120140D03*
X0069550Y0131172D03*
X0059050Y0122172D03*
X0054050Y0112172D03*
X0058800Y0107922D03*
X0051800Y0103172D03*
X0044800Y0103922D03*
X0038800Y0095172D03*
X0037800Y0090922D03*
X0033800Y0090922D03*
X0020800Y0091922D03*
X0020800Y0087922D03*
X0027800Y0105922D03*
X0041050Y0115172D03*
X0037800Y0119172D03*
X0042050Y0122172D03*
X0044800Y0128172D03*
X0047800Y0114172D03*
X0043300Y0143422D03*
X0052300Y0143422D03*
X0033300Y0144422D03*
X0125300Y0154172D03*
X0125800Y0190922D03*
X0233800Y0146422D03*
X0248300Y0149672D03*
X0251800Y0147172D03*
X0257800Y0151672D03*
X0259800Y0157172D03*
X0251800Y0159172D03*
X0247800Y0162172D03*
X0255550Y0167172D03*
X0258550Y0167172D03*
X0261550Y0167172D03*
X0263800Y0173172D03*
X0260800Y0175172D03*
X0257800Y0177172D03*
X0254800Y0179172D03*
X0251800Y0181172D03*
X0273800Y0165172D03*
X0273800Y0161172D03*
X0270050Y0161172D03*
X0273800Y0157422D03*
X0277550Y0161172D03*
X0286300Y0165422D03*
X0287800Y0172172D03*
X0288300Y0180172D03*
X0285550Y0181422D03*
X0276800Y0184172D03*
X0296300Y0184172D03*
X0299300Y0184172D03*
X0276800Y0147172D03*
X0267800Y0147172D03*
X0261800Y0144172D03*
X0261550Y0130172D03*
X0256550Y0130172D03*
X0251550Y0130172D03*
X0251800Y0120922D03*
X0247800Y0120922D03*
X0255800Y0120922D03*
X0259800Y0120922D03*
X0263800Y0120922D03*
X0282800Y0132172D03*
X0289550Y0135172D03*
X0289550Y0138172D03*
X0289550Y0141172D03*
X0289550Y0144172D03*
X0293800Y0127172D03*
X0224800Y0099172D03*
X0224800Y0096422D03*
X0206550Y0075422D03*
X0206550Y0071422D03*
X0202550Y0075422D03*
X0209550Y0061422D03*
X0213550Y0061422D03*
X0213550Y0057422D03*
X0186550Y0038422D03*
X0182550Y0038422D03*
X0178550Y0038422D03*
X0174550Y0038422D03*
X0170550Y0038422D03*
X0166550Y0038422D03*
X0162550Y0038422D03*
X0141550Y0042422D03*
X0141550Y0046422D03*
X0141550Y0050422D03*
X0150550Y0069422D03*
X0151550Y0075422D03*
X0154550Y0075422D03*
X0249800Y0048922D03*
X0254300Y0048922D03*
X0258800Y0048922D03*
X0263050Y0048922D03*
X0267800Y0048922D03*
X0040300Y0045422D03*
X0036800Y0039922D03*
X0032800Y0039922D03*
X0019800Y0040922D03*
X0019800Y0045922D03*
X0019800Y0050922D03*
X0029800Y0051922D03*
X0019800Y0035922D03*
D24*
X0061800Y0060922D02*
X0061800Y0074172D01*
X0063800Y0076172D01*
X0074800Y0076172D01*
X0080800Y0076172D02*
X0080800Y0070922D01*
X0071800Y0061922D01*
X0055800Y0070172D02*
X0055800Y0079172D01*
X0057800Y0080922D01*
X0095550Y0080922D01*
X0096800Y0082172D01*
X0096800Y0091172D01*
X0095800Y0092172D01*
X0098800Y0094172D02*
X0098800Y0080922D01*
X0096800Y0078922D01*
X0061800Y0078922D01*
X0058800Y0075922D01*
X0058800Y0075172D01*
X0055800Y0070172D02*
X0054800Y0070172D01*
X0047241Y0070172D02*
X0047241Y0074282D01*
X0048800Y0075841D01*
X0045060Y0084502D02*
X0045060Y0096431D01*
X0046800Y0098172D01*
X0107800Y0098172D01*
X0108800Y0097172D01*
X0107800Y0093172D02*
X0104800Y0090172D01*
X0104800Y0060672D01*
X0114800Y0061672D02*
X0117800Y0064672D01*
X0117800Y0095172D01*
X0114800Y0093172D02*
X0107800Y0093172D01*
X0094800Y0106172D02*
X0102656Y0114028D01*
X0104595Y0126597D01*
X0094800Y0128172D02*
X0094800Y0138172D01*
X0096800Y0140172D01*
X0100800Y0140172D01*
X0104942Y0140030D02*
X0104942Y0141030D01*
X0095800Y0150172D01*
X0095800Y0160172D01*
X0077800Y0178172D01*
X0077800Y0196672D01*
X0067800Y0197672D02*
X0067800Y0184172D01*
X0090800Y0161172D01*
X0085800Y0162172D02*
X0057800Y0190172D01*
X0057800Y0196672D01*
X0047800Y0197672D02*
X0047800Y0164172D01*
X0035800Y0149172D02*
X0027300Y0149172D01*
X0035800Y0149172D02*
X0036800Y0148172D01*
X0036800Y0132172D01*
X0037800Y0131172D01*
X0069550Y0131172D01*
X0074800Y0125172D02*
X0035800Y0125172D01*
X0034800Y0126172D01*
X0034800Y0138172D01*
X0033800Y0139172D01*
X0028300Y0139172D01*
X0038800Y0136172D02*
X0038800Y0195172D01*
X0037800Y0196672D01*
X0041800Y0185172D02*
X0040800Y0184172D01*
X0040800Y0139172D01*
X0041800Y0138172D01*
X0089800Y0138172D01*
X0092800Y0135172D01*
X0092800Y0130172D01*
X0089800Y0127172D01*
X0089800Y0131172D02*
X0089800Y0134172D01*
X0088800Y0135172D01*
X0039800Y0135172D01*
X0038800Y0136172D01*
X0044800Y0128172D02*
X0083800Y0128172D01*
X0087800Y0124172D01*
X0090800Y0124172D01*
X0094800Y0128172D01*
X0108146Y0137825D02*
X0108146Y0140825D01*
X0097800Y0151172D01*
X0097800Y0161172D01*
X0087800Y0171172D01*
X0087800Y0197672D01*
X0097800Y0196672D02*
X0097800Y0164172D01*
X0099800Y0162172D01*
X0099800Y0152172D01*
X0111115Y0140857D01*
X0111115Y0135857D01*
X0118800Y0130172D02*
X0118800Y0184172D01*
X0107800Y0195172D01*
X0107800Y0197672D01*
X0117800Y0196672D02*
X0121800Y0192672D01*
X0121800Y0128172D01*
X0119020Y0129951D02*
X0118800Y0130172D01*
X0151800Y0116172D02*
X0152800Y0116172D01*
X0153800Y0117172D01*
X0166800Y0117172D01*
X0182800Y0133172D01*
X0182800Y0175172D01*
X0187300Y0179672D01*
X0200300Y0179672D01*
X0201800Y0181172D01*
X0203800Y0181172D01*
X0204800Y0180172D01*
X0250800Y0180172D01*
X0251800Y0181172D01*
X0254800Y0179172D02*
X0253800Y0178172D01*
X0202800Y0178172D01*
X0200800Y0176172D02*
X0201800Y0175172D01*
X0203800Y0175172D01*
X0204800Y0176172D01*
X0256800Y0176172D01*
X0257800Y0177172D01*
X0260800Y0175172D02*
X0259800Y0174172D01*
X0205800Y0174172D01*
X0204800Y0173172D01*
X0200800Y0173172D01*
X0199800Y0174172D01*
X0186800Y0174172D01*
X0184800Y0172172D01*
X0184800Y0132172D01*
X0167800Y0115172D01*
X0156800Y0115172D01*
X0155800Y0114172D01*
X0154800Y0114172D01*
X0157800Y0112172D02*
X0158800Y0113172D01*
X0168800Y0113172D01*
X0186800Y0131172D01*
X0186800Y0170172D01*
X0187800Y0171172D01*
X0188800Y0168172D02*
X0192800Y0172172D01*
X0198800Y0172172D01*
X0199800Y0171172D01*
X0205800Y0171172D01*
X0206800Y0172172D01*
X0262800Y0172172D01*
X0263800Y0173172D01*
X0247800Y0162172D02*
X0246800Y0161172D01*
X0246800Y0151172D01*
X0248300Y0149672D01*
X0251800Y0147172D02*
X0267800Y0147172D01*
X0276800Y0147172D01*
X0259800Y0157172D02*
X0253800Y0157172D01*
X0251800Y0159172D01*
X0284800Y0170172D02*
X0207800Y0170172D01*
X0206800Y0169172D01*
X0197800Y0169172D01*
X0192800Y0164172D01*
X0192800Y0097172D01*
X0184800Y0089172D01*
X0151800Y0089172D01*
X0150800Y0090172D01*
X0149800Y0090172D01*
X0152800Y0092172D02*
X0153800Y0092172D01*
X0154800Y0091172D01*
X0183800Y0091172D01*
X0190800Y0098172D01*
X0190800Y0166172D01*
X0192800Y0168172D01*
X0188800Y0168172D02*
X0188800Y0099172D01*
X0182800Y0093172D01*
X0157800Y0093172D01*
X0156800Y0094172D01*
X0155800Y0094172D01*
X0136800Y0097172D02*
X0135800Y0097172D01*
X0132800Y0100172D01*
X0043800Y0100172D01*
X0038800Y0095172D01*
X0051800Y0103172D02*
X0052800Y0102172D01*
X0089800Y0102172D01*
X0090800Y0103172D01*
X0077300Y0104672D02*
X0054300Y0104672D01*
X0047800Y0109172D01*
X0047800Y0114172D01*
X0037831Y0119140D02*
X0037800Y0119172D01*
X0037831Y0119140D02*
X0072800Y0119172D01*
X0072863Y0119172D01*
X0073831Y0120140D01*
X0075800Y0089172D02*
X0071359Y0089172D01*
X0075800Y0089172D02*
X0076800Y0088172D01*
X0084800Y0088172D01*
X0080800Y0084172D02*
X0071359Y0084172D01*
X0066241Y0084172D02*
X0066241Y0089172D01*
X0066241Y0084172D02*
X0056800Y0084172D01*
X0124800Y0060672D02*
X0126800Y0062672D01*
X0126800Y0094172D01*
X0130550Y0075172D02*
X0130550Y0069422D01*
X0131800Y0068172D01*
X0142800Y0068172D01*
X0143800Y0067172D01*
X0143800Y0055172D01*
X0146800Y0052172D01*
X0176800Y0052172D01*
X0177800Y0053172D01*
X0177800Y0057172D01*
X0177800Y0061172D02*
X0176780Y0062191D01*
X0176780Y0068920D01*
X0166780Y0068920D02*
X0166780Y0062191D01*
X0167800Y0061172D01*
X0167800Y0057172D02*
X0167800Y0055172D01*
X0166800Y0054172D01*
X0147800Y0054172D01*
X0145800Y0056172D01*
X0145800Y0069172D01*
X0143800Y0071172D01*
X0136550Y0071172D01*
X0134550Y0073172D01*
X0134550Y0075172D01*
X0138550Y0075172D02*
X0138550Y0074422D01*
X0139800Y0073172D01*
X0144800Y0073172D01*
X0147800Y0070172D01*
X0147800Y0057172D01*
X0148800Y0056172D01*
X0155800Y0056172D01*
X0156800Y0057172D01*
X0156800Y0061172D02*
X0156780Y0061191D01*
X0156780Y0068920D01*
X0286300Y0165422D02*
X0286550Y0165672D01*
X0286550Y0168422D01*
X0284800Y0170172D01*
X0200800Y0176172D02*
X0194800Y0176172D01*
X0193800Y0177172D01*
D25*
X0291800Y0177172D03*
X0038800Y0085172D03*
D26*
X0276800Y0184172D02*
X0290800Y0184172D01*
X0291800Y0183172D01*
X0291800Y0177172D01*
D27*
X0191780Y0078920D02*
X0191780Y0078172D01*
X0203780Y0066172D01*
X0239800Y0066172D01*
X0279800Y0066172D01*
X0286800Y0073172D01*
X0236800Y0057172D02*
X0235800Y0058172D01*
X0225800Y0058172D01*
X0236800Y0057172D02*
X0236800Y0035172D01*
X0235800Y0034172D01*
X0027800Y0034172D01*
X0025800Y0036172D01*
X0025800Y0055628D01*
X0025800Y0063172D02*
X0027800Y0065172D01*
X0034800Y0065172D01*
X0052871Y0084172D02*
X0056800Y0084172D01*
X0052871Y0084172D02*
X0052540Y0084502D01*
X0129800Y0159172D02*
X0143800Y0159172D01*
D28*
X0143800Y0159172D03*
X0129800Y0159172D03*
X0056800Y0084172D03*
X0034800Y0065172D03*
X0225800Y0058172D03*
X0239800Y0066172D03*
M02*
