G75*
%MOIN*%
%OFA0B0*%
%FSLAX25Y25*%
%IPPOS*%
%LPD*%
%AMOC8*
5,1,8,0,0,1.08239X$1,22.5*
%
%ADD10C,0.12998*%
%ADD11R,0.04337X0.04731*%
%ADD12R,0.03156X0.03943*%
%ADD13R,0.03943X0.03156*%
%ADD14R,0.05124X0.03550*%
%ADD15C,0.06900*%
%ADD16R,0.06900X0.06900*%
%ADD17R,0.04731X0.04337*%
%ADD18R,0.21660X0.24809*%
%ADD19R,0.04337X0.06699*%
%ADD20R,0.03156X0.05912*%
%ADD21C,0.07800*%
%ADD22R,0.07800X0.07800*%
%ADD23R,0.06306X0.01975*%
%ADD24R,0.06306X0.01502*%
%ADD25R,0.01975X0.06306*%
%ADD26R,0.01502X0.06306*%
%ADD27R,0.04400X0.02900*%
%ADD28R,0.04400X0.08200*%
%ADD29C,0.03500*%
%ADD30C,0.05000*%
%ADD31C,0.01301*%
%ADD32R,0.05518X0.04731*%
%ADD33R,0.07880X0.05518*%
%ADD34R,0.04337X0.05912*%
%ADD35R,0.02762X0.05124*%
%ADD36C,0.01575*%
%ADD37R,0.14180X0.14180*%
%ADD38R,0.03400X0.02200*%
%ADD39R,0.02200X0.03400*%
%ADD40R,0.05518X0.07880*%
%ADD41R,0.05315X0.05315*%
%ADD42R,0.05912X0.01975*%
%ADD43C,0.03746*%
%ADD44R,0.06693X0.07874*%
%ADD45R,0.06693X0.10630*%
D10*
X0151780Y0043920D03*
X0196780Y0043920D03*
X0319950Y0039983D03*
X0319950Y0138408D03*
X0170343Y0181715D03*
D11*
X0025800Y0119518D03*
X0025800Y0112825D03*
X0249800Y0059518D03*
X0249800Y0052825D03*
X0267800Y0052825D03*
X0267800Y0059518D03*
D12*
X0300241Y0135172D03*
X0305359Y0135172D03*
X0305359Y0143172D03*
X0300241Y0143172D03*
X0300241Y0151172D03*
X0305359Y0151172D03*
X0305359Y0173172D03*
X0300241Y0173172D03*
X0246109Y0146422D03*
X0240991Y0146422D03*
X0241359Y0180172D03*
X0236241Y0180172D03*
X0160109Y0133172D03*
X0154991Y0133172D03*
X0140359Y0170172D03*
X0135241Y0170172D03*
X0134241Y0195172D03*
X0139359Y0195172D03*
X0139359Y0200172D03*
X0134241Y0200172D03*
X0071109Y0163922D03*
X0065991Y0163922D03*
X0066241Y0105172D03*
X0071359Y0105172D03*
X0051359Y0090172D03*
X0046241Y0090172D03*
X0046241Y0085172D03*
X0051359Y0085172D03*
X0051359Y0080172D03*
X0046241Y0080172D03*
X0046241Y0075172D03*
X0051359Y0075172D03*
X0051359Y0070172D03*
X0046241Y0070172D03*
X0066241Y0087672D03*
X0071359Y0087672D03*
X0086241Y0079172D03*
X0091359Y0079172D03*
X0105241Y0079172D03*
X0110359Y0079172D03*
D13*
X0154800Y0100613D03*
X0154800Y0105731D03*
X0113050Y0158613D03*
X0113050Y0163731D03*
X0053800Y0134731D03*
X0053800Y0129613D03*
X0053800Y0122731D03*
X0053800Y0117613D03*
X0227800Y0139613D03*
X0227800Y0144731D03*
X0251800Y0140731D03*
X0256800Y0140731D03*
X0261800Y0140731D03*
X0261800Y0135613D03*
X0256800Y0135613D03*
X0251800Y0135613D03*
X0282800Y0135613D03*
X0282800Y0140731D03*
X0249800Y0166613D03*
X0249800Y0171731D03*
X0240800Y0172481D03*
X0240800Y0167363D03*
X0281800Y0176613D03*
X0281800Y0181731D03*
X0239800Y0078731D03*
X0234800Y0078731D03*
X0234800Y0073613D03*
X0239800Y0073613D03*
D14*
X0258800Y0059715D03*
X0258800Y0052628D03*
D15*
X0286800Y0083172D03*
D16*
X0286800Y0073172D03*
D17*
X0241146Y0093172D03*
X0234454Y0093172D03*
X0234454Y0101172D03*
X0241146Y0101172D03*
X0215146Y0102172D03*
X0208454Y0102172D03*
X0208454Y0094172D03*
X0215146Y0094172D03*
D18*
X0258800Y0097014D03*
D19*
X0249824Y0068274D03*
X0267776Y0068274D03*
D20*
X0228540Y0093841D03*
X0221060Y0093841D03*
X0221060Y0102502D03*
X0224800Y0102502D03*
X0228540Y0102502D03*
D21*
X0191780Y0078920D03*
X0181780Y0078920D03*
X0171780Y0078920D03*
X0161780Y0078920D03*
X0166780Y0068920D03*
X0176780Y0068920D03*
X0186780Y0068920D03*
X0219100Y0040172D03*
X0230500Y0040172D03*
X0134800Y0041672D03*
X0124800Y0040672D03*
X0124800Y0050672D03*
X0114800Y0051672D03*
X0104800Y0050672D03*
X0094800Y0051672D03*
X0104800Y0060672D03*
X0094800Y0061672D03*
X0081800Y0060922D03*
X0081800Y0050922D03*
X0071800Y0051922D03*
X0061800Y0050922D03*
X0061800Y0060922D03*
X0071800Y0061922D03*
X0071800Y0041922D03*
X0061800Y0040922D03*
X0081800Y0040922D03*
X0094800Y0041672D03*
X0104800Y0040672D03*
X0114800Y0041672D03*
X0134800Y0051672D03*
X0124800Y0060672D03*
X0114800Y0061672D03*
X0134800Y0061672D03*
X0028300Y0139172D03*
X0027300Y0149172D03*
X0028300Y0159172D03*
X0027300Y0169172D03*
X0027800Y0197672D03*
X0037800Y0196672D03*
X0047800Y0197672D03*
X0057800Y0196672D03*
X0067800Y0197672D03*
X0077800Y0196672D03*
X0087800Y0197672D03*
X0097800Y0196672D03*
X0107800Y0197672D03*
X0117800Y0196672D03*
X0117800Y0206672D03*
X0107800Y0207672D03*
X0097800Y0206672D03*
X0087800Y0207672D03*
X0077800Y0206672D03*
X0067800Y0207672D03*
X0057800Y0206672D03*
X0047800Y0207672D03*
X0037800Y0206672D03*
X0027800Y0207672D03*
X0027800Y0217672D03*
X0037800Y0216672D03*
X0047800Y0217672D03*
X0057800Y0216672D03*
X0067800Y0217672D03*
X0077800Y0216672D03*
X0087800Y0217672D03*
X0097800Y0216672D03*
X0107800Y0217672D03*
X0117800Y0216672D03*
X0135800Y0207672D03*
X0145800Y0208672D03*
X0155800Y0207672D03*
X0152500Y0179172D03*
X0141100Y0179172D03*
X0027300Y0129172D03*
D22*
X0051800Y0061922D03*
X0051800Y0051922D03*
X0051800Y0041922D03*
X0156780Y0068920D03*
D23*
X0145902Y0093313D03*
X0083698Y0093313D03*
X0083698Y0141030D03*
X0145902Y0141030D03*
D24*
X0145902Y0138825D03*
X0145902Y0136857D03*
X0145902Y0134888D03*
X0145902Y0132920D03*
X0145902Y0130951D03*
X0145902Y0128983D03*
X0145902Y0127014D03*
X0145902Y0125046D03*
X0145902Y0123077D03*
X0145902Y0121109D03*
X0145902Y0119140D03*
X0145902Y0117172D03*
X0145902Y0115203D03*
X0145902Y0113235D03*
X0145902Y0111266D03*
X0145902Y0109298D03*
X0145902Y0107329D03*
X0145902Y0105361D03*
X0145902Y0103392D03*
X0145902Y0101424D03*
X0145902Y0099455D03*
X0145902Y0097487D03*
X0145902Y0095518D03*
X0083698Y0095518D03*
X0083698Y0097487D03*
X0083698Y0099455D03*
X0083698Y0101424D03*
X0083698Y0103392D03*
X0083698Y0105361D03*
X0083698Y0107329D03*
X0083698Y0109298D03*
X0083698Y0111266D03*
X0083698Y0113235D03*
X0083698Y0115203D03*
X0083698Y0117172D03*
X0083698Y0119140D03*
X0083698Y0121109D03*
X0083698Y0123077D03*
X0083698Y0125046D03*
X0083698Y0127014D03*
X0083698Y0128983D03*
X0083698Y0130951D03*
X0083698Y0132920D03*
X0083698Y0134888D03*
X0083698Y0136857D03*
X0083698Y0138825D03*
D25*
X0090942Y0148274D03*
X0138658Y0148274D03*
X0138658Y0086069D03*
X0090942Y0086069D03*
D26*
X0093146Y0086069D03*
X0095115Y0086069D03*
X0097083Y0086069D03*
X0099052Y0086069D03*
X0101020Y0086069D03*
X0102989Y0086069D03*
X0104957Y0086069D03*
X0106926Y0086069D03*
X0108894Y0086069D03*
X0110863Y0086069D03*
X0112831Y0086069D03*
X0114800Y0086069D03*
X0116769Y0086069D03*
X0118737Y0086069D03*
X0120706Y0086069D03*
X0122674Y0086069D03*
X0124643Y0086069D03*
X0126611Y0086069D03*
X0128580Y0086069D03*
X0130548Y0086069D03*
X0132517Y0086069D03*
X0134485Y0086069D03*
X0136454Y0086069D03*
X0136454Y0148274D03*
X0134485Y0148274D03*
X0132517Y0148274D03*
X0130548Y0148274D03*
X0128580Y0148274D03*
X0126611Y0148274D03*
X0124643Y0148274D03*
X0122674Y0148274D03*
X0120706Y0148274D03*
X0118737Y0148274D03*
X0116769Y0148274D03*
X0114800Y0148274D03*
X0112831Y0148274D03*
X0110863Y0148274D03*
X0108894Y0148274D03*
X0106926Y0148274D03*
X0104957Y0148274D03*
X0102989Y0148274D03*
X0101020Y0148274D03*
X0099052Y0148274D03*
X0097083Y0148274D03*
X0095115Y0148274D03*
X0093146Y0148274D03*
D27*
X0033800Y0118672D03*
X0033800Y0113672D03*
D28*
X0056050Y0156172D03*
X0071800Y0156172D03*
D29*
X0025068Y0099038D03*
X0025068Y0079353D03*
D30*
X0034910Y0075416D03*
X0034910Y0102975D03*
D31*
X0117365Y0080690D02*
X0117365Y0077654D01*
X0114329Y0077654D01*
X0114329Y0080690D01*
X0117365Y0080690D01*
X0117365Y0078954D02*
X0114329Y0078954D01*
X0114329Y0080254D02*
X0117365Y0080254D01*
X0124271Y0080690D02*
X0124271Y0077654D01*
X0121235Y0077654D01*
X0121235Y0080690D01*
X0124271Y0080690D01*
X0124271Y0078954D02*
X0121235Y0078954D01*
X0121235Y0080254D02*
X0124271Y0080254D01*
X0226282Y0125201D02*
X0229318Y0125201D01*
X0226282Y0125201D02*
X0226282Y0128237D01*
X0229318Y0128237D01*
X0229318Y0125201D01*
X0229318Y0126501D02*
X0226282Y0126501D01*
X0226282Y0127801D02*
X0229318Y0127801D01*
X0229318Y0132106D02*
X0226282Y0132106D01*
X0226282Y0135142D01*
X0229318Y0135142D01*
X0229318Y0132106D01*
X0229318Y0133406D02*
X0226282Y0133406D01*
X0226282Y0134706D02*
X0229318Y0134706D01*
D32*
X0267719Y0134628D03*
X0267719Y0142109D03*
X0276774Y0142109D03*
X0276774Y0134628D03*
X0073524Y0100109D03*
X0073524Y0092628D03*
X0064469Y0092628D03*
X0064469Y0100109D03*
D33*
X0060603Y0115172D03*
X0072997Y0115172D03*
X0072997Y0137172D03*
X0060603Y0137172D03*
D34*
X0221810Y0052341D03*
X0229290Y0052341D03*
X0225550Y0061002D03*
D35*
X0225800Y0072030D03*
X0222060Y0072030D03*
X0229540Y0072030D03*
X0229540Y0082313D03*
X0222060Y0082313D03*
D36*
X0266907Y0151325D02*
X0266907Y0152900D01*
X0265529Y0154278D02*
X0263954Y0154278D01*
X0263954Y0156246D02*
X0265529Y0156246D01*
X0265529Y0158215D02*
X0263954Y0158215D01*
X0263954Y0160183D02*
X0265529Y0160183D01*
X0265529Y0162152D02*
X0263954Y0162152D01*
X0263954Y0164120D02*
X0265529Y0164120D01*
X0265529Y0166089D02*
X0263954Y0166089D01*
X0263954Y0168057D02*
X0265529Y0168057D01*
X0266907Y0169435D02*
X0266907Y0171010D01*
X0268876Y0171010D02*
X0268876Y0169435D01*
X0270844Y0169435D02*
X0270844Y0171010D01*
X0272813Y0171010D02*
X0272813Y0169435D01*
X0274781Y0169435D02*
X0274781Y0171010D01*
X0276750Y0171010D02*
X0276750Y0169435D01*
X0278718Y0169435D02*
X0278718Y0171010D01*
X0280687Y0171010D02*
X0280687Y0169435D01*
X0282065Y0168057D02*
X0283639Y0168057D01*
X0283639Y0166089D02*
X0282065Y0166089D01*
X0282065Y0164120D02*
X0283639Y0164120D01*
X0283639Y0162152D02*
X0282065Y0162152D01*
X0282065Y0160183D02*
X0283639Y0160183D01*
X0283639Y0158215D02*
X0282065Y0158215D01*
X0282065Y0156246D02*
X0283639Y0156246D01*
X0283639Y0154278D02*
X0282065Y0154278D01*
X0280687Y0152900D02*
X0280687Y0151325D01*
X0278718Y0151325D02*
X0278718Y0152900D01*
X0276750Y0152900D02*
X0276750Y0151325D01*
X0274781Y0151325D02*
X0274781Y0152900D01*
X0272813Y0152900D02*
X0272813Y0151325D01*
X0270844Y0151325D02*
X0270844Y0152900D01*
X0268876Y0152900D02*
X0268876Y0151325D01*
D37*
X0273800Y0161172D03*
D38*
X0240800Y0162472D03*
X0240800Y0158872D03*
X0240800Y0155722D03*
X0240800Y0152122D03*
D39*
X0245000Y0152672D03*
X0248600Y0152672D03*
D40*
X0293800Y0155975D03*
X0293800Y0168369D03*
X0315800Y0168369D03*
X0315800Y0155975D03*
D41*
X0311296Y0217313D03*
D42*
X0036680Y0056912D03*
X0036680Y0054353D03*
X0036680Y0051794D03*
X0036680Y0049235D03*
X0036680Y0046676D03*
D43*
X0034711Y0044313D03*
X0034711Y0059274D03*
D44*
X0026050Y0037290D03*
X0026050Y0066298D03*
D45*
X0026050Y0051794D03*
M02*
