%
M48
M72
T01C0.01200
T02C0.01600
T03C0.02400
T04C0.02756
T05C0.03150
T06C0.03346
T07C0.03937
T08C0.04000
T09C0.04724
T10C0.12598
%
T01
X20800Y87922
X285550Y181422
X287800Y172172
X261550Y167172
X151550Y75422
X138550Y75172
X19800Y40922
X19800Y45922
X19800Y50922
X29800Y51922
X36800Y39922
X40300Y45422
X20800Y91922
X37800Y119172
X73831Y120140
X78300Y122172
X41050Y115172
X60300Y87672
X71800Y73422
X76800Y88172
X86300Y84422
X58800Y75172
X69550Y131172
X44800Y128172
X27800Y105922
X37800Y90922
X38800Y95172
X33800Y90922
X54800Y70172
X141550Y42422
X141550Y50422
X130550Y75172
X121300Y92672
X117800Y95172
X121300Y74672
X98300Y72672
X108300Y72672
X99300Y76672
X92050Y93922
X102050Y92672
X74800Y76172
X77300Y104672
X58800Y107922
X54050Y112172
X51800Y103172
X84800Y88172
X80800Y84172
X80800Y76172
X90300Y72672
X95800Y92172
X108800Y97172
X98800Y94172
X90800Y103172
X140550Y101422
X140550Y105422
X137550Y107422
X133550Y107422
X122300Y109672
X122300Y106672
X122300Y103672
X136800Y97172
X155800Y94172
X152800Y92172
X149800Y90172
X146550Y85422
X143550Y85422
X143550Y82422
X143550Y79422
X146550Y82422
X149550Y85422
X114800Y93172
X89800Y127172
X89800Y131172
X95800Y120922
X88800Y113172
X74800Y125172
X59050Y122172
X43300Y143422
X33300Y144422
X23800Y192922
X19800Y211922
X19800Y214922
X19800Y217922
X19800Y220922
X41800Y185172
X42050Y122172
X52300Y143422
X32800Y192922
X42800Y192922
X47800Y114172
X44800Y103922
X94800Y106172
X114800Y115922
X104300Y107922
X96300Y114672
X97050Y143172
X102800Y192922
X92800Y192922
X82800Y192922
X72800Y192922
X62800Y192922
X52800Y192922
X85800Y162172
X111115Y135857
X139550Y133922
X104942Y140030
X108146Y137825
X100800Y140172
X107800Y154922
X104800Y154922
X47800Y164172
X76300Y161422
X76300Y158422
X79300Y158422
X74300Y148422
X71300Y148422
X71300Y145422
X74300Y145422
X79300Y161422
X90800Y161172
X107800Y161922
X104800Y161922
X125300Y154172
X142800Y147922
X142800Y150922
X145800Y150922
X145800Y147922
X148800Y147922
X148800Y150922
X158800Y142922
X158800Y146922
X158800Y150922
X158800Y154922
X73800Y183922
X121800Y128172
X119020Y129951
X116800Y125922
X113800Y125922
X113800Y122922
X116800Y122922
X151800Y116172
X151800Y120922
X154800Y114172
X157800Y112172
X126800Y94172
X114300Y72672
X85300Y72672
X141550Y46422
X150550Y69422
X134550Y75172
X154550Y75422
X170550Y101422
X170550Y104422
X173550Y104422
X176550Y104422
X179550Y104422
X179550Y101422
X176550Y101422
X173550Y101422
X184800Y123922
X182550Y104422
X182550Y101422
X186550Y38422
X182550Y38422
X178550Y38422
X174550Y38422
X170550Y38422
X166550Y38422
X162550Y38422
X263050Y48922
X258800Y48922
X254300Y48922
X213550Y61422
X209550Y61422
X213550Y57422
X249800Y48922
X267800Y48922
X224800Y96422
X224800Y99172
X202550Y75422
X206550Y75422
X206550Y71422
X273800Y157422
X273800Y161172
X270050Y161172
X273800Y165172
X193800Y177172
X187800Y171172
X192800Y168172
X195800Y114922
X195800Y111922
X195800Y108922
X195800Y105922
X233800Y146422
X125800Y190922
X158800Y158922
X195800Y138922
X195800Y141922
X195800Y144922
X195800Y147922
X195800Y150922
X202800Y178172
X276800Y184172
X288300Y180172
X293800Y127172
X263800Y173172
X286300Y165422
X260800Y175172
X257800Y177172
X254800Y179172
X251800Y181172
X258550Y167172
X255550Y167172
X259800Y157172
X257800Y151672
X248300Y149672
X247800Y162172
X251800Y159172
X251800Y147172
X261800Y144172
X276800Y147172
X277550Y161172
X282800Y132172
X261550Y130172
X251550Y130172
X267800Y147172
X289550Y135172
X289550Y138172
X289550Y141172
X289550Y144172
X256550Y130172
X255800Y120922
X251800Y120922
X247800Y120922
X259800Y120922
X263800Y120922
X32800Y39922
X19800Y35922
X296300Y184172
X299300Y184172
T02
X38800Y85172
X291800Y177172
T03
X34800Y65172
X56800Y84172
X143800Y159172
X129800Y159172
X239800Y66172
X225800Y58172
T04
X286800Y73172
X286800Y83172
T05
X25068Y79353
X25068Y99038
T06
X34711Y59274
X34711Y44313
T07
X166780Y68920
X171780Y78920
X161780Y78920
X176780Y68920
X156780Y68920
X181780Y78920
X191780Y78920
X186780Y68920
T08
X51800Y41922
X51800Y51922
X51800Y61922
X81800Y60922
X81800Y50922
X94800Y41672
X94800Y61672
X71800Y61922
X61800Y60922
X61800Y50922
X61800Y40922
X71800Y41922
X81800Y40922
X27300Y129172
X28300Y159172
X27800Y207672
X47800Y217672
X67800Y217672
X87800Y217672
X27800Y197672
X114800Y61672
X104800Y60672
X94800Y51672
X71800Y51922
X114800Y51672
X104800Y50672
X104800Y40672
X114800Y41672
X124800Y40672
X124800Y50672
X124800Y60672
X134800Y61672
X134800Y51672
X134800Y41672
X27300Y169172
X219100Y40172
X230500Y40172
X152500Y179172
X141100Y179172
X47800Y197672
X37800Y196672
X37800Y206672
X47800Y207672
X57800Y206672
X67800Y207672
X67800Y197672
X28300Y139172
X27300Y149172
X77800Y196672
X57800Y196672
X77800Y206672
X87800Y207672
X97800Y206672
X107800Y207672
X117800Y206672
X117800Y216672
X107800Y217672
X97800Y216672
X135800Y207672
X155800Y207672
X145800Y208672
X107800Y197672
X117800Y196672
X97800Y196672
X87800Y197672
X77800Y216672
X57800Y216672
X37800Y216672
X27800Y217672
T09
X34910Y102975
X34910Y75416
T10
X151780Y43920
X196780Y43920
X170343Y181715
X319950Y138408
X319950Y39983
M30
